<?xml version="1.0" encoding="utf-8"?>
<!-- Generator: Adobe Illustrator 22.0.0, SVG Export Plug-In . SVG Version: 6.00 Build 0)  -->
<svg version="1.0" id="Layer_1" xmlns="http://www.w3.org/2000/svg" xmlns:xlink="http://www.w3.org/1999/xlink" x="0px" y="0px"
	 viewBox="0 0 1920 1920" enable-background="new 0 0 1920 1920" xml:space="preserve">
<g display="none">
	
		<circle display="inline" fill="none" stroke="#13B198" stroke-width="46.72" stroke-miterlimit="10" cx="666.7" cy="1106" r="267.2"/>
	
		<circle display="inline" fill="none" stroke="#13B198" stroke-width="46.72" stroke-miterlimit="10" cx="666.7" cy="1106" r="167.6"/>
	
		<circle display="inline" fill="none" stroke="#13B198" stroke-width="46.72" stroke-miterlimit="10" cx="1368.6" cy="1221.3" r="151.9"/>
	
		<circle display="inline" fill="none" stroke="#13B198" stroke-width="46.72" stroke-miterlimit="10" cx="1368.6" cy="1221.3" r="41.9"/>
	
		<line display="inline" fill="none" stroke="#13B198" stroke-width="46.72" stroke-linecap="round" stroke-miterlimit="10" x1="1187.9" y1="1127" x2="978.3" y2="1127"/>
	<path display="inline" fill="none" stroke="#13B198" stroke-width="46.72" stroke-linecap="round" stroke-miterlimit="10" d="
		M1373.8,1032.7c13.1-49.7,35.4-156.8-13.5-194.5c-11.1-8.6-21.8-10.4-86.7-20c-76.6-11.4-115-17-127.7-18.6
		c-137.2-17.1-248.7-42-267.2-15.7c-6.5,9.2-3.7,14-21,55c-5.3,12.6-12.9,31.2-26.2,55"/>
	<path display="inline" fill="none" stroke="#13B198" stroke-width="46.72" stroke-linecap="round" stroke-miterlimit="10" d="
		M548.8,700.1c0.9,44.5,1.7,89.1,2.6,133.6"/>
	<path display="inline" fill="none" stroke="#13B198" stroke-width="74.7521" stroke-linecap="round" stroke-miterlimit="10" d="
		M753.1,765.5c40.2-38.4,80.3-76.8,120.5-115.2"/>
	<path display="inline" fill="none" stroke="#13B198" stroke-width="74.7521" stroke-linecap="round" stroke-miterlimit="10" d="
		M1244.2,546.8c0,62.9,0,125.7,0,188.6"/>
</g>
<g display="none">
	<g display="inline">
		<path fill="#13B198" d="M563.6,1387.1h792.8c90.6,0,164.3-73.7,164.3-164.3V697.2c0-90.6-73.7-164.3-164.3-164.3H563.6
			c-90.6,0-164.3,73.7-164.3,164.3v525.6C399.3,1313.4,473,1387.1,563.6,1387.1L563.6,1387.1z M465,697.2
			c0-54.3,44.2-98.6,98.6-98.6h792.8c54.3,0,98.6,44.2,98.6,98.6v525.6c0,54.3-44.2,98.6-98.6,98.6H563.6
			c-54.3,0-98.6-44.2-98.6-98.6V697.2z M465,697.2"/>
		<path fill="#13B198" d="M795.7,775.6v374.5c0,16.2,17.5,26.3,31.5,18.2l331.5-190.3c14.2-8.1,14-28.7-0.3-36.6L827,757.3
			C813,749.5,795.7,759.6,795.7,775.6z M892.7,868.9l132.2,73.5c14.3,7.9,14.4,28.5,0.3,36.6l-132.2,75.9c-14,8-31.5-2.1-31.5-18.2
			V887.3C861.4,871.3,878.7,861.1,892.7,868.9z M861.4,851.6"/>
	</g>
</g>
<path display="none" fill="#13B198" d="M1497.1,1064l-159.1-36.7v-41.4c16.2-13,29.8-28.9,40.3-46.9h22.7c57.9,0,105-47.1,105-105
	c0-23.4-8-44.9-21-62.4V687c0-139-113.1-252-252-252S981,548,981,687v84.7c-13,17.5-21,38.9-21,62.4c0,57.9,47.1,105,105,105h22.7
	c10.5,18,24.1,34,40.3,46.9v41.4L968.9,1064c-10.4,2.4-20.4,6.1-29.9,10.7V960c0-34.7-28.3-63-63-63H371.9c-34.7,0-63,28.3-63,63
	v378.1c0,34.7,28.3,63,63,63h168v42h-42v42h1113.2v-277.8C1611.1,1138.4,1564.2,1079.5,1497.1,1064L1497.1,1064z M1144.3,1066.7
	l51.2,38.4l-51.8,31.1l-11.1-66.8L1144.3,1066.7z M1210.4,1233h45.4l17.5,210h-80.4L1210.4,1233z M1259.9,1191h-53.7l-12.1-36.2
	l38.9-23.4l38.9,23.4L1259.9,1191z M1270.6,1105.1l51.2-38.4l14.8,3.4l-13.3,66.6L1270.6,1105.1z M1401.1,897h-5.5
	c3.5-13.5,5.5-27.5,5.5-42v-84c34.7,0,63,28.3,63,63C1464.1,868.7,1435.8,897,1401.1,897L1401.1,897z M1233,476.9
	c115.8,0,210,94.2,210,210v50.9c-12.9-5.7-27.1-8.9-42-8.9v-42h-42v11.7c-14.6,12.7-32,21.7-50.7,26.4c0.8-0.8,1.7-1.5,2.5-2.3
	l-29.7-29.7c-15.7,15.7-35.5,26.6-56.9,32c0.8-0.8,1.7-1.5,2.5-2.3l-29.7-29.7c-22.8,22.8-54.3,35.9-86.6,35.9h-3.6v-42h-42v42
	c-15,0-29.1,3.2-42,8.9V687C1023,571.1,1117.2,476.9,1233,476.9L1233,476.9z M1065,897c-34.7,0-63-28.3-63-63c0-34.7,28.3-63,63-63
	v84c0,14.5,2,28.5,5.5,42H1065z M1107,855v-84h3.6c20.4,0,40.5-4,59.4-11.4V771h24.6c20.4,0,40.5-4,59.4-11.4V771h24.6
	c28.2,0,56-7.6,80.4-21.2V855c0,14.7-2.7,28.8-7.4,42H1233v42h93.7c-23.1,25.7-56.5,42-93.7,42C1163.5,981,1107,924.5,1107,855
	L1107,855z M1233,1023c22.3,0,43.5-4.5,63-12.4v22.9l-63,47.3l-63-47.3v-22.9C1189.5,1018.6,1210.8,1023,1233,1023L1233,1023z
	 M978.4,1104.9l113.2-26.1l20.8,125.1l44.8-26.9l12.5,37.6l-19,228.5H1044v-231h-42v231H897v-45.9c24.4-8.7,42-31.8,42-59.1v-214.6
	C950.7,1114.7,964.1,1108.3,978.4,1104.9L978.4,1104.9z M708,1401.1h147v42H708V1401.1z M371.9,1359.1c-11.6,0-21-9.4-21-21V960
	c0-11.6,9.4-21,21-21H876c11.6,0,21,9.4,21,21v378.1c0,11.6-9.4,21-21,21H708v-42c0-46.3-37.7-84-84-84s-84,37.7-84,84v42H371.9z
	 M581.9,1317.1c0-23.2,18.8-42,42-42s42,18.8,42,42v126h-84V1317.1z M1569.1,1443.1h-105v-231h-42v231h-106.7l-19-228.5l12.5-37.6
	l43.9,26.4l24.8-123.8l110.1,25.4c47.9,11.1,81.4,53.1,81.4,102.3V1443.1z M1569.1,1443.1"/>
<g display="none">
	<path display="inline" fill="#3C5269" stroke="#3C5269" stroke-width="33.5443" stroke-miterlimit="10" d="M1113.8,412.5
		c-8.8-8-22.2-8-31,0c-10,9.1-239.7,219-346.4,462.3c-11.5-4-24.7-7.1-41.8-7.1c-40.4,0-62,15.1-79.5,27.2
		c-15.2,10.6-27.2,18.9-53.1,18.9c-25.9,0-37.9-8.4-53.1-18.9c-17.4-12.1-39.1-27.2-79.4-27.2c-12.8,0-23.1,10.3-23.1,23.1
		c0,12.8,10.3,23.1,23.1,23.1c25.9,0,37.9,8.4,53.1,18.9c17.4,12.1,39,27.2,79.4,27.2c40.4,0,62.1-15.1,79.5-27.2
		c15.2-10.6,27.2-18.9,53.1-18.9c25.9,0,38,8.4,53.2,18.9c17.4,12.1,39.1,27.2,79.5,27.2c40.4,0,62.1-15.1,79.5-27.2
		c15.2-10.6,27.2-18.9,53.2-18.9c12.8,0,23.1-10.3,23.1-23.1c0-12.7-10.3-23.1-23.1-23.1c-40.4,0-62.1,15.1-79.5,27.2
		c-15.2,10.6-27.2,18.9-53.1,18.9c-24.2,0-36.4-7.4-50.3-17c86.7-200.3,267.4-383.7,321.3-435.6c71.8,69.2,369,371.6,369,637.1
		c0,203.5-165.5,369-369,369c-91.8,0-178.7-34.2-246-94.6c25-4.6,41.1-15.5,54.5-24.8c15.2-10.6,27.2-18.9,53.2-18.9
		c12.8,0,23.1-10.3,23.1-23.1c0-12.8-10.3-23.1-23.1-23.1c-40.4,0-62.1,15.1-79.5,27.2c-15.2,10.6-27.2,18.9-53.1,18.9
		c-25.9,0-38-8.4-53.2-18.9c-17.4-12.1-39.1-27.2-79.5-27.2c-40.4,0-62,15.1-79.4,27.2c-15.2,10.6-27.2,18.9-53.1,18.9
		c-25.9,0-37.9-8.4-53.1-18.9c-17.4-12.1-39-27.2-79.4-27.2c-12.7,0-23.1,10.3-23.1,23.1c0,12.7,10.3,23.1,23.1,23.1
		c25.9,0,37.9,8.4,53.1,18.9c17.4,12.1,39.1,27.2,79.4,27.2c40.4,0,62.1-15.1,79.5-27.2c15.2-10.6,27.2-18.9,53.1-18.9
		c25.9,0,38,8.4,53.2,18.9c9.4,6.5,20.4,13.7,34.5,19.2c79.1,93,193.8,146.4,316,146.4c228.9,0,415.1-186.2,415.1-415.1
		C1513.5,777.6,1130.1,427.2,1113.8,412.5L1113.8,412.5z M1113.8,412.5"/>
	<path display="inline" fill="#3C5269" stroke="#3C5269" stroke-width="33.5443" stroke-miterlimit="10" d="M429.6,1190.6
		c25.9,0,37.9,8.4,53.1,18.9c17.4,12.1,39,27.2,79.4,27.2c12.7,0,23.1-10.3,23.1-23.1c0-12.8-10.3-23.1-23.1-23.1
		c-25.9,0-37.9-8.4-53.1-18.9c-17.4-12.1-39.1-27.2-79.4-27.2c-12.8,0-23.1,10.3-23.1,23.1C406.5,1180.3,416.8,1190.6,429.6,1190.6
		L429.6,1190.6z M429.6,1190.6"/>
	<path display="inline" fill="#3C5269" stroke="#3C5269" stroke-width="33.5443" stroke-miterlimit="10" d="M694.6,1144.5
		c-12.8,0-23.1,10.3-23.1,23.1c0,12.7,10.3,23.1,23.1,23.1c25.9,0,38,8.4,53.2,18.9c17.4,12.1,39.1,27.2,79.5,27.2
		c40.4,0,62.1-15.1,79.5-27.2c15.2-10.6,27.2-18.9,53.2-18.9c26.4,0,39.8,8.6,56.8,19.4c19.6,12.5,41.8,26.7,81.6,26.7
		c12.8,0,23.1-10.3,23.1-23.1c0-12.7-10.3-23.1-23.1-23.1c-26.4,0-39.8-8.6-56.8-19.4c-19.6-12.5-41.8-26.7-81.6-26.7
		c-40.4,0-62.1,15.1-79.5,27.2c-15.2,10.6-27.2,18.9-53.1,18.9c-25.9,0-38-8.4-53.2-18.9C756.7,1159.6,735,1144.5,694.6,1144.5
		L694.6,1144.5z M694.6,1144.5"/>
	<path display="inline" fill="#3C5269" stroke="#3C5269" stroke-width="33.5443" stroke-miterlimit="10" d="M694.6,1006.1
		c-40.4,0-62,15.1-79.5,27.2c-15.2,10.6-27.2,18.9-53.1,18.9c-25.9,0-37.9-8.4-53.1-18.9c-17.4-12.1-39.1-27.2-79.4-27.2
		c-12.8,0-23.1,10.3-23.1,23.1c0,12.7,10.3,23.1,23.1,23.1c25.9,0,37.9,8.4,53.1,18.9c17.4,12.1,39,27.2,79.4,27.2
		c40.4,0,62.1-15.1,79.5-27.2c15.2-10.6,27.2-18.9,53.1-18.9c12.7,0,23.1-10.3,23.1-23.1C717.7,1016.4,707.4,1006.1,694.6,1006.1
		L694.6,1006.1z M694.6,1006.1"/>
	<path display="inline" fill="#3C5269" stroke="#3C5269" stroke-width="33.5443" stroke-miterlimit="10" d="M906.8,1071.2
		c15.2-10.6,27.2-18.9,53.2-18.9c25.9,0,37.9,8.4,53.1,18.9c17.4,12.1,39.1,27.2,79.4,27.2c40.4,0,62.1-15.1,79.5-27.2
		c15.2-10.6,27.2-18.9,53.1-18.9c12.8,0,23.1-10.3,23.1-23.1c0-12.7-10.3-23.1-23.1-23.1c-40.4,0-62,15.1-79.4,27.2
		c-15.2,10.6-27.2,18.9-53.1,18.9c-25.9,0-37.9-8.4-53.1-18.9c-17.4-12.1-39.1-27.2-79.4-27.2c-40.4,0-62.1,15.1-79.5,27.2
		c-15.2,10.6-27.2,18.9-53.1,18.9c-12.8,0-23.1,10.3-23.1,23.1c0,12.8,10.3,23.1,23.1,23.1C867.7,1098.4,889.4,1083.3,906.8,1071.2
		L906.8,1071.2z M906.8,1071.2"/>
</g>
<g display="none">
	<path display="inline" fill="#3C5269" stroke="#3C5269" stroke-width="16.3603" stroke-miterlimit="10" d="M1333.1,1098.9
		c6.7-4.7,15.5-5.5,23-2c7.5,3.5,12.5,10.7,13.2,18.9c2.2,26.9,8.4,117.1-5.8,147.4c-13.1,28-41,44.5-70.1,44.5
		c-10.9,0-22.1-2.3-32.6-7.3c-18.7-8.7-32.8-24.2-39.9-43.7c-7-19.4-6.1-40.4,2.7-59C1237.8,1167.4,1311,1114.4,1333.1,1098.9z
		 M1264.2,1241.1c2.8,7.8,8.6,14.1,16.1,17.6c15.6,7.3,34.2,0.6,41.5-15c4.4-9.4,5.4-44.7,4.1-82.3c-29.8,23-56.2,46.4-60.6,55.8
		c0,0,0,0,0,0C1261.7,1224.8,1261.3,1233.3,1264.2,1241.1z"/>
	<path display="inline" fill="#3C5269" stroke="#3C5269" stroke-width="16.3603" stroke-miterlimit="10" d="M1053,1098.9
		c6.7-4.7,15.5-5.5,23-2c7.5,3.5,12.5,10.7,13.2,18.9c2.2,26.9,8.4,117.1-5.8,147.4c-8.7,18.7-24.2,32.8-43.6,39.8
		c-8.6,3.1-17.5,4.7-26.4,4.7c-11.2,0-22.3-2.5-32.7-7.3c-18.7-8.7-32.8-24.2-39.9-43.6c-7-19.4-6.1-40.4,2.7-59
		C957.7,1167.4,1030.9,1114.4,1053,1098.9z M984.1,1241.1c2.8,7.8,8.6,14.1,16.1,17.7c7.5,3.5,16,3.9,23.9,1.1
		c7.8-2.8,14.1-8.6,17.6-16.1c4.4-9.4,5.4-44.7,4-82.3c-29.8,23.1-56.2,46.4-60.6,55.8c0,0,0,0,0,0
		C981.6,1224.8,981.2,1233.3,984.1,1241.1z"/>
	<path display="inline" fill="#3C5269" stroke="#3C5269" stroke-width="16.3603" stroke-miterlimit="10" d="M772.9,1098.9
		c6.7-4.7,15.5-5.5,23-2c7.5,3.5,12.5,10.7,13.2,18.9c2.2,26.9,8.4,117.1-5.8,147.4c-13.1,28-41,44.5-70.1,44.5
		c-10.9,0-22.1-2.3-32.6-7.3c-18.7-8.7-32.8-24.2-39.9-43.7c-7-19.4-6.1-40.4,2.7-59C677.6,1167.4,750.8,1114.4,772.9,1098.9z
		 M704,1241.1c2.8,7.8,8.6,14.1,16.1,17.6c15.6,7.3,34.2,0.5,41.5-15c4.4-9.4,5.4-44.7,4.1-82.3c-29.8,23.1-56.2,46.4-60.6,55.8
		c0,0,0,0,0,0C701.5,1224.8,701.2,1233.3,704,1241.1z"/>
	<path display="inline" fill="#3C5269" stroke="#3C5269" stroke-width="16.3603" stroke-miterlimit="10" d="M380.6,1256.8
		c-7-19.4-6.1-40.4,2.7-59c14.2-30.3,87.4-83.3,109.5-98.9c6.7-4.7,15.5-5.5,23-2c7.5,3.5,12.5,10.7,13.2,18.9
		c2.2,26.9,8.4,117.1-5.8,147.4c-13.1,28-41,44.5-70.1,44.5c-11,0-22.1-2.3-32.6-7.3C401.8,1291.7,387.7,1276.2,380.6,1256.8z
		 M423.9,1241.1c2.8,7.8,8.6,14.1,16.1,17.6c15.6,7.3,34.2,0.6,41.5-15c4.4-9.4,5.4-44.7,4.1-82.3c-29.8,23.1-56.2,46.4-60.6,55.8
		c0,0,0,0,0,0C421.4,1224.8,421.1,1233.3,423.9,1241.1z"/>
	<path display="inline" fill="#3C5269" stroke="#3C5269" stroke-width="16.3603" stroke-miterlimit="10" d="M1199.8,1326
		c7.5,3.5,12.5,10.7,13.2,18.9c2.2,26.9,8.4,117.1-5.8,147.4c-8.7,18.7-24.2,32.8-43.6,39.9c-8.6,3.1-17.5,4.7-26.3,4.7
		c-11.2,0-22.3-2.5-32.7-7.3c-38.6-18.1-55.2-64.1-37.2-102.7c0,0,0,0,0,0c14.2-30.3,87.4-83.3,109.5-98.8
		C1183.6,1323.3,1192.4,1322.5,1199.8,1326z M1169.6,1390.6c-29.8,23-56.2,46.4-60.6,55.8c-7.3,15.6-0.6,34.2,15,41.5
		c7.6,3.5,16,3.9,23.9,1.1c7.8-2.8,14.1-8.6,17.6-16.1C1169.9,1463.5,1171,1428.2,1169.6,1390.6z"/>
	<path display="inline" fill="#3C5269" stroke="#3C5269" stroke-width="16.3603" stroke-miterlimit="10" d="M919.7,1326
		c7.5,3.5,12.5,10.7,13.2,18.9c2.2,26.9,8.4,117.1-5.8,147.4c-13.1,28-41,44.5-70.1,44.5c-11,0-22.1-2.3-32.6-7.3
		c-38.6-18.1-55.2-64.1-37.2-102.7c0,0,0,0,0,0c14.2-30.3,87.4-83.3,109.5-98.8C903.5,1323.3,912.3,1322.5,919.7,1326z
		 M889.5,1390.6c-29.8,23-56.2,46.4-60.6,55.8c-7.3,15.6-0.6,34.2,15,41.5c15.6,7.3,34.2,0.6,41.5-15
		C889.8,1463.5,890.9,1428.2,889.5,1390.6z"/>
	<path display="inline" fill="#3C5269" stroke="#3C5269" stroke-width="16.3603" stroke-miterlimit="10" d="M639.6,1326
		c7.5,3.5,12.5,10.7,13.2,18.9c2.2,26.9,8.4,117.1-5.8,147.4c-8.7,18.7-24.3,32.8-43.7,39.9c-8.6,3.1-17.5,4.7-26.3,4.7
		c-11.2,0-22.3-2.5-32.7-7.3c-38.6-18.1-55.3-64.1-37.2-102.7c0,0,0,0,0,0c14.2-30.3,87.4-83.3,109.5-98.8
		C623.4,1323.3,632.2,1322.5,639.6,1326z M609.4,1390.6c-29.8,23-56.2,46.4-60.6,55.8c-7.3,15.6-0.5,34.2,15.1,41.5
		c7.5,3.5,16,3.9,23.9,1.1c7.8-2.8,14.1-8.6,17.6-16.1C609.8,1463.5,610.8,1428.2,609.4,1390.6z"/>
	<path display="inline" fill="#3C5269" stroke="#3C5269" stroke-width="16.3603" stroke-miterlimit="10" d="M546.8,1022.4h826.5
		c95.6,0,173.4-77.8,173.4-173.4c0-88.2-66.1-161.2-151.4-172c-6.1-76.4-39-147.4-94.1-201.8c-60.2-59.4-140-92.2-224.6-92.2
		c-102.2,0-197.2,48.4-257.5,130.2c-17.9-3.9-36.1-5.8-54.3-5.8c-56.8,0-110.6,18.1-155.6,52.4c-39.4,29.9-69.6,71.2-86.4,117.5
		c-84.9,11.7-149.3,84.3-149.3,171.7C373.4,944.7,451.2,1022.4,546.8,1022.4z M540.9,721.8c9.8-0.4,18.3-7.1,21-16.5
		c26.2-89.4,109.7-151.8,202.9-151.8c19.5,0,38.9,2.7,57.8,8.1c9.6,2.7,19.9-1.1,25.5-9.4c50.9-77,136.3-123,228.5-123
		c148.9,0,271.6,121.1,273.6,269.9c0.2,12.6,10.5,22.7,23.1,22.7c70.2,0,127.4,57.1,127.4,127.4c0,70.2-57.1,127.4-127.4,127.4
		H546.8c-70.2,0-127.4-57.2-127.4-127.4C419.4,780.8,472.7,724.9,540.9,721.8z"/>
	<path display="inline" fill="#3C5269" stroke="#3C5269" stroke-width="16.3603" stroke-miterlimit="10" d="M614.2,925.7h197.1
		c12.7,0,23-10.3,23-23c0-12.7-10.3-23-23-23H614.2c-12.7,0-23,10.3-23,23C591.2,915.4,601.5,925.7,614.2,925.7z"/>
	<path display="inline" fill="#3C5269" stroke="#3C5269" stroke-width="16.3603" stroke-miterlimit="10" d="M884,925.7
		c29.6,0,29.7-46,0-46C854.4,879.7,854.3,925.7,884,925.7z"/>
</g>
<g display="none">
	<path display="inline" fill="none" stroke="#3C5269" stroke-width="125.8882" stroke-linecap="round" stroke-miterlimit="10" d="
		M1460.6,410.8V1276c0,128.8-104.4,233.1-233.1,233.1H692.6c-128.8,0-233.1-104.4-233.1-233.1V410.8"/>
	<path display="inline" fill="none" stroke="#3C5269" stroke-width="104.9068" stroke-linecap="round" stroke-miterlimit="10" d="
		M598.1,810.1c42.2,39.5,105.9,85.6,178.3,78.7c82.3-7.8,103.3-77.3,183.6-78.7c86.6-1.5,111.9,78.6,194.1,78.7
		c38.5,0.1,96.3-17.4,167.9-110.2"/>
</g>
<path display="none" fill="#3C5269" stroke="#3C5269" stroke-width="35.5035" stroke-miterlimit="10" d="M1446.7,392.5
	c-11.6-6.1-25.9-1.7-32,9.9c0,0,0,0.1,0,0.1c0,0.7-120.1,233.6-488.7,274.2c-48.1,5.1-95.1,17.7-139.3,37.2
	c-79.2,34.4-144.6,94.4-185.8,170.2c-38.5,71.3-54.4,152.6-45.7,233.1c6.4,58.7,26,115.2,57.4,165.3c-65.5,47-138.8,55-212.9,214
	c-5.5,11.9-0.3,26,11.5,31.5c11.9,5.5,26,0.3,31.5-11.5l0,0c66.5-141.8,137.1-151.7,197.9-195.5c72.9,89.6,182.2,140.1,299.4,148.4
	c78.9,5.1,157.9-8.4,230.6-39.3c79-33.1,148.7-84.9,203.2-151c140.5-170.2,207.4-456.4,85-871.8
	C1456.9,401,1452.6,395.6,1446.7,392.5L1446.7,392.5z M654.1,1259.1c-9-14.2-17-29.1-23.8-44.5c-14.4-32.5-23.7-67.1-27.5-102.4
	c-8-70.9,5.7-142.6,39.3-205.6c36.3-66.8,93.9-119.5,163.7-149.7c39.9-17.4,82.2-28.4,125.5-32.9
	c243.3-26.2,386.4-134.5,460.3-213.1c-43.4,142.9-118.1,274.3-218.7,384.6l-14.4-145.1c-0.7-13.1-11.9-23.1-25-22.3
	c-13.1,0.7-23.1,11.9-22.3,25c0,0.6,0.1,1.3,0.2,1.9l18.5,186.5C1019.5,1053.2,866.5,1165.4,654.1,1259.1L654.1,1259.1z
	 M1337,1248.8c-49.5,60.3-113,107.7-184.9,138c-66.1,27.9-137.9,40-209.5,35.1c-99.7-5.1-193.3-49.7-259.9-124
	c78.1-34.6,153.7-74.7,226-120.1l208.1,39.3c12.9,2,25.1-6.8,27.1-19.7c2-12.5-6.2-24.3-18.6-26.9l-159.9-30.3
	c73.8-50.7,142.6-108.5,205.2-172.5c1.1-1,2.2-2.1,3.1-3.3c165.3-172.1,235.6-342.3,264.9-447.1c80.9,345.2,19,585.4-101.6,731.2
	V1248.8z"/>
<path display="none" fill="#3C5269" stroke="#3C5269" stroke-width="56.9533" stroke-miterlimit="10" d="M1600.6,932.1h-140.7
	c-6.5-117.2-53.2-223.6-126.9-305.9l99.6-99.6c10.9-10.9,10.9-28.5,0-39.4c-10.9-10.9-28.5-10.9-39.4,0l-99.6,99.6
	c-82.2-73.6-188.6-120.4-305.9-126.9V319.3c0-15.4-12.5-27.9-27.8-27.9c-15.4,0-27.9,12.5-27.9,27.9V460
	c-117.2,6.5-223.6,53.2-305.9,126.9l-99.6-99.6c-10.9-10.9-28.5-10.9-39.4,0c-10.9,10.9-10.9,28.5,0,39.4l99.6,99.6
	c-73.6,82.2-120.4,188.7-126.8,305.9H319.4c-15.4,0-27.9,12.5-27.9,27.9c0,15.4,12.5,27.8,27.9,27.8h140.7
	c6.5,117.2,53.2,223.6,126.8,305.9l-99.6,99.6c-10.9,10.9-10.9,28.5,0,39.4c5.4,5.4,12.6,8.2,19.7,8.2c7.1,0,14.3-2.7,19.7-8.2
	l99.6-99.6c82.2,73.6,188.6,120.4,305.9,126.9v140.7c0,15.4,12.5,27.9,27.9,27.9c15.4,0,27.8-12.5,27.8-27.9V1460
	c117.2-6.5,223.6-53.2,305.9-126.9l99.6,99.6c5.4,5.4,12.6,8.2,19.7,8.2c7.1,0,14.2-2.7,19.7-8.2c10.9-10.9,10.9-28.5,0-39.4
	l-99.6-99.6c73.6-82.2,120.4-188.7,126.9-305.9h140.7c15.4,0,27.9-12.5,27.9-27.8C1628.5,944.6,1616,932.1,1600.6,932.1
	L1600.6,932.1z M960,1405.7c-245.7,0-445.7-199.9-445.7-445.7c0-245.8,199.9-445.7,445.7-445.7c245.7,0,445.6,199.9,445.6,445.7
	C1405.6,1205.7,1205.7,1405.7,960,1405.7L960,1405.7z M960,1405.7"/>
<path display="none" fill="#3C5269" d="M478.9,1448.1c5.9,5.6,14.8,6.9,21.9,3.2l935.8-475.7c7.5-3.9,11.6-12.1,10.2-20.4
	c-1.5-8.4-8.1-14.7-16.5-15.8l-430.4-54.5l-65.1-402.1c-1.4-8.4-8-14.9-16.4-16c-1.1-0.1-2.3-0.2-3.3-0.2
	c-7.2,0.3-13.8,4.6-16.8,11.4l-423.7,948.3C471.3,1433.8,473,1442.4,478.9,1448.1L478.9,1448.1z M478.9,1448.1"/>
<g display="none">
	<g display="inline">
		<path fill="#3C5269" d="M1229.7,768h-94.3c-9,0-16.3,7.3-16.3,16.3c0,9,7.3,16.3,16.3,16.3h94.3c9,0,16.3-7.3,16.3-16.3
			C1246,775.3,1238.7,768,1229.7,768L1229.7,768z M1229.7,768"/>
		<path fill="#3C5269" d="M1135.4,668.8h42.8c9,0,16.3-7.3,16.3-16.3c0-9-7.3-16.3-16.3-16.3h-42.8c-9,0-16.3,7.3-16.3,16.3
			C1119.2,661.5,1126.4,668.8,1135.4,668.8L1135.4,668.8z M1135.4,668.8"/>
		<path fill="#3C5269" d="M1135.4,537h58c9,0,16.3-7.3,16.3-16.3c0-9-7.3-16.3-16.3-16.3h-58c-9,0-16.3,7.3-16.3,16.3
			C1119.2,529.8,1126.4,537,1135.4,537L1135.4,537z M1135.4,537"/>
		<path fill="#3C5269" d="M1193.4,1031.6h-58c-9,0-16.3,7.3-16.3,16.3c0,9,7.3,16.3,16.3,16.3h58c9,0,16.3-7.3,16.3-16.3
			C1209.7,1038.8,1202.4,1031.6,1193.4,1031.6L1193.4,1031.6z M1193.4,1031.6"/>
		<path fill="#3C5269" d="M1135.4,932.3h42.8c9,0,16.3-7.3,16.3-16.3c0-9-7.3-16.3-16.3-16.3h-42.8c-9,0-16.3,7.3-16.3,16.3
			C1119.2,925,1126.4,932.3,1135.4,932.3L1135.4,932.3z M1135.4,932.3"/>
		<path fill="#3C5269" d="M1064.8,1076.6V552.2c0-81.1-66-147-147-147c-81.1,0-147,66-147,147v524.5c-60.7,46-96.8,118.1-96.8,194.5
			c0,134.4,109.4,243.8,243.8,243.8c134.4,0,243.8-109.4,243.8-243.8C1161.6,1194.7,1125.6,1122.6,1064.8,1076.6L1064.8,1076.6z
			 M917.8,1482.4c-116.5,0-211.3-94.8-211.3-211.3c0-68.7,33.6-133.3,89.9-172.9c4.3-3,6.9-8,6.9-13.3V552.2
			c0-63.2,51.4-114.5,114.5-114.5c63.2,0,114.5,51.4,114.5,114.5v532.7c0,5.3,2.6,10.3,6.9,13.3c56.3,39.6,89.9,104.2,89.9,172.9
			C1129.1,1387.6,1034.3,1482.4,917.8,1482.4L917.8,1482.4z M917.8,1482.4"/>
		<path fill="#3C5269" d="M989,1108.8V552.2c0-39.2-31.9-71.2-71.2-71.2c-39.2,0-71.2,31.9-71.2,71.2v417.5c0,9,7.3,16.3,16.3,16.3
			c9,0,16.3-7.3,16.3-16.3V668.8h77.3v450.9c0,6.8,4.2,12.9,10.6,15.2c54.8,20.4,91.7,73.5,91.7,132c0,77.7-63.2,140.9-140.9,140.9
			c-77.7,0-140.9-63.2-140.9-140.9c0-58.5,36.8-111.6,91.7-132c6.4-2.4,10.6-8.5,10.6-15.2v-85c0-9-7.3-16.3-16.3-16.3
			c-9,0-16.3,7.3-16.3,16.3v74.1c-61.6,27.8-102.2,89.9-102.2,158.1c0,95.6,77.8,173.4,173.4,173.4c95.6,0,173.4-77.8,173.4-173.4
			C1091.2,1198.8,1050.6,1136.6,989,1108.8L989,1108.8z M879.2,636.3v-84.1c0-21.3,17.3-38.7,38.7-38.7c21.3,0,38.6,17.3,38.6,38.7
			v84.1H879.2z M879.2,636.3"/>
	</g>
</g>
<g display="none">
	<g display="inline">
		<g>
			<path fill="#FFFFFF" d="M1195.2,980.6c0,19.7-23.3,35.8-51.8,35.8H538c-28.5,0-51.8-16.1-51.8-35.8v-53.7
				c0-19.7,23.3-35.8,51.8-35.8h605.4c28.5,0,51.8,16.1,51.8,35.8V980.6z"/>
		</g>
		<g>
			<path fill="#FFFFFF" d="M1433.8,679.8c0,19.7-23.3,35.8-51.8,35.8H538c-28.5,0-51.8-16.1-51.8-35.8v-53.7
				c0-19.7,23.3-35.8,51.8-35.8h844c28.5,0,51.8,16.1,51.8,35.8V679.8z"/>
		</g>
		<g>
			<path fill="#FFFFFF" d="M1075.9,1293.9c0,19.7-23.3,35.8-51.8,35.8H538c-28.5,0-51.8-16.1-51.8-35.8v-53.7
				c0-19.7,23.3-35.8,51.8-35.8h486.2c28.5,0,51.8,16.1,51.8,35.8V1293.9z"/>
		</g>
	</g>
</g>
<g display="none">
	<path display="inline" fill="none" stroke="#3C5269" stroke-width="97.7304" stroke-linecap="round" stroke-miterlimit="10" d="
		M986,469c261.5,13.7,468.1,231.5,465.3,495.8c-2.8,271.3-225.1,489-496.5,486.2c-271.3-2.8-489-225.1-486.2-496.5
		c0.3-25.5,2.5-50.5,6.5-74.9"/>
	<path display="inline" fill="none" stroke="#13B198" stroke-width="39.0922" stroke-linecap="round" stroke-miterlimit="10" d="
		M513.3,754.8c64.2-139.7,192.3-245,348.5-276.7"/>
</g>
<g>
	<path fill="none" stroke="#3C5269" stroke-width="97.7721" stroke-linecap="round" stroke-miterlimit="10" d="M991.9,469
		c166.2,10.7,309.9,104,390.5,239.4"/>
	<path fill="none" stroke="#13B198" stroke-width="39.1088" stroke-linecap="round" stroke-miterlimit="10" d="M1436.4,837.8
		c9.9,38.9,15.2,79.7,15.2,121.7c0,271.5-220.1,491.6-491.6,491.6s-491.6-220.1-491.6-491.6c0-237.3,168.1-435.3,391.7-481.4"/>
</g>
</svg>
