<?xml version="1.0" encoding="utf-8"?>
<!-- Generator: Adobe Illustrator 22.0.0, SVG Export Plug-In . SVG Version: 6.00 Build 0)  -->
<svg version="1.1" id="Layer_1" xmlns="http://www.w3.org/2000/svg" xmlns:xlink="http://www.w3.org/1999/xlink" x="0px" y="0px"
	 viewBox="0 0 1920 1920" style="enable-background:new 0 0 1920 1920;" xml:space="preserve">
<style type="text/css">
	.st0{fill:#FFFFFF;}
	.st1{fill:#3B5269;}
	.st2{fill:#FFFFFF;stroke:#3B5269;stroke-width:8.6383;stroke-miterlimit:10;}
	.st3{fill:#3B5269;stroke:#3B5269;stroke-width:8.6383;stroke-miterlimit:10;}
	.st4{fill:#3A5269;}
</style>
<g>
	<g>
		<g>
			<path class="st0" d="M1243.7,665c-1.5,0-2.8,0.3-4.3,0.3c-47.3-118.2-162-197.2-291-197.2c-163.7,0-298.5,124.6-312.9,285.9
				c-69.6,23.9-120.2,89.2-120.2,166.8c0,97.8,79.5,177,177,177h551.1c119.4,0,216.4-97.1,216.4-216.4
				C1460.2,762.1,1363.1,665,1243.7,665L1243.7,665z"/>
			<path class="st1" d="M1243.7,665c-1.5,0-2.8,0.3-4.3,0.3c-47.3-118.2-162-197.2-291-197.2c-163.7,0-298.5,124.6-312.9,285.9
				c-69.6,23.9-120.2,89.2-120.2,166.8c0,97.8,79.5,177,177,177h551.1c119.4,0,216.4-97.1,216.4-216.4
				C1460.2,762.1,1363.1,665,1243.7,665L1243.7,665z M1243.7,1058.5H692.6c-76,0-137.8-61.8-137.8-137.8s61.8-137.8,137.8-137.8
				c10.9,0,19.6-8.7,19.6-19.6s-8.7-19.6-19.6-19.6c-5.8,0-11,1.2-16.6,1.6c18-135,133.4-237.9,272.5-237.9
				c109.3,0,206.7,64.8,250.4,162.9c-30.5,6.6-59.7,19.1-84.9,37.9c-8.7,6.4-10.6,18.8-4.1,27.5c6.4,8.7,18.8,10.6,27.5,4.1
				c30.8-22.9,68.6-35.4,106.3-35.4c97.6,0,177,79.5,177,177C1420.9,979,1341.5,1058.5,1243.7,1058.5L1243.7,1058.5z"/>
		</g>
		<g>
			<path class="st2" d="M618.5,932.4c1.1,0,2.1,0.2,3.1,0.2c34.7-86.6,118.8-144.5,213.2-144.5c120,0,218.8,91.3,229.3,209.5
				c51,17.5,88.1,65.4,88.1,122.3c0,71.6-58.2,129.7-129.7,129.7H618.6c-87.5,0-158.6-71.2-158.6-158.6
				C459.9,1003.6,531,932.4,618.5,932.4L618.5,932.4z"/>
			<path class="st3" d="M618.5,932.4c1.1,0,2.1,0.2,3.1,0.2c34.7-86.6,118.8-144.5,213.2-144.5c120,0,218.8,91.3,229.3,209.5
				c51,17.5,88.1,65.4,88.1,122.3c0,71.6-58.2,129.7-129.7,129.7H618.6c-87.5,0-158.6-71.2-158.6-158.6
				C459.9,1003.6,531,932.4,618.5,932.4L618.5,932.4z M618.5,1220.8h403.9c55.7,0,101-45.3,101-101c0-55.7-45.3-101-101-101
				c-8,0-14.4-6.4-14.4-14.4c0-8,6.4-14.4,14.4-14.4c4.2,0,8.1,0.8,12.2,1.2c-13.2-98.9-97.7-174.3-199.7-174.3
				c-80.1,0-151.5,47.5-183.5,119.4c22.3,4.8,43.7,14,62.2,27.8c6.4,4.7,7.7,13.8,3,20.2c-4.7,6.4-13.8,7.7-20.2,3
				c-22.6-16.8-50.3-26-77.9-26c-71.5,0-129.7,58.2-129.7,129.7C488.6,1162.5,546.9,1220.8,618.5,1220.8L618.5,1220.8z"/>
		</g>
	</g>
	<path class="st4" d="M624.2,1294c-6.8-3.5-15-2.6-21,2l-62.2,47.5c-16.3,11.6-25.6,29.2-25.6,48.3c0,33.1,26.9,60,60,60
		s60-26.9,60-60v-79.9C635.4,1304.3,631.1,1297.3,624.2,1294L624.2,1294z M595.4,1391.9c0,11-9,20-20,20c-11,0-20-8.9-20-20
		c0-8.3,5.7-13.4,9-15.8c0.2-0.2,0.5-0.3,0.7-0.5l30.3-23.2L595.4,1391.9L595.4,1391.9z"/>
	<path class="st4" d="M904.2,1294c-6.9-3.5-15-2.6-21,2l-62.2,47.5c-16.3,11.6-25.6,29.2-25.6,48.3c0,33.1,26.9,60,60,60
		s60-26.9,60-60v-79.9C915.4,1304.3,911,1297.3,904.2,1294L904.2,1294z M875.3,1391.9c0,11-9,20-20,20s-20-8.9-20-20
		c0-8.3,5.7-13.4,9-15.8c0.2-0.2,0.5-0.3,0.7-0.5l30.3-23.2L875.3,1391.9L875.3,1391.9z"/>
	<path class="st4" d="M1351.2,1293.9c6.9-3.5,15-2.6,21,2l62.2,47.6c16.3,11.6,25.6,29.2,25.6,48.3c0,33.1-26.9,60-60,60
		c-33.1,0-60-26.9-60-60v-80C1340,1304.2,1344.3,1297.3,1351.2,1293.9L1351.2,1293.9z M1380,1391.8c0,11,9,20,20,20
		c11,0,20-8.9,20-20c0-8.3-5.7-13.4-9-15.8c-0.2-0.2-0.4-0.3-0.7-0.5l-30.3-23.2L1380,1391.8L1380,1391.8z"/>
	<path class="st4" d="M1093.6,1293.9c6.9-3.5,15-2.6,21,2l62.2,47.6c16.3,11.6,25.6,29.2,25.6,48.3c0,33.1-26.9,60-60,60
		c-33.1,0-60-26.9-60-60v-80C1082.5,1304.2,1086.8,1297.3,1093.6,1293.9L1093.6,1293.9z M1122.4,1391.8c0,11,9,20,20,20
		c11,0,20-8.9,20-20c0-8.3-5.7-13.4-9-15.8c-0.2-0.2-0.4-0.3-0.7-0.5l-30.3-23.2L1122.4,1391.8L1122.4,1391.8z"/>
</g>
</svg>
