<?xml version="1.0" encoding="utf-8"?>
<!-- Generator: Adobe Illustrator 22.0.0, SVG Export Plug-In . SVG Version: 6.00 Build 0)  -->
<svg version="1.1" id="Layer_1" xmlns="http://www.w3.org/2000/svg" xmlns:xlink="http://www.w3.org/1999/xlink" x="0px" y="0px"
	 viewBox="0 0 1920 1920" style="enable-background:new 0 0 1920 1920;" xml:space="preserve">
<style type="text/css">
	.st0{fill:#3B5269;}
	.st1{fill:#FFFFFF;}
	.st2{fill:#FFFFFF;stroke:#3B5269;stroke-width:7.1709;stroke-miterlimit:10;}
	.st3{fill:#3B5269;stroke:#3B5269;stroke-width:7.1709;stroke-miterlimit:10;}
	.st4{fill:#3A5269;}
</style>
<g>
	<path class="st0" d="M1272.9,884.2h-87.3c-4.1-72.8-33-138.9-78.8-189.9l61.8-61.8c6.7-6.7,6.7-17.7,0-24.5
		c-6.7-6.7-17.7-6.7-24.5,0l-61.8,61.8c-51.1-45.7-117.1-74.7-189.9-78.8v-87.3c0-9.5-7.7-17.3-17.3-17.3c-9.5,0-17.3,7.7-17.3,17.3
		V591c-72.8,4.1-138.9,33-189.9,78.8L606,607.9c-6.7-6.7-17.7-6.7-24.5,0c-6.7,6.7-6.7,17.7,0,24.5l61.8,61.8
		c-45.7,51.1-74.7,117.1-78.8,189.9h-87.3c-9.5,0-17.3,7.7-17.3,17.3c0,9.5,7.7,17.3,17.3,17.3h87.3c4.1,72.8,33,138.9,78.8,189.9
		l-61.8,61.8c-6.7,6.7-6.7,17.7,0,24.5c3.4,3.4,7.8,5.1,12.2,5.1c4.4,0,8.9-1.7,12.2-5.1l61.8-61.8c51.1,45.7,117.1,74.7,189.9,78.8
		v87.3c0,9.5,7.7,17.3,17.3,17.3s17.3-7.7,17.3-17.3v-87.3c72.8-4.1,138.9-33,189.9-78.8l61.8,61.8c3.4,3.4,7.8,5.1,12.2,5.1
		c4.4,0,8.9-1.7,12.2-5.1c6.7-6.7,6.7-17.7,0-24.5l-61.8-61.8c45.7-51.1,74.7-117.1,78.8-189.9h87.5c9.5,0,17.3-7.7,17.3-17.3
		C1290.1,891.9,1282.4,884.2,1272.9,884.2L1272.9,884.2z M875.1,1178.1c-152.6,0-276.7-124.1-276.7-276.7s124.1-276.7,276.7-276.7
		s276.7,124.1,276.7,276.7S1027.6,1178.1,875.1,1178.1L875.1,1178.1z"/>
	<g>
		<g>
			<g>
				<path class="st1" d="M1280.5,758.4c-1.2,0-2.3,0.3-3.6,0.3c-39.3-98.1-134.5-163.7-241.5-163.7
					c-135.9,0-247.8,103.5-259.7,237.3c-57.7,19.8-99.8,74-99.8,138.5c0,81.2,66,147,147,147h457.5c99.1,0,179.7-80.6,179.7-179.7
					C1460.1,839,1379.5,758.4,1280.5,758.4L1280.5,758.4z"/>
				<path class="st0" d="M1280.5,758.4c-1.2,0-2.3,0.3-3.6,0.3c-39.3-98.1-134.5-163.7-241.5-163.7
					c-135.9,0-247.8,103.5-259.7,237.3c-57.7,19.8-99.8,74-99.8,138.5c0,81.2,66,147,147,147h457.5c99.1,0,179.7-80.6,179.7-179.7
					C1460.1,839,1379.5,758.4,1280.5,758.4L1280.5,758.4z M1280.5,1085.1H823c-63.1,0-114.4-51.3-114.4-114.4S759.9,856.3,823,856.3
					c9,0,16.3-7.3,16.3-16.3c0-9-7.3-16.3-16.3-16.3c-4.8,0-9.2,1-13.8,1.4c14.9-112.1,110.7-197.5,226.2-197.5
					c90.7,0,171.6,53.8,207.9,135.2c-25.3,5.5-49.5,15.9-70.5,31.5c-7.3,5.3-8.8,15.6-3.4,22.9c5.3,7.3,15.6,8.8,22.9,3.4
					c25.6-19,56.9-29.4,88.3-29.4c81,0,147,66,147,147C1427.6,1019.1,1361.6,1085.1,1280.5,1085.1L1280.5,1085.1z"/>
			</g>
			<g>
				<path class="st2" d="M761.4,980.4c0.9,0,1.7,0.2,2.6,0.2c28.8-71.9,98.6-119.9,177-119.9c99.6,0,181.6,75.8,190.3,173.9
					c42.3,14.5,73.1,54.3,73.1,101.5c0,59.5-48.3,107.7-107.7,107.7H761.5c-72.6,0-131.7-59.1-131.7-131.7
					C629.8,1039.5,688.8,980.4,761.4,980.4L761.4,980.4z"/>
				<path class="st3" d="M761.4,980.4c0.9,0,1.7,0.2,2.6,0.2c28.8-71.9,98.6-119.9,177-119.9c99.6,0,181.6,75.8,190.3,173.9
					c42.3,14.5,73.1,54.3,73.1,101.5c0,59.5-48.3,107.7-107.7,107.7H761.5c-72.6,0-131.7-59.1-131.7-131.7
					C629.8,1039.5,688.8,980.4,761.4,980.4L761.4,980.4z M761.4,1219.8h335.3c46.2,0,83.8-37.6,83.8-83.8
					c0-46.2-37.6-83.8-83.8-83.8c-6.6,0-11.9-5.3-11.9-11.9c0-6.6,5.3-11.9,11.9-11.9c3.5,0,6.7,0.7,10.1,1
					c-10.9-82.1-81.1-144.7-165.8-144.7c-66.5,0-125.8,39.4-152.3,99.1c18.6,4,36.3,11.6,51.6,23.1c5.3,3.9,6.4,11.4,2.5,16.7
					c-3.9,5.3-11.4,6.4-16.7,2.5c-18.8-13.9-41.7-21.6-64.7-21.6c-59.4,0-107.7,48.3-107.7,107.7
					C653.6,1171.5,702,1219.8,761.4,1219.8L761.4,1219.8z"/>
			</g>
		</g>
		<path class="st4" d="M766.2,1302.6c-5.7-2.9-12.4-2.2-17.4,1.7l-51.6,39.4c-13.5,9.6-21.3,24.2-21.3,40.1
			c0,27.5,22.3,49.8,49.8,49.8s49.8-22.3,49.8-49.8v-66.3C775.5,1311.1,771.9,1305.4,766.2,1302.6L766.2,1302.6z M742.2,1383.8
			c0,9.2-7.5,16.6-16.6,16.6c-9.2,0-16.6-7.4-16.6-16.6c0-6.9,4.7-11.2,7.5-13.1c0.2-0.2,0.4-0.2,0.6-0.4l25.2-19.3L742.2,1383.8
			L742.2,1383.8z"/>
		<path class="st4" d="M998.6,1302.6c-5.7-2.9-12.4-2.2-17.4,1.7l-51.6,39.4c-13.5,9.6-21.3,24.2-21.3,40.1
			c0,27.5,22.3,49.8,49.8,49.8s49.8-22.3,49.8-49.8v-66.3C1007.9,1311.1,1004.3,1305.4,998.6,1302.6L998.6,1302.6z M974.6,1383.8
			c0,9.2-7.5,16.6-16.6,16.6s-16.6-7.4-16.6-16.6c0-6.9,4.7-11.2,7.5-13.1c0.2-0.2,0.4-0.2,0.6-0.4l25.2-19.3L974.6,1383.8
			L974.6,1383.8z"/>
		<path class="st4" d="M1369.6,1302.5c5.7-2.9,12.4-2.2,17.4,1.7l51.6,39.5c13.5,9.6,21.3,24.2,21.3,40.1
			c0,27.5-22.3,49.8-49.8,49.8c-27.5,0-49.8-22.3-49.8-49.8v-66.4C1360.4,1311.1,1364,1305.3,1369.6,1302.5L1369.6,1302.5z
			 M1393.5,1383.8c0,9.2,7.5,16.6,16.6,16.6c9.2,0,16.6-7.4,16.6-16.6c0-6.9-4.7-11.2-7.5-13.1c-0.2-0.2-0.3-0.2-0.6-0.4l-25.2-19.3
			L1393.5,1383.8L1393.5,1383.8z"/>
		<path class="st4" d="M1155.9,1302.5c5.7-2.9,12.4-2.2,17.4,1.7l51.6,39.5c13.5,9.6,21.3,24.2,21.3,40.1
			c0,27.5-22.3,49.8-49.8,49.8c-27.5,0-49.8-22.3-49.8-49.8v-66.4C1146.6,1311.1,1150.2,1305.3,1155.9,1302.5L1155.9,1302.5z
			 M1179.8,1383.8c0,9.2,7.5,16.6,16.6,16.6c9.2,0,16.6-7.4,16.6-16.6c0-6.9-4.7-11.2-7.5-13.1c-0.2-0.2-0.3-0.2-0.6-0.4l-25.2-19.3
			L1179.8,1383.8L1179.8,1383.8z"/>
	</g>
</g>
</svg>
