<?xml version="1.0" encoding="utf-8"?>
<!-- Generator: Adobe Illustrator 22.0.0, SVG Export Plug-In . SVG Version: 6.00 Build 0)  -->
<svg version="1.0" id="Layer_1" xmlns="http://www.w3.org/2000/svg" xmlns:xlink="http://www.w3.org/1999/xlink" x="0px" y="0px"
	 viewBox="0 0 1920 1920" enable-background="new 0 0 1920 1920" xml:space="preserve">
<g>
	<path fill="#3A5269" d="M573.2,1295.3c-7.1-3.6-15.6-2.7-21.9,2.1l-64.8,49.5c-17,12.1-26.7,30.4-26.7,50.3
		c0,34.5,28,62.5,62.5,62.5c34.5,0,62.5-28,62.5-62.5V1314C584.8,1306,580.3,1298.8,573.2,1295.3L573.2,1295.3z M543.1,1397.3
		c0,11.5-9.4,20.8-20.8,20.8c-11.5,0-20.8-9.3-20.8-20.8c0-8.6,5.9-14,9.4-16.5c0.2-0.2,0.5-0.3,0.7-0.5l31.6-24.2V1397.3z
		 M543.1,1397.3"/>
	<path fill="#3A5269" d="M989.9,1295.3c-7.1-3.6-15.6-2.7-21.9,2.1l-64.8,49.5c-17,12.1-26.7,30.4-26.7,50.3
		c0,34.5,28,62.5,62.5,62.5c34.5,0,62.5-28,62.5-62.5V1314C1001.5,1306,996.9,1298.8,989.9,1295.3L989.9,1295.3z M959.8,1397.3
		c0,11.5-9.4,20.8-20.8,20.8c-11.5,0-20.8-9.3-20.8-20.8c0-8.6,5.9-14,9.4-16.5c0.2-0.2,0.5-0.3,0.7-0.5l31.6-24.2V1397.3z
		 M959.8,1397.3"/>
	<path fill="#3A5269" d="M1364.9,1253.6c-7.2-3.5-15.6-2.7-21.9,2.1l-64.8,49.6c-17,12.1-26.7,30.4-26.7,50.3
		c0,34.5,28,62.5,62.5,62.5s62.5-28,62.5-62.5v-83.3C1376.5,1264.4,1371.9,1257.1,1364.9,1253.6L1364.9,1253.6z M1334.8,1355.6
		c0,11.5-9.4,20.8-20.8,20.8c-11.5,0-20.8-9.3-20.8-20.8c0-8.6,5.9-14,9.4-16.5c0.2-0.2,0.4-0.3,0.7-0.5l31.6-24.2V1355.6z
		 M1334.8,1355.6"/>
	<path fill="#3A5269" d="M1251.5,626.5c-16.2,0-32,2.4-47.4,6c-46.7-103.8-150.5-172.7-265.1-172.7c-150.9,0-275.5,114-289.6,261.8
		c-62,24.3-106.2,84.4-106.2,154.9c0,9.6,1.4,19.5,3.5,29.9c-52,33.3-86.8,91.4-86.8,157.6c0,103.4,84.1,187.5,187.5,187.5h16.2
		l-36.7,183.4c-2,9.8,3.3,19.5,12.5,23.3c2.6,1.1,5.3,1.6,8,1.6c6.8,0,13.4-3.3,17.3-9.3l114.8-172.2l66.9,33.4
		c5.5,2.7,11.9,3,17.5,0.5c5.7-2.4,9.9-7.2,11.7-13l14.7-47.8h195.5l-15.9,12.2c-17,12.1-26.7,30.4-26.7,50.3
		c0,34.5,28,62.5,62.5,62.5s62.5-28,62.5-62.5v-77.1c49.1-23.5,83.3-73.2,83.3-131.2c0-22.4-5.5-43.5-14.6-62.5h14.6
		c114.9,0,208.3-93.5,208.3-208.3C1459.8,719.9,1366.3,626.5,1251.5,626.5L1251.5,626.5z M842.9,1263.5l-61.3-30.7
		c-9.4-4.7-20.8-1.7-26.7,7.1l-66.6,99.9l36.5-182.5l58.9,29.5c6.1,3,13.3,2.9,19.3-0.3c6-3.3,10-9.2,10.7-16l18-161.9l81.3,27.1
		L842.9,1263.5z M1126.5,1314c0,11.5-9.4,20.8-20.8,20.8c-11.5,0-20.8-9.3-20.8-20.8c0-8.6,5.9-14,9.4-16.5c0.2-0.2,0.5-0.3,0.7-0.5
		l31.6-24.2V1314z M1105.6,1209.8H903.1l55.8-181.4c3.3-10.8-2.6-22.3-13.3-25.9l-125-41.7c-6-2-12.5-1.2-17.8,2.2
		c-5.3,3.4-8.8,9-9.5,15.3l-17.5,157.8l-56.6-28.3c-5.8-2.9-12.7-2.9-18.5-0.1c-5.8,2.9-10,8.3-11.3,14.6l-17.5,87.4h-24.6
		c-80.4,0-145.8-65.4-145.8-145.8c0-80.4,65.4-145.8,145.8-145.8c33.5,0,65,11,91.1,31.9c8.9,7.2,22.1,5.8,29.3-3.2
		c7.2-9,5.7-22.1-3.3-29.3c-8.6-6.9-17.7-12.8-27.3-18.1c36.7-65,105.4-106.4,181-106.4c100.5,0,184.5,72.1,203.3,168.3
		c-5.3-0.6-10.4-1.6-15.8-1.6c-11.5,0-20.8,9.3-20.8,20.8c0,11.5,9.3,20.8,20.8,20.8c57.5,0,104.2,46.7,104.2,104.2
		C1209.8,1163.1,1163.1,1209.8,1105.6,1209.8L1105.6,1209.8z M1251.5,1001.5h-44.1c-12-11.7-26-21.2-41.4-28.2
		c-14.1-125.4-120.3-221.8-247.8-221.8c-92.6,0-176.7,51.7-219.9,132.7c-16.5-4.7-33.6-7.7-50.9-7.7c-21.7,0-42.2,4.4-61.6,11.2
		c-0.4-3.8-0.9-7.6-0.9-11.2c0-68.9,56.1-125,125-125c11.5,0,20.8-9.3,20.8-20.8c0-11.5-9.3-20.8-20.8-20.8c-6,0-11.7,1.2-17.6,1.8
		C710.5,591.9,814.4,501.5,939,501.5c96.8,0,184.5,57.4,225.4,144.2c-10.1,4.6-19.8,9.9-29.1,16.2c-9.5,6.4-12.1,19.4-5.7,28.9
		c6.5,9.6,19.4,12,28.9,5.7c27.5-18.5,59.7-28.3,93-28.3c91.9,0,166.7,74.8,166.7,166.7C1418.1,926.7,1343.4,1001.5,1251.5,1001.5
		L1251.5,1001.5z M1251.5,1001.5"/>
</g>
</svg>
