<?xml version="1.0" encoding="utf-8"?>
<!-- Generator: Adobe Illustrator 22.0.0, SVG Export Plug-In . SVG Version: 6.00 Build 0)  -->
<svg version="1.1" id="Layer_1" xmlns="http://www.w3.org/2000/svg" xmlns:xlink="http://www.w3.org/1999/xlink" x="0px" y="0px"
	 viewBox="0 0 1920 1920" style="enable-background:new 0 0 1920 1920;" xml:space="preserve">
<style type="text/css">
	.st0{fill:#3A5269;}
</style>
<g>
	<path class="st0" d="M1439,751.5h-63.6c-4.3-47.6-23.1-91-52.1-125.7l45-45c8.1-8.1,8.1-21.3,0-29.5c-8.1-8.1-21.3-8.1-29.5,0
		l-45,45c-34.7-29-78.1-47.8-125.7-52.1v-63.6c0-11.5-9.3-20.8-20.8-20.8s-20.8,9.3-20.8,20.8v64.2c-46.9,4.3-90.1,22.9-125,52.2
		l-45.7-45.7c-8.1-8.1-21.3-8.1-29.5,0c-8.1,8.1-8.1,21.3,0,29.5l45.8,45.8c-13.4,16.2-24.5,34.4-33.2,54.2
		c-26.7-8.1-54.6-12.7-83.3-12.7c-150.1,0-274.3,113.9-289.4,261.7c-62.1,24.3-106.4,84.4-106.4,155c0,91.9,74.8,166.7,166.7,166.7
		h42.7l-15.9,12.2c-17,12.1-26.8,30.4-26.8,50.3c0,34.5,28,62.5,62.5,62.5s62.5-28,62.5-62.5v-62.5h57.9l-36.7,183.4
		c-2,9.8,3.3,19.5,12.4,23.3c2.6,1.1,5.3,1.6,8,1.6c6.8,0,13.4-3.3,17.3-9.3l114.8-172.2l66.9,33.4c5.5,2.8,11.9,3,17.5,0.5
		c5.6-2.4,9.9-7.2,11.7-13l14.7-47.8h132c114.9,0,208.3-93.5,208.3-208.3c0-50.5-18.8-96.2-48.7-132.3
		c26.7-34.5,42.8-75.1,46.8-117.7h64.5c11.5,0,20.8-9.3,20.8-20.8C1459.8,760.8,1450.5,751.5,1439,751.5L1439,751.5z M709.8,1314
		c0,11.5-9.3,20.8-20.8,20.8s-20.8-9.3-20.8-20.8c0-8.6,5.9-14,9.4-16.5c0.2-0.2,0.5-0.3,0.7-0.5l31.6-24.1v41.1H709.8z
		 M988.8,1263.5l-61.3-30.7c-9.4-4.7-20.8-1.7-26.7,7.1l-66.6,99.9l36.5-182.5l58.9,29.5c6.1,3.1,13.3,2.9,19.3-0.3
		c6-3.3,10-9.2,10.8-16l18-161.9l81.2,27.1L988.8,1263.5z M1334.8,1043.1c0,91.9-74.8,166.7-166.7,166.7h-119.2l55.8-181.4
		c3.3-10.8-2.6-22.3-13.3-25.9l-125-41.7c-6-2.1-12.5-1.2-17.8,2.2s-8.8,9-9.5,15.3l-17.5,157.8l-56.6-28.3
		c-5.8-2.9-12.6-2.9-18.5-0.1c-5.8,2.9-10,8.3-11.3,14.6l-17.5,87.4H626.5c-68.9,0-125-56.1-125-125s56.1-125,125-125
		c11.5,0,20.8-9.3,20.8-20.8s-9.3-20.8-20.8-20.8c-5.9,0-11.5,1.1-17.2,1.7c19.2-119.7,122.6-210.1,246.4-210.1
		c96.8,0,184.5,57.4,225.4,144.2c-10.1,4.6-19.8,9.9-29.1,16.2c-9.5,6.4-12.1,19.4-5.6,28.9c6.4,9.6,19.4,12.1,28.9,5.6
		c27.5-18.5,59.6-28.3,93-28.3C1260,876.5,1334.8,951.2,1334.8,1043.1L1334.8,1043.1z M1297.9,881.5
		c-35.7-28.7-80.5-46.7-129.8-46.7c-16.2,0-32,2.4-47.4,6c-29.2-64.8-80.3-115.9-142.9-145.1c30.1-66.9,95.7-110.9,169.6-110.9
		c103.4,0,187.5,84.1,187.5,187.5C1334.8,811.5,1321.4,849.4,1297.9,881.5L1297.9,881.5z"/>
	<path class="st0" d="M573.2,1295.3c-7.1-3.5-15.6-2.7-21.9,2.1l-64.8,49.5c-17,12.1-26.8,30.4-26.8,50.3c0,34.5,28,62.5,62.5,62.5
		s62.5-28,62.5-62.5V1314C584.8,1306,580.3,1298.8,573.2,1295.3L573.2,1295.3z M543.1,1397.3c0,11.5-9.3,20.8-20.8,20.8
		s-20.8-9.3-20.8-20.8c0-8.6,5.9-14,9.4-16.5c0.2-0.2,0.5-0.3,0.7-0.5l31.6-24.2v41.2H543.1z"/>
	<path class="st0" d="M1114.9,1295.3c-7.1-3.5-15.6-2.7-21.9,2.1l-64.8,49.6c-17,12.1-26.8,30.4-26.8,50.3c0,34.5,28,62.5,62.5,62.5
		s62.5-28,62.5-62.5V1314C1126.5,1306,1122,1298.8,1114.9,1295.3L1114.9,1295.3z M1084.8,1397.3c0,11.5-9.3,20.8-20.8,20.8
		s-20.8-9.3-20.8-20.8c0-8.6,5.9-14,9.4-16.5c0.2-0.2,0.5-0.3,0.7-0.5l31.6-24.2L1084.8,1397.3L1084.8,1397.3z"/>
</g>
</svg>
