<?xml version="1.0" encoding="utf-8"?>
<!-- Generator: Adobe Illustrator 22.0.0, SVG Export Plug-In . SVG Version: 6.00 Build 0)  -->
<svg version="1.1" id="Layer_1" xmlns="http://www.w3.org/2000/svg" xmlns:xlink="http://www.w3.org/1999/xlink" x="0px" y="0px"
	 viewBox="0 0 1920 1920" style="enable-background:new 0 0 1920 1920;" xml:space="preserve">
<style type="text/css">
	.st0{fill:#F2F2F2;}
	.st1{fill:#3B5269;}
	.st2{fill:#F2F2F2;stroke:#3B5269;stroke-width:9;stroke-miterlimit:10;}
	.st3{fill:#3B5269;stroke:#3B5269;stroke-width:9;stroke-miterlimit:10;}
</style>
<g>
	<g>
		<path class="st0" d="M1247.7,758c-1.5,0-2.9,0.3-4.5,0.3c-49.3-123.1-168.8-205.4-303.1-205.4c-170.6,0-311,129.8-326,297.8
			c-72.5,24.9-125.2,92.9-125.2,173.8c0,101.9,82.8,184.5,184.5,184.5h574.2c124.3,0,225.5-101.2,225.5-225.5
			C1473.2,859.1,1372,758,1247.7,758L1247.7,758z"/>
		<path class="st1" d="M1247.7,758c-1.5,0-2.9,0.3-4.5,0.3c-49.3-123.1-168.8-205.4-303.1-205.4c-170.6,0-311,129.8-326,297.8
			c-72.5,24.9-125.2,92.9-125.2,173.8c0,101.9,82.8,184.5,184.5,184.5h574.2c124.3,0,225.5-101.2,225.5-225.5
			C1473.2,859.1,1372,758,1247.7,758L1247.7,758z M1247.7,1168H673.5c-79.2,0-143.6-64.4-143.6-143.6s64.4-143.6,143.6-143.6
			c11.3,0,20.4-9.1,20.4-20.4s-9.1-20.4-20.4-20.4c-6,0-11.5,1.2-17.3,1.7C674.9,701,795.1,593.8,940.1,593.8
			c113.9,0,215.4,67.5,260.9,169.7c-31.8,6.9-62.2,19.9-88.5,39.5c-9.1,6.7-11,19.6-4.3,28.7c6.7,9.1,19.6,11,28.7,4.3
			c32.1-23.9,71.4-36.9,110.8-36.9c101.7,0,184.5,82.8,184.5,184.5C1432.3,1085.2,1349.5,1168,1247.7,1168L1247.7,1168z"/>
	</g>
	<g>
		<path class="st2" d="M596.3,1036.6c1.1,0,2.1,0.3,3.3,0.3c36.1-90.2,123.7-150.5,222.1-150.5c125,0,227.9,95.2,238.9,218.2
			c53.1,18.3,91.8,68.1,91.8,127.4c0,74.6-60.7,135.2-135.2,135.2H596.4c-91.1,0-165.3-74.1-165.3-165.3
			C431,1110.7,505.1,1036.6,596.3,1036.6L596.3,1036.6z"/>
		<path class="st3" d="M596.3,1036.6c1.1,0,2.1,0.3,3.3,0.3c36.1-90.2,123.7-150.5,222.1-150.5c125,0,227.9,95.2,238.9,218.2
			c53.1,18.3,91.8,68.1,91.8,127.4c0,74.6-60.7,135.2-135.2,135.2H596.4c-91.1,0-165.3-74.1-165.3-165.3
			C431,1110.7,505.1,1036.6,596.3,1036.6L596.3,1036.6z M596.3,1337H1017c58,0,105.2-47.2,105.2-105.2s-47.2-105.2-105.2-105.2
			c-8.3,0-15-6.7-15-15s6.7-15,15-15c4.4,0,8.4,0.9,12.7,1.3c-13.7-103.1-101.8-181.6-208-181.6c-83.4,0-157.8,49.5-191.2,124.4
			c23.3,5,45.6,14.6,64.8,28.9c6.7,4.9,8.1,14.3,3.1,21c-4.9,6.7-14.3,8.1-21,3.1c-23.5-17.5-52.4-27.1-81.2-27.1
			c-74.5,0-135.2,60.7-135.2,135.2C461,1276.4,521.6,1337,596.3,1337L596.3,1337z"/>
	</g>
</g>
</svg>
