<?xml version="1.0" encoding="utf-8"?>
<!-- Generator: Adobe Illustrator 22.0.0, SVG Export Plug-In . SVG Version: 6.00 Build 0)  -->
<svg version="1.1" id="Layer_1" xmlns="http://www.w3.org/2000/svg" xmlns:xlink="http://www.w3.org/1999/xlink" x="0px" y="0px"
	 viewBox="0 0 1920 1920" style="enable-background:new 0 0 1920 1920;" xml:space="preserve">
<style type="text/css">
	.st0{fill:#3B5269;}
	.st1{fill:#FFFFFF;}
	.st2{fill:#3B5269;stroke:#3B5269;stroke-width:6.5068;stroke-miterlimit:10;}
	.st3{fill:#FFFFFF;stroke:#3B5269;stroke-width:7.1709;stroke-miterlimit:10;}
	.st4{fill:#3B5269;stroke:#3B5269;stroke-width:7.1709;stroke-miterlimit:10;}
</style>
<g>
	<path class="st0" d="M1328.5,942.7h-87.3c-4.1-72.8-33-138.9-78.8-189.9l61.8-61.8c6.7-6.7,6.7-17.7,0-24.5
		c-6.7-6.7-17.7-6.7-24.5,0l-61.8,61.8c-51.1-45.7-117.1-74.7-189.9-78.8v-87.3c0-9.5-7.7-17.3-17.3-17.3c-9.5,0-17.3,7.7-17.3,17.3
		v87.3c-72.8,4.1-138.9,33-189.9,78.8l-61.8-61.8c-6.7-6.7-17.7-6.7-24.5,0c-6.7,6.7-6.7,17.7,0,24.5l61.8,61.8
		c-45.7,51.1-74.7,117.1-78.8,189.9h-87.3c-9.5,0-17.3,7.7-17.3,17.3c0,9.5,7.7,17.3,17.3,17.3h87.3c4.1,72.8,33,138.9,78.8,189.9
		l-61.8,61.8c-6.7,6.7-6.7,17.7,0,24.5c3.4,3.4,7.8,5.1,12.2,5.1c4.4,0,8.9-1.7,12.2-5.1l61.8-61.8c51.1,45.7,117.1,74.7,189.9,78.8
		v87.3c0,9.5,7.7,17.3,17.3,17.3s17.3-7.7,17.3-17.3v-87.3c72.8-4.1,138.9-33,189.9-78.8l61.8,61.8c3.4,3.4,7.8,5.1,12.2,5.1
		s8.9-1.7,12.2-5.1c6.7-6.7,6.7-17.7,0-24.5l-61.8-61.8c45.7-51.1,74.7-117.1,78.8-189.9h87.5c9.5,0,17.3-7.7,17.3-17.3
		C1345.8,950.5,1338,942.7,1328.5,942.7L1328.5,942.7z M930.7,1236.7C778.1,1236.7,654,1112.6,654,960s124.1-276.7,276.7-276.7
		s276.7,124.1,276.7,276.7S1083.3,1236.7,930.7,1236.7L930.7,1236.7z"/>
	<g>
		<g>
			<g>
				<path class="st1" d="M1345.9,801.5c-0.9,0-1.7,0.2-2.6,0.2c-28.4-71-97.3-118.4-174.8-118.4c-98.3,0-179.3,74.9-187.9,171.7
					c-41.8,14.4-72.2,53.6-72.2,100.2c0,58.7,47.7,106.3,106.3,106.3h331c71.7,0,130-58.3,130-130
					C1475.9,859.9,1417.6,801.5,1345.9,801.5L1345.9,801.5z"/>
				<path class="st2" d="M1345.9,801.5c-0.9,0-1.7,0.2-2.6,0.2c-28.4-71-97.3-118.4-174.8-118.4c-98.3,0-179.3,74.9-187.9,171.7
					c-41.8,14.4-72.2,53.6-72.2,100.2c0,58.7,47.7,106.3,106.3,106.3h331c71.7,0,130-58.3,130-130
					C1475.9,859.9,1417.6,801.5,1345.9,801.5L1345.9,801.5z M1345.9,1037.9h-331c-45.6,0-82.8-37.1-82.8-82.8s37.1-82.8,82.8-82.8
					c6.5,0,11.8-5.2,11.8-11.8c0-6.5-5.2-11.8-11.8-11.8c-3.5,0-6.6,0.7-10,1c10.8-81.1,80.1-142.9,163.7-142.9
					c65.6,0,124.2,38.9,150.4,97.8c-18.3,4-35.8,11.5-51,22.8c-5.2,3.9-6.3,11.3-2.5,16.5s11.3,6.3,16.5,2.5
					c18.5-13.8,41.2-21.3,63.9-21.3c58.6,0,106.3,47.7,106.3,106.3C1452.4,990.2,1404.6,1037.9,1345.9,1037.9L1345.9,1037.9z"/>
			</g>
			<g>
				<path class="st3" d="M575.8,1039c0.9,0,1.7,0.2,2.6,0.2c28.8-71.9,98.6-119.9,177-119.9c99.6,0,181.6,75.8,190.3,173.9
					c42.3,14.5,73.1,54.3,73.1,101.5c0,59.5-48.3,107.7-107.7,107.7H575.9c-72.6,0-131.7-59.1-131.7-131.7
					C444.1,1098,503.1,1039,575.8,1039L575.8,1039z"/>
				<path class="st4" d="M575.8,1039c0.9,0,1.7,0.2,2.6,0.2c28.8-71.9,98.6-119.9,177-119.9c99.6,0,181.6,75.8,190.3,173.9
					c42.3,14.5,73.1,54.3,73.1,101.5c0,59.5-48.3,107.7-107.7,107.7H575.9c-72.6,0-131.7-59.1-131.7-131.7
					C444.1,1098,503.1,1039,575.8,1039L575.8,1039z M575.8,1278.3H911c46.2,0,83.8-37.6,83.8-83.8c0-46.2-37.6-83.8-83.8-83.8
					c-6.6,0-11.9-5.3-11.9-11.9s5.3-11.9,11.9-11.9c3.5,0,6.7,0.7,10.1,1c-10.9-82.1-81.1-144.7-165.8-144.7
					c-66.5,0-125.8,39.4-152.3,99.1c18.6,4,36.3,11.6,51.6,23.1c5.3,3.9,6.4,11.4,2.5,16.7s-11.4,6.4-16.7,2.5
					c-18.8-13.9-41.7-21.6-64.7-21.6c-59.4,0-107.7,48.3-107.7,107.7C467.9,1230,516.3,1278.3,575.8,1278.3L575.8,1278.3z"/>
			</g>
		</g>
	</g>
</g>
</svg>
