<?xml version="1.0" encoding="utf-8"?>
<!-- Generator: Adobe Illustrator 22.0.0, SVG Export Plug-In . SVG Version: 6.00 Build 0)  -->
<svg version="1.0" id="Layer_1" xmlns="http://www.w3.org/2000/svg" xmlns:xlink="http://www.w3.org/1999/xlink" x="0px" y="0px"
	 viewBox="0 0 1920 1920" enable-background="new 0 0 1920 1920" xml:space="preserve">
<g>
	<path fill="#3A5269" d="M963.9,1272.3c-5.7-10-18.5-13.4-28.4-7.6l-59,34v-47.2h229.2c80.4,0,145.8-65.4,145.8-145.8
		c0-22.4-5.5-43.5-14.6-62.5h14.6c114.9,0,208.3-93.5,208.3-208.3c0-114.9-93.5-208.3-208.3-208.3c-16.2,0-32,2.4-47.4,6
		c-46.7-103.8-150.5-172.7-265.1-172.7c-150.9,0-275.5,114-289.6,261.8c-62,24.3-106.2,84.4-106.2,154.9c0,9.6,1.4,19.5,3.5,29.9
		c-52,33.3-86.8,91.4-86.8,157.6c0,103.4,84.1,187.5,187.5,187.5h187.5v47.2l-59-34c-10-5.7-22.7-2.4-28.4,7.6
		c-5.8,10-2.4,22.7,7.6,28.5l59,34l-59,34c-10,5.8-13.4,18.5-7.6,28.5c3.8,6.7,10.9,10.4,18,10.4c3.5,0,7.1-0.9,10.4-2.8l59-34v68.1
		c0,11.5,9.3,20.8,20.8,20.8c11.5,0,20.8-9.3,20.8-20.8v-68.1l59,34c3.3,1.9,6.9,2.8,10.4,2.8c7.2,0,14.2-3.7,18-10.4
		c5.8-10,2.4-22.7-7.6-28.5l-59-34l59-34C966.2,1295,969.6,1282.3,963.9,1272.3L963.9,1272.3z M709.8,751.5
		c11.5,0,20.8-9.3,20.8-20.8c0-11.5-9.3-20.8-20.8-20.8c-6,0-11.7,1.2-17.6,1.8C710.5,591.9,814.4,501.5,939,501.5
		c96.8,0,184.5,57.4,225.4,144.2c-10.1,4.6-19.8,9.9-29.1,16.2c-9.5,6.4-12.1,19.4-5.7,28.9c6.5,9.6,19.5,12,28.9,5.7
		c27.5-18.5,59.7-28.3,93-28.3c91.9,0,166.7,74.8,166.7,166.7c0,91.9-74.7,166.7-166.7,166.7h-44.1c-12-11.7-26-21.2-41.4-28.2
		c-14.1-125.4-120.3-221.8-247.8-221.8c-92.6,0-176.7,51.7-219.9,132.7c-16.5-4.7-33.5-7.7-50.9-7.7c-21.7,0-42.2,4.4-61.6,11.2
		c-0.4-3.8-0.9-7.6-0.9-11.2C584.8,807.5,640.9,751.5,709.8,751.5L709.8,751.5z M647.3,1209.8c-80.4,0-145.8-65.4-145.8-145.8
		c0-80.4,65.4-145.8,145.8-145.8c33.5,0,65,11,91.1,31.9c8.9,7.2,22,5.8,29.3-3.2c7.2-9,5.7-22.1-3.3-29.3
		c-8.6-6.9-17.7-12.8-27.3-18.1c36.7-65,105.4-106.4,181-106.4c100.5,0,184.5,72.1,203.3,168.3c-5.3-0.6-10.4-1.6-15.8-1.6
		c-11.5,0-20.8,9.3-20.8,20.8c0,11.5,9.3,20.8,20.8,20.8c57.5,0,104.2,46.7,104.2,104.2c0,57.4-46.7,104.2-104.2,104.2H647.3z
		 M647.3,1209.8"/>
	<path fill="#3A5269" d="M1422.2,1230.6c-5.7-10-18.5-13.4-28.4-7.6l-59,34V1189c0-11.5-9.3-20.8-20.8-20.8
		c-11.5,0-20.8,9.3-20.8,20.8v68.1l-59-34c-9.9-5.7-22.7-2.4-28.4,7.6c-5.8,10-2.4,22.7,7.6,28.5l59,34l-59,34
		c-10,5.8-13.4,18.5-7.6,28.5c3.8,6.7,10.9,10.4,18,10.4c3.5,0,7.1-0.9,10.4-2.8l59-34v68.1c0,11.5,9.3,20.8,20.8,20.8
		c11.5,0,20.8-9.3,20.8-20.8v-68.1l59,34c3.3,1.9,6.9,2.8,10.4,2.8c7.2,0,14.2-3.7,18-10.4c5.8-10,2.4-22.7-7.6-28.5l-59-34l59-34
		C1424.6,1253.3,1428,1240.6,1422.2,1230.6L1422.2,1230.6z M1422.2,1230.6"/>
	<path fill="#3A5269" d="M677.8,1334.8c-5.7-10-18.5-13.4-28.4-7.6l-22.9,13.2V1314c0-11.5-9.3-20.8-20.8-20.8
		c-11.5,0-20.8,9.3-20.8,20.8v26.4l-22.9-13.2c-10-5.7-22.7-2.4-28.4,7.6c-5.8,10-2.4,22.7,7.6,28.5l22.9,13.2l-22.9,13.2
		c-10,5.8-13.4,18.5-7.6,28.5c3.8,6.7,10.9,10.4,18,10.4c3.5,0,7.1-0.9,10.4-2.8l22.9-13.2v26.4c0,11.5,9.3,20.8,20.8,20.8
		c11.5,0,20.8-9.3,20.8-20.8v-26.4l22.9,13.2c3.3,1.9,6.9,2.8,10.4,2.8c7.2,0,14.2-3.7,18-10.4c5.8-10,2.4-22.7-7.6-28.5l-22.9-13.2
		l22.9-13.2C680.1,1357.5,683.6,1344.8,677.8,1334.8L677.8,1334.8z M677.8,1334.8"/>
	<path fill="#3A5269" d="M1177.8,1334.8c-5.7-10-18.5-13.4-28.4-7.6l-22.9,13.2V1314c0-11.5-9.3-20.8-20.8-20.8
		c-11.5,0-20.8,9.3-20.8,20.8v26.4l-22.9-13.2c-9.9-5.7-22.7-2.4-28.4,7.6c-5.8,10-2.4,22.7,7.6,28.5l22.9,13.2l-22.9,13.2
		c-10,5.8-13.4,18.5-7.6,28.5c3.8,6.7,10.9,10.4,18,10.4c3.5,0,7.1-0.9,10.4-2.8l22.9-13.2v26.4c0,11.5,9.3,20.8,20.8,20.8
		c11.5,0,20.8-9.3,20.8-20.8v-26.4l22.9,13.2c3.3,1.9,6.9,2.8,10.4,2.8c7.2,0,14.2-3.7,18-10.4c5.8-10,2.4-22.7-7.6-28.5l-22.9-13.2
		l22.9-13.2C1180.1,1357.5,1183.5,1344.8,1177.8,1334.8L1177.8,1334.8z M1177.8,1334.8"/>
</g>
</svg>
