<?xml version="1.0" encoding="utf-8"?>
<!-- Generator: Adobe Illustrator 22.0.0, SVG Export Plug-In . SVG Version: 6.00 Build 0)  -->
<svg version="1.0" id="Layer_1" xmlns="http://www.w3.org/2000/svg" xmlns:xlink="http://www.w3.org/1999/xlink" x="0px" y="0px"
	 viewBox="0 0 1920 1920" enable-background="new 0 0 1920 1920" xml:space="preserve">
<g>
	<path fill="#3A5269" d="M1439,751.5h-63.6c-4.3-47.6-23.1-91-52.1-125.7l45-45c8.1-8.1,8.1-21.3,0-29.5c-8.1-8.1-21.3-8.1-29.5,0
		l-45,45c-34.7-29-78.1-47.8-125.7-52.1v-63.6c0-11.5-9.3-20.8-20.8-20.8c-11.5,0-20.8,9.3-20.8,20.8v64.2
		c-46.9,4.3-90,22.9-125,52.2l-45.7-45.7c-8.1-8.1-21.3-8.1-29.5,0c-8.1,8.1-8.1,21.3,0,29.5l45.8,45.8
		c-13.4,16.2-24.5,34.4-33.2,54.2c-26.7-8.1-54.6-12.6-83.3-12.6c-150.1,0-274.3,113.9-289.4,261.7c-62.1,24.2-106.4,84.4-106.4,155
		c0,91.9,74.7,166.7,166.7,166.7h250v47.2l-59-34c-9.9-5.7-22.7-2.4-28.4,7.6c-5.8,10-2.4,22.7,7.6,28.5l59,34l-59,34
		c-10,5.8-13.4,18.5-7.6,28.5c3.8,6.7,10.9,10.4,18,10.4c3.5,0,7.1-0.9,10.4-2.8l59-34v68.1c0,11.5,9.3,20.8,20.8,20.8
		c11.5,0,20.8-9.3,20.8-20.8v-68.1l59,34c3.3,1.9,6.9,2.8,10.4,2.8c7.2,0,14.2-3.7,18-10.4c5.8-10,2.4-22.7-7.6-28.5l-59-34l59-34
		c10-5.7,13.4-18.5,7.6-28.5c-5.7-10-18.5-13.4-28.4-7.6l-59,34v-47.2h250c114.9,0,208.3-93.5,208.3-208.3
		c0-50.5-18.8-96.2-48.7-132.3c26.7-34.5,42.7-75.1,46.8-117.7h64.5c11.5,0,20.8-9.3,20.8-20.8
		C1459.8,760.8,1450.5,751.5,1439,751.5L1439,751.5z M1334.8,1043.1c0,91.9-74.7,166.7-166.7,166.7H626.5c-68.9,0-125-56.1-125-125
		s56.1-125,125-125c11.5,0,20.8-9.3,20.8-20.8c0-11.5-9.3-20.8-20.8-20.8c-5.9,0-11.5,1.1-17.2,1.7
		c19.2-119.7,122.6-210.1,246.4-210.1c96.8,0,184.5,57.4,225.4,144.2c-10.1,4.6-19.8,9.9-29.1,16.2c-9.5,6.4-12.1,19.4-5.7,28.9
		c6.5,9.6,19.4,12,28.9,5.7c27.5-18.5,59.7-28.3,93-28.3C1260,876.5,1334.8,951.2,1334.8,1043.1L1334.8,1043.1z M1297.9,881.5
		c-35.7-28.7-80.5-46.7-129.8-46.7c-16.2,0-32,2.4-47.4,6c-29.2-64.8-80.3-115.9-143-145.1c30.1-66.9,95.7-110.9,169.6-110.9
		c103.4,0,187.5,84.1,187.5,187.5C1334.8,811.5,1321.4,849.4,1297.9,881.5L1297.9,881.5z M1297.9,881.5"/>
	<path fill="#3A5269" d="M719.4,1334.8c-5.7-10-18.5-13.4-28.4-7.6l-22.9,13.2V1314c0-11.5-9.3-20.8-20.8-20.8
		c-11.5,0-20.8,9.3-20.8,20.8v26.4l-22.9-13.2c-9.9-5.7-22.7-2.3-28.4,7.6c-5.8,10-2.4,22.7,7.6,28.5l22.9,13.2l-22.9,13.2
		c-10,5.8-13.4,18.5-7.6,28.5c3.8,6.7,10.9,10.4,18,10.4c3.5,0,7.1-0.9,10.4-2.8l22.9-13.2v26.4c0,11.5,9.3,20.8,20.8,20.8
		c11.5,0,20.8-9.3,20.8-20.8v-26.4l22.9,13.2c3.3,1.9,6.9,2.8,10.4,2.8c7.2,0,14.2-3.7,18-10.4c5.8-10,2.4-22.7-7.6-28.5l-22.9-13.2
		l22.9-13.2C721.8,1357.5,725.2,1344.8,719.4,1334.8L719.4,1334.8z M719.4,1334.8"/>
	<path fill="#3A5269" d="M1261.1,1334.8c-5.7-10-18.5-13.4-28.4-7.6l-22.9,13.2V1314c0-11.5-9.3-20.8-20.8-20.8
		c-11.5,0-20.8,9.3-20.8,20.8v26.4l-22.9-13.2c-9.9-5.7-22.7-2.3-28.4,7.6c-5.8,10-2.4,22.7,7.6,28.5l22.9,13.2l-22.9,13.2
		c-10,5.8-13.4,18.5-7.6,28.5c3.8,6.7,10.9,10.4,18,10.4c3.5,0,7.1-0.9,10.4-2.8l22.9-13.2v26.4c0,11.5,9.3,20.8,20.8,20.8
		c11.5,0,20.8-9.3,20.8-20.8v-26.4l22.9,13.2c3.3,1.9,6.9,2.8,10.4,2.8c7.2,0,14.2-3.7,18-10.4c5.8-10,2.4-22.7-7.6-28.5l-22.9-13.2
		l22.9-13.2C1263.5,1357.5,1266.9,1344.8,1261.1,1334.8L1261.1,1334.8z M1261.1,1334.8"/>
</g>
</svg>
