<?xml version="1.0" encoding="utf-8"?>
<!-- Generator: Adobe Illustrator 22.0.0, SVG Export Plug-In . SVG Version: 6.00 Build 0)  -->
<svg version="1.0" id="Layer_1" xmlns="http://www.w3.org/2000/svg" xmlns:xlink="http://www.w3.org/1999/xlink" x="0px" y="0px"
	 viewBox="0 0 1920 1920" enable-background="new 0 0 1920 1920" xml:space="preserve">
<path fill="#3A5269" d="M1424.9,1029.3l-148.2,85.7l-111-63.5l144.4-71.6c0.4-0.2,0.6-0.5,1-0.7c0.8-0.4,1.3-1,2-1.5
	c2.6-1.9,4.6-4.1,6.1-6.7c0.3-0.5,0.9-0.7,1.2-1.3c0.2-0.5,0.2-1,0.4-1.5c0.6-1.4,0.9-2.9,1.2-4.4c0.3-1.4,0.6-2.8,0.6-4.2
	c0-1.4-0.3-2.8-0.6-4.2c-0.3-1.5-0.6-3-1.2-4.4c-0.2-0.5-0.2-1-0.4-1.5c-0.4-0.9-1.2-1.4-1.7-2.2c-0.9-1.3-1.7-2.5-2.8-3.6
	c-1.1-1.1-2.3-1.9-3.5-2.7c-0.8-0.5-1.3-1.3-2.2-1.7l-144.4-71.5l111-63.6l148.2,85.7c3.6,2.1,7.5,3.1,11.4,3.1
	c7.8,0,15.4-4.1,19.7-11.3c6.3-10.9,2.6-24.7-8.3-31L1322.3,778l104.6-59.8c10.9-6.2,14.7-20.1,8.4-31c-6.2-10.9-20.3-14.7-30.9-8.4
	l-105,60.1l-0.7-144.1c0-12.5-10.2-22.6-22.7-22.6h-0.1c-12.5,0.1-22.7,10.3-22.6,22.8l0.8,169.8l-114.2,65.4l1.3-165.6
	c0-0.8-0.4-1.5-0.5-2.4c-0.1-1.6-0.4-3.1-0.9-4.6c-0.5-1.4-1.1-2.7-1.8-4c-0.4-0.8-0.5-1.6-1-2.3c-0.4-0.5-0.9-0.8-1.3-1.2
	c-1-1.2-2.1-2.1-3.3-3c-1.2-0.9-2.3-1.8-3.6-2.5c-1.2-0.6-2.5-1-3.8-1.4c-1.5-0.5-3-0.8-4.6-1c-0.6-0.1-1.1-0.4-1.7-0.4h-0.2
	c-0.8,0-1.6,0.4-2.4,0.5c-1.5,0.2-2.9,0.4-4.4,0.9c-1.5,0.5-2.9,1.1-4.3,1.9c-0.7,0.4-1.5,0.5-2.2,1l-123,87.9V609.5l147.5-84.3
	c10.9-6.2,14.7-20.1,8.5-31c-6.3-10.9-20.3-14.7-31-8.4l-125,71.4V437.4c0-12.6-10.2-22.7-22.7-22.7c-12.5,0-22.7,10.2-22.7,22.7
	v119.8l-125-71.4c-10.8-6.2-24.7-2.5-31,8.4c-6.2,10.9-2.4,24.8,8.5,31l147.5,84.3v124.3l-123-87.9c-0.3-0.2-0.7-0.3-1.1-0.5
	c-1.5-0.9-3.1-1.7-5-2.2c-1.7-0.6-3.4-0.9-5.1-1.1c-0.8-0.1-1.4-0.4-2.2-0.5c-0.6,0-1.1,0.3-1.7,0.4c-1.6,0.1-3.1,0.5-4.6,1
	c-1.3,0.4-2.6,0.8-3.8,1.4c-1.3,0.7-2.4,1.6-3.6,2.5c-1.2,0.9-2.3,1.9-3.3,3c-0.4,0.5-1,0.7-1.3,1.2c-0.5,0.7-0.6,1.6-1,2.3
	c-0.7,1.3-1.4,2.6-1.8,4c-0.5,1.5-0.7,3-0.9,4.6c-0.1,0.8-0.5,1.5-0.5,2.4l1.3,165.6l-114.2-65.4l0.8-169.8
	c0-12.5-10.1-22.7-22.6-22.8h-0.1c-12.5,0-22.7,10.1-22.7,22.6l-0.7,144.1l-105-60.1c-10.8-6.2-24.7-2.5-31,8.4
	c-6.2,10.9-2.5,24.8,8.4,31l104.5,59.9l-125.3,72.5c-10.9,6.3-14.6,20.2-8.3,31c4.2,7.3,11.8,11.3,19.6,11.3c3.9,0,7.8-1,11.4-3.1
	l148.2-85.7l111,63.6l-144.4,71.6c-0.9,0.4-1.4,1.2-2.2,1.7c-1.3,0.8-2.4,1.7-3.5,2.7c-1.1,1.1-2,2.3-2.9,3.7
	c-0.5,0.8-1.3,1.3-1.7,2.1c-0.2,0.5-0.2,1-0.4,1.5c-0.6,1.4-0.9,2.9-1.2,4.4c-0.3,1.4-0.6,2.8-0.6,4.2c0,1.4,0.3,2.8,0.6,4.2
	c0.3,1.5,0.6,3,1.2,4.4c0.2,0.5,0.2,1,0.4,1.5c0.3,0.6,0.9,0.8,1.2,1.3c1.5,2.6,3.6,4.8,6.1,6.7c0.7,0.5,1.2,1.1,2,1.5
	c0.4,0.2,0.6,0.6,1,0.7l144.4,71.6l-111,63.5L494,1029.3c-10.7-6.2-24.7-2.6-31,8.3c-6.3,10.9-2.6,24.7,8.3,31l125.3,72.5L492,1201
	c-10.9,6.2-14.7,20.1-8.4,31c4.2,7.3,11.8,11.4,19.7,11.4c3.9,0,7.7-1,11.3-3l105-60.1l0.7,144.1c0,12.5,10.2,22.6,22.7,22.6h0.1
	c12.5-0.1,22.7-10.3,22.6-22.8l-0.8-169.8l114.2-65.4l-1.3,165.6c0,0.8,0.4,1.6,0.5,2.4c0.2,1.6,0.4,3.1,0.9,4.6
	c0.5,1.4,1.1,2.7,1.8,4.1c0.4,0.8,0.5,1.6,1.1,2.3c0.4,0.5,0.9,0.8,1.3,1.2c1,1.2,2.1,2.1,3.2,3c1.2,0.9,2.3,1.8,3.6,2.5
	c1.2,0.6,2.4,1,3.7,1.4c1.6,0.5,3.1,0.9,4.7,1c0.6,0.1,1.1,0.3,1.7,0.4h0.2c0.8,0,1.5-0.4,2.3-0.5c1.5-0.2,3-0.4,4.5-0.9
	c1.5-0.5,2.9-1.1,4.2-1.9c0.7-0.4,1.5-0.5,2.2-1l123-87.9v124.4L789.2,1394c-10.9,6.2-14.7,20.1-8.5,31c6.3,10.9,20.2,14.6,31,8.5
	l125-71.4v119.8c0,12.5,10.2,22.7,22.7,22.7c12.6,0,22.7-10.2,22.7-22.7V1362l125,71.4c3.6,2,7.4,3,11.3,3c7.9,0,15.5-4.1,19.7-11.4
	c6.2-10.9,2.4-24.8-8.5-31l-147.5-84.3v-124.4l123,87.9c0.4,0.3,1,0.2,1.4,0.5c3.5,2.2,7.4,3.8,11.8,3.8h0.2c3.4,0,6.6-0.9,9.4-2.3
	c0.8-0.4,1.4-1,2.2-1.5c2.1-1.3,4-2.8,5.5-4.7c0.3-0.4,0.9-0.6,1.2-1c0.5-0.7,0.6-1.6,1-2.3c0.7-1.3,1.4-2.6,1.8-4.1
	c0.5-1.5,0.7-3,0.9-4.6c0.1-0.8,0.5-1.5,0.5-2.4l-1.3-165.6l114.2,65.4l-0.8,169.8c-0.1,12.6,10.1,22.8,22.6,22.8h0.1
	c12.5,0,22.7-10.1,22.7-22.6l0.7-144.1l105,60.1c3.5,2,7.4,3,11.3,3c7.9,0,15.5-4.1,19.7-11.4c6.3-10.9,2.5-24.8-8.4-31l-104.6-59.8
	l125.3-72.5c10.9-6.3,14.6-20.2,8.3-31C1449.5,1026.8,1435.6,1023.1,1424.9,1029.3L1424.9,1029.3z M800.6,1024.3L670,959.6
	l130.6-64.7l113.1,64.7L800.6,1024.3z M936.7,1129.5l-113.2,80.8l1.2-147.5l112-64.1V1129.5z M936.7,920.4l-112-64.1l-1.2-147.5
	l113.2,80.8V920.4z M982.1,789.6l113.2-80.8l-1.2,147.5l-112,64.1V789.6z M982.1,1129.5V998.7l112,64.1l1.2,147.5L982.1,1129.5z
	 M1118.2,1024.3l-113.1-64.7l113.1-64.7l130.6,64.7L1118.2,1024.3z M1118.2,1024.3"/>
</svg>
