<?xml version="1.0" encoding="utf-8"?>
<!-- Generator: Adobe Illustrator 22.0.0, SVG Export Plug-In . SVG Version: 6.00 Build 0)  -->
<svg version="1.0" id="Layer_1" xmlns="http://www.w3.org/2000/svg" xmlns:xlink="http://www.w3.org/1999/xlink" x="0px" y="0px"
	 viewBox="0 0 1920 1920" enable-background="new 0 0 1920 1920" xml:space="preserve">
<g>
	<path fill="#3A5269" d="M1153.4,1278.4l-62.7,62.7c-8.1-3.9-17.2-6.3-26.8-6.3c-34.5,0-62.5,28-62.5,62.5s28,62.5,62.5,62.5
		c34.5,0,62.5-28,62.5-62.5c0-9.6-2.4-18.6-6.3-26.8l62.7-62.7c8.1-8.1,8.1-21.3,0-29.5C1174.7,1270.3,1161.5,1270.3,1153.4,1278.4
		L1153.4,1278.4z M1064,1418.1c-11.5,0-20.8-9.3-20.8-20.8c0-11.5,9.4-20.8,20.8-20.8c11.5,0,20.8,9.3,20.8,20.8
		C1084.8,1408.8,1075.4,1418.1,1064,1418.1L1064,1418.1z M1064,1418.1"/>
	<path fill="#3A5269" d="M1382.6,1215.9l-83.5,83.5c-8.1-3.9-17.2-6.3-26.8-6.3c-34.5,0-62.5,28-62.5,62.5c0,34.5,28,62.5,62.5,62.5
		c34.5,0,62.5-28,62.5-62.5c0-9.6-2.4-18.6-6.3-26.8l83.5-83.5c8.1-8.1,8.1-21.3,0-29.5C1403.9,1207.8,1390.7,1207.8,1382.6,1215.9
		L1382.6,1215.9z M1272.3,1376.5c-11.5,0-20.8-9.3-20.8-20.8c0-11.5,9.4-20.8,20.8-20.8c11.5,0,20.8,9.3,20.8,20.8
		C1293.1,1367.1,1283.8,1376.5,1272.3,1376.5L1272.3,1376.5z M1272.3,1376.5"/>
	<path fill="#3A5269" d="M778.4,1278.4l-62.7,62.7c-8.2-3.9-17.2-6.3-26.8-6.3c-34.5,0-62.5,28-62.5,62.5s28,62.5,62.5,62.5
		c34.5,0,62.5-28,62.5-62.5c0-9.6-2.4-18.6-6.3-26.8l62.7-62.7c8.1-8.1,8.1-21.3,0-29.5C799.7,1270.3,786.5,1270.3,778.4,1278.4
		L778.4,1278.4z M689,1418.1c-11.5,0-20.8-9.3-20.8-20.8c0-11.5,9.4-20.8,20.8-20.8c11.5,0,20.8,9.3,20.8,20.8
		C709.8,1408.8,700.4,1418.1,689,1418.1L689,1418.1z M689,1418.1"/>
	<path fill="#3A5269" d="M1236.8,1043.1h14.6c114.9,0,208.3-93.5,208.3-208.3c0-114.9-93.5-208.3-208.3-208.3c-16.2,0-32,2.4-47.4,6
		c-46.7-103.8-150.5-172.7-265.1-172.7c-150.9,0-275.5,114-289.6,261.8c-62,24.3-106.2,84.4-106.2,154.9c0,9.6,1.4,19.5,3.5,29.9
		c-52,33.3-86.8,91.4-86.8,157.6c0,88,61.2,161.5,143.1,181.6l-53.8,53.8c-8.1-3.9-17.2-6.3-26.8-6.3c-34.5,0-62.5,28-62.5,62.5
		c0,34.5,28,62.5,62.5,62.5c34.5,0,62.5-28,62.5-62.5c0-9.6-2.4-18.6-6.3-26.8l77.4-77.4H972l-47.9,47.9c-8.1-3.9-17.2-6.3-26.8-6.3
		c-34.5,0-62.5,28-62.5,62.5c0,34.5,28,62.5,62.5,62.5s62.5-28,62.5-62.5c0-9.6-2.4-18.6-6.3-26.8l77.4-77.4h74.7
		c80.4,0,145.8-65.4,145.8-145.8C1251.5,1083.2,1245.9,1062.1,1236.8,1043.1L1236.8,1043.1z M522.3,1376.5
		c-11.5,0-20.8-9.3-20.8-20.8c0-11.5,9.4-20.8,20.8-20.8c11.5,0,20.8,9.3,20.8,20.8C543.1,1367.1,533.8,1376.5,522.3,1376.5
		L522.3,1376.5z M897.3,1376.5c-11.5,0-20.8-9.3-20.8-20.8c0-11.5,9.4-20.8,20.8-20.8s20.8,9.3,20.8,20.8
		C918.1,1367.1,908.8,1376.5,897.3,1376.5L897.3,1376.5z M709.8,751.5c11.5,0,20.8-9.3,20.8-20.8c0-11.5-9.3-20.8-20.8-20.8
		c-6,0-11.7,1.2-17.6,1.8C710.5,591.9,814.4,501.5,939,501.5c96.8,0,184.5,57.4,225.4,144.2c-10.1,4.6-19.8,9.9-29.1,16.2
		c-9.5,6.4-12.1,19.4-5.7,28.9c6.5,9.6,19.4,12,28.9,5.7c27.5-18.5,59.7-28.3,93-28.3c91.9,0,166.7,74.8,166.7,166.7
		c0,91.9-74.7,166.7-166.7,166.7h-44.1c-12-11.7-26-21.2-41.4-28.2c-14.1-125.4-120.3-221.8-247.8-221.8
		c-92.6,0-176.7,51.7-219.9,132.7c-16.5-4.7-33.5-7.7-50.9-7.7c-21.7,0-42.2,4.4-61.6,11.2c-0.4-3.8-0.9-7.6-0.9-11.2
		C584.8,807.5,640.9,751.5,709.8,751.5L709.8,751.5z M1105.6,1209.8H647.3c-80.4,0-145.8-65.4-145.8-145.8
		c0-80.4,65.4-145.8,145.8-145.8c33.5,0,65,11,91.1,31.9c8.9,7.2,22,5.8,29.3-3.2c7.2-9,5.7-22.1-3.3-29.3
		c-8.6-6.9-17.7-12.8-27.3-18.1c36.7-65,105.4-106.4,181-106.4c100.5,0,184.5,72.1,203.3,168.3c-5.3-0.6-10.4-1.6-15.8-1.6
		c-11.5,0-20.8,9.3-20.8,20.8c0,11.5,9.3,20.8,20.8,20.8c57.5,0,104.2,46.7,104.2,104.2C1209.8,1163.1,1163.1,1209.8,1105.6,1209.8
		L1105.6,1209.8z M1105.6,1209.8"/>
</g>
</svg>
