<?xml version="1.0" encoding="utf-8"?>
<!-- Generator: Adobe Illustrator 22.0.0, SVG Export Plug-In . SVG Version: 6.00 Build 0)  -->
<svg version="1.1" id="Layer_1" xmlns="http://www.w3.org/2000/svg" xmlns:xlink="http://www.w3.org/1999/xlink" x="0px" y="0px"
	 viewBox="0 0 1920 1920" style="enable-background:new 0 0 1920 1920;" xml:space="preserve">
<style type="text/css">
	.st0{fill:#3A5269;}
</style>
<g>
	<path class="st0" d="M567.7,1302.1c-13.6,19.8-45.4,68.5-45.4,95.2c0,34.5,28,62.5,62.5,62.5s62.5-28,62.5-62.5
		c0-26.6-31.7-75.4-45.4-95.2C594.2,1290.8,575.4,1290.8,567.7,1302.1L567.7,1302.1z M584.8,1418.1c-11.5,0-20.8-9.3-20.8-20.8
		c0.2-6.4,8.8-24.5,20.8-44.7c12,20.2,20.6,38.3,20.8,44.7C605.6,1408.8,596.3,1418.1,584.8,1418.1L584.8,1418.1z"/>
	<path class="st0" d="M1459.8,834.8c0-114.9-93.5-208.3-208.3-208.3c-16.2,0-32,2.4-47.4,6c-46.7-103.8-150.5-172.7-265.1-172.7
		c-150.9,0-275.5,114-289.6,261.8c-62,24.3-106.2,84.4-106.2,154.9c0,9.6,1.4,19.5,3.5,29.9c-52,33.3-86.8,91.4-86.8,157.6
		c0,103.4,84.1,187.5,187.5,187.5h145.8v47.2l-59-34c-9.9-5.7-22.7-2.4-28.4,7.6c-5.8,10-2.4,22.7,7.6,28.5l59,34l-59,34
		c-10,5.8-13.4,18.5-7.6,28.5c3.8,6.7,10.9,10.4,18,10.4c3.5,0,7.1-0.9,10.4-2.8l59-34v68.1c0,11.5,9.3,20.8,20.8,20.8
		s20.8-9.3,20.8-20.8v-68.1l59,34c3.3,1.9,6.9,2.8,10.4,2.8c7.2,0,14.2-3.7,18-10.4c5.8-10,2.4-22.7-7.6-28.5l-58.9-34l58.9-34
		c10-5.7,13.4-18.5,7.6-28.5c-5.7-10-18.5-13.4-28.4-7.6l-59,34v-47.2h215.1c-19.9,38-48.4,97.4-48.4,125c0,46,37.4,83.3,83.3,83.3
		s83.3-37.4,83.3-83.3c0-28-29.3-88.5-49.1-126.4c74.1-6.9,132.5-68.7,132.5-144.5c0-22.4-5.5-43.5-14.6-62.5h14.6
		C1366.3,1043.1,1459.8,949.7,1459.8,834.8L1459.8,834.8z M1126.5,1376.5c0,23-18.7,41.7-41.7,41.7s-41.7-18.7-41.7-41.7
		c0-14.2,19.4-58.5,41.7-101.8C1107.1,1317.9,1126.5,1362.3,1126.5,1376.5L1126.5,1376.5z M1105.6,1209.8H647.3
		c-80.4,0-145.8-65.4-145.8-145.8s65.4-145.8,145.8-145.8c33.5,0,65,11,91.1,31.9c8.9,7.2,22.1,5.8,29.3-3.2s5.7-22.1-3.3-29.3
		c-8.6-6.9-17.7-12.8-27.3-18.1c36.7-65,105.4-106.4,181-106.4c100.5,0,184.5,72.1,203.3,168.3c-5.3-0.6-10.4-1.6-15.8-1.6
		c-11.5,0-20.8,9.3-20.8,20.8s9.3,20.8,20.8,20.8c57.5,0,104.2,46.7,104.2,104.2C1209.8,1163.1,1163.1,1209.8,1105.6,1209.8
		L1105.6,1209.8z M1207.4,1001.5c-12-11.7-26-21.2-41.4-28.2c-14.1-125.4-120.3-221.8-247.8-221.8c-92.6,0-176.7,51.7-219.9,132.7
		c-16.5-4.7-33.5-7.7-50.9-7.7c-21.7,0-42.2,4.4-61.6,11.2c-0.4-3.8-0.9-7.6-0.9-11.2c0-68.9,56.1-125,125-125
		c11.5,0,20.8-9.3,20.8-20.8s-9.3-20.8-20.8-20.8c-6,0-11.7,1.2-17.6,1.8C710.5,591.9,814.5,501.5,939,501.5
		c96.8,0,184.5,57.4,225.4,144.2c-10.1,4.6-19.8,9.9-29.1,16.2c-9.5,6.4-12.1,19.4-5.7,28.9c6.5,9.6,19.4,12,28.9,5.7
		c27.5-18.5,59.7-28.3,93-28.3c91.9,0,166.7,74.8,166.7,166.7s-74.7,166.7-166.7,166.7h-44.1V1001.5z"/>
	<path class="st0" d="M1427.8,1251.5c-5.7-10-18.5-13.4-28.4-7.6l-22.9,13.2v-26.4c0-11.5-9.3-20.8-20.8-20.8s-20.8,9.3-20.8,20.8
		v26.4l-22.9-13.2c-9.9-5.7-22.7-2.3-28.4,7.6c-5.8,10-2.4,22.7,7.6,28.5l22.9,13.2l-22.9,13.2c-10,5.8-13.4,18.5-7.6,28.5
		c3.8,6.7,10.9,10.4,18,10.4c3.5,0,7.1-0.9,10.4-2.8l22.9-13.2v26.4c0,11.5,9.3,20.8,20.8,20.8s20.8-9.3,20.8-20.8v-26.4l22.9,13.2
		c3.3,1.9,6.9,2.8,10.4,2.8c7.2,0,14.2-3.7,18-10.4c5.8-10,2.4-22.7-7.6-28.5l-22.9-13.2l22.9-13.2
		C1430.1,1274.2,1433.6,1261.4,1427.8,1251.5L1427.8,1251.5z"/>
</g>
</svg>
