<?xml version="1.0" encoding="utf-8"?>
<!-- Generator: Adobe Illustrator 22.0.0, SVG Export Plug-In . SVG Version: 6.00 Build 0)  -->
<svg version="1.0" id="Layer_1" xmlns="http://www.w3.org/2000/svg" xmlns:xlink="http://www.w3.org/1999/xlink" x="0px" y="0px"
	 viewBox="0 0 1920 1920" enable-background="new 0 0 1920 1920" xml:space="preserve">
<path fill="#3B5269" d="M1439,939h-105.2c-4.9-87.7-39.8-167.3-94.9-228.8l74.5-74.5c8.1-8.1,8.1-21.3,0-29.5
	c-8.1-8.1-21.3-8.1-29.5,0l-74.5,74.5c-61.5-55.1-141.1-90-228.8-94.9V480.6c0-11.5-9.3-20.8-20.8-20.8c-11.5,0-20.8,9.3-20.8,20.8
	v105.2c-87.7,4.9-167.3,39.8-228.8,94.9l-74.5-74.5c-8.1-8.1-21.3-8.1-29.5,0c-8.1,8.1-8.1,21.3,0,29.5l74.5,74.5
	c-55.1,61.5-90,141.1-94.9,228.8H480.6c-11.5,0-20.8,9.3-20.8,20.8c0,11.5,9.3,20.8,20.8,20.8h105.2c4.9,87.7,39.8,167.3,94.9,228.8
	l-74.5,74.5c-8.1,8.1-8.1,21.3,0,29.5c4.1,4.1,9.4,6.1,14.7,6.1c5.3,0,10.7-2,14.7-6.1l74.5-74.5c61.5,55.1,141.1,90,228.8,94.9
	V1439c0,11.5,9.3,20.8,20.8,20.8c11.5,0,20.8-9.3,20.8-20.8v-105.2c87.7-4.9,167.3-39.8,228.8-94.9l74.5,74.5
	c4.1,4.1,9.4,6.1,14.7,6.1c5.3,0,10.7-2,14.7-6.1c8.1-8.1,8.1-21.3,0-29.5l-74.5-74.5c55.1-61.5,90-141.1,94.9-228.8H1439
	c11.5,0,20.8-9.3,20.8-20.8C1459.8,948.3,1450.5,939,1439,939L1439,939z M959.8,1293.1c-183.8,0-333.3-149.5-333.3-333.3
	c0-183.8,149.5-333.3,333.3-333.3c183.8,0,333.3,149.5,333.3,333.3C1293.1,1143.6,1143.6,1293.1,959.8,1293.1L959.8,1293.1z
	 M959.8,1293.1"/>
<g>
	<path fill="#FFFFFF" d="M746.4,973.6c-0.9,0-1.7,0.2-2.6,0.2c-28.7-71.7-98.3-119.6-176.5-119.6c-99.3,0-181.1,75.6-189.8,173.4
		c-42.2,14.5-72.9,54.1-72.9,101.2c0,59.3,48.2,107.4,107.4,107.4h334.3c72.4,0,131.3-58.9,131.3-131.3
		C877.8,1032.5,818.8,973.6,746.4,973.6L746.4,973.6z M746.4,1212.3"/>
	<path fill="#3B5269" d="M746.4,973.6c-0.9,0-1.7,0.2-2.6,0.2c-28.7-71.7-98.3-119.6-176.5-119.6c-99.3,0-181.1,75.6-189.8,173.4
		c-42.2,14.5-72.9,54.1-72.9,101.2c0,59.3,48.2,107.4,107.4,107.4h334.3c72.4,0,131.3-58.9,131.3-131.3
		C877.8,1032.5,818.8,973.6,746.4,973.6L746.4,973.6z M746.4,1212.3H412.2c-46.1,0-83.6-37.5-83.6-83.6c0-46.1,37.5-83.6,83.6-83.6
		c6.6,0,11.9-5.3,11.9-11.9c0-6.6-5.3-11.9-11.9-11.9c-3.5,0-6.7,0.7-10.1,1C413,940.4,483,878.1,567.4,878.1
		c66.3,0,125.4,39.3,151.9,98.8c-18.5,4-36.2,11.6-51.5,23c-5.3,3.9-6.4,11.4-2.5,16.7c3.9,5.3,11.4,6.4,16.7,2.5
		c18.7-13.9,41.6-21.5,64.5-21.5c59.2,0,107.4,48.2,107.4,107.4C853.9,1164.1,805.7,1212.3,746.4,1212.3L746.4,1212.3z
		 M746.4,1212.3"/>
</g>
<g>
	<path fill="#FFFFFF" d="M1470.3,661.6c-0.9,0-1.7,0.2-2.6,0.2c-28.7-71.7-98.3-119.6-176.5-119.6c-99.3,0-181.1,75.6-189.8,173.4
		c-42.2,14.5-72.9,54.1-72.9,101.2c0,59.3,48.2,107.4,107.4,107.4h334.3c72.4,0,131.3-58.9,131.3-131.3
		C1601.6,720.5,1542.7,661.6,1470.3,661.6L1470.3,661.6z M1470.3,900.3"/>
	<path fill="#3B5269" d="M1470.3,661.6c-0.9,0-1.7,0.2-2.6,0.2c-28.7-71.7-98.3-119.6-176.5-119.6c-99.3,0-181.1,75.6-189.8,173.4
		c-42.2,14.5-72.9,54.1-72.9,101.2c0,59.3,48.2,107.4,107.4,107.4h334.3c72.4,0,131.3-58.9,131.3-131.3
		C1601.6,720.5,1542.7,661.6,1470.3,661.6L1470.3,661.6z M1470.3,900.3h-334.3c-46.1,0-83.6-37.5-83.6-83.6
		c0-46.1,37.5-83.6,83.6-83.6c6.6,0,11.9-5.3,11.9-11.9s-5.3-11.9-11.9-11.9c-3.5,0-6.7,0.7-10.1,1
		c10.9-81.9,80.9-144.3,165.3-144.3c66.3,0,125.4,39.3,151.9,98.8c-18.5,4-36.2,11.6-51.5,23c-5.3,3.9-6.4,11.4-2.5,16.7
		c3.9,5.3,11.4,6.4,16.7,2.5c18.7-13.9,41.6-21.5,64.5-21.5c59.2,0,107.4,48.2,107.4,107.4C1577.8,852.1,1529.6,900.3,1470.3,900.3
		L1470.3,900.3z M1470.3,900.3"/>
</g>
</svg>
