<?xml version="1.0" encoding="utf-8"?>
<!-- Generator: Adobe Illustrator 22.0.0, SVG Export Plug-In . SVG Version: 6.00 Build 0)  -->
<svg version="1.0" id="Layer_1" xmlns="http://www.w3.org/2000/svg" xmlns:xlink="http://www.w3.org/1999/xlink" x="0px" y="0px"
	 viewBox="0 0 1920 1920" enable-background="new 0 0 1920 1920" xml:space="preserve">
<g>
	<path fill="#3A5269" d="M1015.8,1243.2V516c0-64.4-52.4-116.8-116.8-116.8c-64.4,0-116.8,52.4-116.8,116.8v727.1
		c-29.8,30.6-46.7,71.4-46.7,113.7c0,90.1,73.4,163.5,163.5,163.5s163.5-73.4,163.5-163.5
		C1062.5,1314.6,1045.6,1273.7,1015.8,1243.2L1015.8,1243.2z M899,1473.6c-64.4,0-116.8-52.4-116.8-116.8c0-33.1,13.8-63.8,39-86.4
		c4.9-4.4,7.7-10.7,7.7-17.4V516c0-38.6,31.4-70.1,70.1-70.1c38.6,0,70.1,31.4,70.1,70.1v737c0,6.6,2.8,12.9,7.7,17.4
		c25.2,22.6,39,53.3,39,86.4C1015.8,1421.2,963.4,1473.6,899,1473.6L899,1473.6z M899,1473.6"/>
	<path fill="#3A5269" d="M922.4,1291.1V597.8c0-12.9-10.4-23.3-23.4-23.3c-12.9,0-23.4,10.4-23.4,23.3v693.3
		c-27.1,9.7-46.7,35.4-46.7,65.8c0,38.6,31.4,70.1,70.1,70.1c38.6,0,70.1-31.4,70.1-70.1C969.1,1326.5,949.5,1300.8,922.4,1291.1
		L922.4,1291.1z M899,1380.2c-12.9,0-23.3-10.5-23.3-23.3c0-12.9,10.5-23.4,23.3-23.4c12.9,0,23.4,10.5,23.4,23.4
		C922.4,1369.7,911.9,1380.2,899,1380.2L899,1380.2z M899,1380.2"/>
	<path fill="#3A5269" d="M712.2,1146.6H572c-12.9,0-23.4,10.4-23.4,23.4c0,12.9,10.4,23.3,23.4,23.3h140.1
		c12.9,0,23.4-10.4,23.4-23.3C735.5,1157.1,725.1,1146.6,712.2,1146.6L712.2,1146.6z M712.2,1146.6"/>
	<path fill="#3A5269" d="M712.2,1053.2h-46.7c-12.9,0-23.4,10.4-23.4,23.4c0,12.9,10.4,23.3,23.4,23.3h46.7
		c12.9,0,23.4-10.4,23.4-23.3C735.5,1063.7,725.1,1053.2,712.2,1053.2L712.2,1053.2z M712.2,1053.2"/>
	<path fill="#3A5269" d="M712.2,959.8h-46.7c-12.9,0-23.4,10.4-23.4,23.3c0,12.9,10.4,23.4,23.4,23.4h46.7
		c12.9,0,23.4-10.4,23.4-23.4C735.5,970.2,725.1,959.8,712.2,959.8L712.2,959.8z M712.2,959.8"/>
	<path fill="#3A5269" d="M572,913.1h140.1c12.9,0,23.4-10.4,23.4-23.4c0-12.9-10.4-23.3-23.4-23.3H572c-12.9,0-23.4,10.4-23.4,23.3
		C548.7,902.6,559.1,913.1,572,913.1L572,913.1z M572,913.1"/>
	<path fill="#3A5269" d="M572,632.8h140.1c12.9,0,23.4-10.4,23.4-23.3c0-12.9-10.4-23.4-23.4-23.4H572c-12.9,0-23.4,10.4-23.4,23.4
		C548.7,622.4,559.1,632.8,572,632.8L572,632.8z M572,632.8"/>
	<path fill="#3A5269" d="M712.2,773h-46.7c-12.9,0-23.4,10.4-23.4,23.3c0,12.9,10.4,23.4,23.4,23.4h46.7c12.9,0,23.4-10.4,23.4-23.4
		C735.5,783.4,725.1,773,712.2,773L712.2,773z M712.2,773"/>
	<path fill="#3A5269" d="M712.2,679.5h-46.7c-12.9,0-23.4,10.5-23.4,23.4c0,12.9,10.4,23.4,23.4,23.4h46.7
		c12.9,0,23.4-10.4,23.4-23.4C735.5,690,725.1,679.5,712.2,679.5L712.2,679.5z M712.2,679.5"/>
	<path fill="#3A5269" stroke="#395269" stroke-width="19.1595" stroke-miterlimit="10" d="M1538.6,669.4h-51.1
		c-2.4-42.6-19.3-81.3-46.1-111.2l36.2-36.2c3.9-3.9,3.9-10.4,0-14.3c-3.9-3.9-10.4-3.9-14.3,0l-36.2,36.2
		c-29.9-26.8-68.6-43.8-111.2-46.1v-51.1c0-5.6-4.5-10.1-10.1-10.1s-10.1,4.5-10.1,10.1v51.1c-42.6,2.4-81.3,19.3-111.2,46.1
		l-36.2-36.2c-3.9-3.9-10.4-3.9-14.3,0c-3.9,3.9-3.9,10.4,0,14.3l36.2,36.2c-26.8,29.9-43.8,68.6-46.1,111.2h-51.1
		c-5.6,0-10.1,4.5-10.1,10.1s4.5,10.1,10.1,10.1h51.1c2.4,42.6,19.3,81.3,46.1,111.2l-36.2,36.2c-3.9,3.9-3.9,10.4,0,14.3
		c2,2,4.6,3,7.1,3c2.6,0,5.2-1,7.1-3l36.2-36.2c29.9,26.8,68.6,43.8,111.2,46.1v51.1c0,5.6,4.5,10.1,10.1,10.1s10.1-4.5,10.1-10.1
		v-51.1c42.6-2.4,81.3-19.3,111.2-46.1l36.2,36.2c2,2,4.6,3,7.1,3s5.2-1,7.1-3c3.9-3.9,3.9-10.4,0-14.3l-36.2-36.2
		c26.8-29.9,43.8-68.6,46.1-111.2h51.2c5.6,0,10.1-4.5,10.1-10.1S1544.2,669.4,1538.6,669.4L1538.6,669.4z M1305.6,841.6
		c-89.4,0-162-72.7-162-162s72.7-162,162-162s162,72.7,162,162S1395,841.6,1305.6,841.6L1305.6,841.6z"/>
</g>
</svg>
