<?xml version="1.0" encoding="utf-8"?>
<!-- Generator: Adobe Illustrator 22.0.0, SVG Export Plug-In . SVG Version: 6.00 Build 0)  -->
<svg version="1.0" id="Layer_1" xmlns="http://www.w3.org/2000/svg" xmlns:xlink="http://www.w3.org/1999/xlink" x="0px" y="0px"
	 viewBox="0 0 1920 1920" enable-background="new 0 0 1920 1920" xml:space="preserve">
<g>
	<path fill="#3A5269" d="M1015.8,1243.2V516c0-64.4-52.4-116.8-116.8-116.8c-64.4,0-116.8,52.4-116.8,116.8v727.1
		c-29.8,30.6-46.7,71.4-46.7,113.7c0,90.1,73.4,163.5,163.5,163.5s163.5-73.4,163.5-163.5
		C1062.5,1314.6,1045.6,1273.7,1015.8,1243.2L1015.8,1243.2z M899,1473.6c-64.4,0-116.8-52.4-116.8-116.8c0-33.1,13.8-63.8,39-86.4
		c4.9-4.4,7.7-10.7,7.7-17.4V516c0-38.6,31.4-70.1,70.1-70.1c38.6,0,70.1,31.4,70.1,70.1v737c0,6.6,2.8,12.9,7.7,17.4
		c25.2,22.6,39,53.3,39,86.4C1015.8,1421.2,963.4,1473.6,899,1473.6L899,1473.6z M899,1473.6"/>
	<path fill="#3A5269" d="M922.4,1291.1v-109.4c0-12.9-10.4-23.3-23.4-23.3c-12.9,0-23.4,10.4-23.4,23.3v109.4
		c-27.1,9.7-46.7,35.4-46.7,65.8c0,38.6,31.4,70.1,70.1,70.1c38.6,0,70.1-31.4,70.1-70.1C969.1,1326.5,949.5,1300.8,922.4,1291.1
		L922.4,1291.1z M899,1380.2c-12.9,0-23.3-10.5-23.3-23.3c0-12.9,10.5-23.4,23.3-23.4c12.9,0,23.4,10.5,23.4,23.4
		C922.4,1369.7,911.9,1380.2,899,1380.2L899,1380.2z M899,1380.2"/>
	<path fill="#3A5269" d="M712.2,1146.6H572c-12.9,0-23.4,10.4-23.4,23.4c0,12.9,10.4,23.3,23.4,23.3h140.1
		c12.9,0,23.4-10.4,23.4-23.3C735.5,1157.1,725.1,1146.6,712.2,1146.6L712.2,1146.6z M712.2,1146.6"/>
	<path fill="#3A5269" d="M712.2,1053.2h-46.7c-12.9,0-23.4,10.4-23.4,23.4c0,12.9,10.4,23.3,23.4,23.3h46.7
		c12.9,0,23.4-10.4,23.4-23.3C735.5,1063.7,725.1,1053.2,712.2,1053.2L712.2,1053.2z M712.2,1053.2"/>
	<path fill="#3A5269" d="M712.2,959.8h-46.7c-12.9,0-23.4,10.4-23.4,23.3c0,12.9,10.4,23.4,23.4,23.4h46.7
		c12.9,0,23.4-10.4,23.4-23.4C735.5,970.2,725.1,959.8,712.2,959.8L712.2,959.8z M712.2,959.8"/>
	<path fill="#3A5269" d="M572,913.1h140.1c12.9,0,23.4-10.4,23.4-23.4c0-12.9-10.4-23.3-23.4-23.3H572c-12.9,0-23.4,10.4-23.4,23.3
		C548.7,902.6,559.1,913.1,572,913.1L572,913.1z M572,913.1"/>
	<path fill="#3A5269" d="M572,632.8h140.1c12.9,0,23.4-10.4,23.4-23.3c0-12.9-10.4-23.4-23.4-23.4H572c-12.9,0-23.4,10.4-23.4,23.4
		C548.7,622.4,559.1,632.8,572,632.8L572,632.8z M572,632.8"/>
	<path fill="#3A5269" d="M712.2,773h-46.7c-12.9,0-23.4,10.4-23.4,23.3c0,12.9,10.4,23.4,23.4,23.4h46.7c12.9,0,23.4-10.4,23.4-23.4
		C735.5,783.4,725.1,773,712.2,773L712.2,773z M712.2,773"/>
	<path fill="#3A5269" d="M712.2,679.5h-46.7c-12.9,0-23.4,10.5-23.4,23.4c0,12.9,10.4,23.4,23.4,23.4h46.7
		c12.9,0,23.4-10.4,23.4-23.4C735.5,690,725.1,679.5,712.2,679.5L712.2,679.5z M712.2,679.5"/>
</g>
<path fill="#3A5269" stroke="#395269" stroke-width="11" stroke-miterlimit="10" d="M1485,1151.4l-57.1,33l-42.8-24.5l55.7-27.6
	c0.2-0.1,0.2-0.2,0.4-0.3c0.3-0.2,0.5-0.4,0.8-0.6c1-0.7,1.8-1.6,2.4-2.6c0.1-0.2,0.3-0.3,0.5-0.5c0.1-0.2,0.1-0.4,0.2-0.6
	c0.2-0.5,0.3-1.1,0.5-1.7c0.1-0.5,0.2-1.1,0.2-1.6c0-0.5-0.1-1.1-0.2-1.6c-0.1-0.6-0.2-1.2-0.5-1.7c-0.1-0.2-0.1-0.4-0.2-0.6
	c-0.2-0.3-0.5-0.5-0.7-0.8c-0.3-0.5-0.7-1-1.1-1.4c-0.4-0.4-0.9-0.7-1.3-1c-0.3-0.2-0.5-0.5-0.8-0.7l-55.7-27.6l42.8-24.5l57.1,33
	c1.4,0.8,2.9,1.2,4.4,1.2c3,0,5.9-1.6,7.6-4.4c2.4-4.2,1-9.5-3.2-12l-48.4-28l40.3-23.1c4.2-2.4,5.7-7.8,3.2-12
	c-2.4-4.2-7.8-5.7-11.9-3.2l-40.5,23.2l-0.3-55.6c0-4.8-3.9-8.7-8.8-8.7h0c-4.8,0-8.8,4-8.7,8.8l0.3,65.5l-44,25.2l0.5-63.9
	c0-0.3-0.2-0.6-0.2-0.9c0-0.6-0.2-1.2-0.3-1.8c-0.2-0.5-0.4-1-0.7-1.5c-0.2-0.3-0.2-0.6-0.4-0.9c-0.2-0.2-0.3-0.3-0.5-0.5
	c-0.4-0.5-0.8-0.8-1.3-1.2c-0.5-0.3-0.9-0.7-1.4-1c-0.5-0.2-1-0.4-1.5-0.5c-0.6-0.2-1.2-0.3-1.8-0.4c-0.2,0-0.4-0.2-0.7-0.2h-0.1
	c-0.3,0-0.6,0.2-0.9,0.2c-0.6,0.1-1.1,0.2-1.7,0.3s-1.1,0.4-1.7,0.7c-0.3,0.2-0.6,0.2-0.8,0.4l-47.4,33.9v-48l56.9-32.5
	c4.2-2.4,5.7-7.8,3.3-12c-2.4-4.2-7.8-5.7-12-3.2l-48.2,27.5v-46.2c0-4.9-3.9-8.8-8.8-8.8s-8.8,3.9-8.8,8.8v46.2l-48.2-27.5
	c-4.2-2.4-9.5-1-12,3.2c-2.4,4.2-0.9,9.6,3.3,12l56.9,32.5v47.9l-47.4-33.9c-0.1-0.1-0.3-0.1-0.4-0.2c-0.6-0.3-1.2-0.7-1.9-0.8
	c-0.7-0.2-1.3-0.3-2-0.4c-0.3,0-0.5-0.2-0.8-0.2c-0.2,0-0.4,0.1-0.7,0.2c-0.6,0-1.2,0.2-1.8,0.4c-0.5,0.2-1,0.3-1.5,0.5
	c-0.5,0.3-0.9,0.6-1.4,1c-0.5,0.3-0.9,0.7-1.3,1.2c-0.2,0.2-0.4,0.3-0.5,0.5c-0.2,0.3-0.2,0.6-0.4,0.9c-0.3,0.5-0.5,1-0.7,1.5
	c-0.2,0.6-0.3,1.2-0.3,1.8c0,0.3-0.2,0.6-0.2,0.9l0.5,63.9l-44-25.2l0.3-65.5c0-4.8-3.9-8.8-8.7-8.8h0c-4.8,0-8.8,3.9-8.8,8.7
	l-0.3,55.6l-40.5-23.2c-4.2-2.4-9.5-1-12,3.2c-2.4,4.2-1,9.6,3.2,12l40.3,23.1l-48.3,28c-4.2,2.4-5.6,7.8-3.2,12
	c1.6,2.8,4.5,4.4,7.6,4.4c1.5,0,3-0.4,4.4-1.2l57.1-33l42.8,24.5l-55.7,27.6c-0.3,0.2-0.5,0.5-0.8,0.7c-0.5,0.3-0.9,0.7-1.3,1
	c-0.4,0.4-0.8,0.9-1.1,1.4c-0.2,0.3-0.5,0.5-0.7,0.8c-0.1,0.2-0.1,0.4-0.2,0.6c-0.2,0.5-0.3,1.1-0.5,1.7c-0.1,0.5-0.2,1.1-0.2,1.6
	c0,0.5,0.1,1.1,0.2,1.6c0.1,0.6,0.2,1.2,0.5,1.7c0.1,0.2,0.1,0.4,0.2,0.6c0.1,0.2,0.3,0.3,0.5,0.5c0.6,1,1.4,1.9,2.4,2.6
	c0.3,0.2,0.5,0.4,0.8,0.6c0.2,0.1,0.2,0.2,0.4,0.3l55.7,27.6l-42.8,24.5l-57.1-33c-4.1-2.4-9.5-1-12,3.2s-1,9.5,3.2,12l48.3,28
	l-40.3,23.1c-4.2,2.4-5.7,7.8-3.2,12c1.6,2.8,4.5,4.4,7.6,4.4c1.5,0,3-0.4,4.4-1.2l40.5-23.2l0.3,55.6c0,4.8,3.9,8.7,8.8,8.7h0
	c4.8,0,8.8-4,8.7-8.8l-0.3-65.5l44-25.2l-0.5,63.9c0,0.3,0.2,0.6,0.2,0.9c0.1,0.6,0.2,1.2,0.3,1.8c0.2,0.5,0.4,1,0.7,1.6
	c0.2,0.3,0.2,0.6,0.4,0.9c0.2,0.2,0.3,0.3,0.5,0.5c0.4,0.5,0.8,0.8,1.2,1.2c0.5,0.3,0.9,0.7,1.4,1c0.5,0.2,0.9,0.4,1.4,0.5
	c0.6,0.2,1.2,0.3,1.8,0.4c0.2,0,0.4,0.1,0.7,0.2h0.1c0.3,0,0.6-0.2,0.9-0.2c0.6-0.1,1.2-0.2,1.7-0.3s1.1-0.4,1.6-0.7
	c0.3-0.2,0.6-0.2,0.8-0.4l47.4-33.9v48l-56.9,32.5c-4.2,2.4-5.7,7.8-3.3,12c2.4,4.2,7.8,5.6,12,3.3l48.2-27.5v46.2
	c0,4.8,3.9,8.8,8.8,8.8c4.9,0,8.8-3.9,8.8-8.8v-46.2l48.2,27.5c1.4,0.8,2.9,1.2,4.4,1.2c3,0,6-1.6,7.6-4.4c2.4-4.2,0.9-9.6-3.3-12
	l-56.9-32.5v-48l47.4,33.9c0.2,0.1,0.4,0.1,0.5,0.2c1.3,0.8,2.9,1.5,4.5,1.5h0.1c1.3,0,2.5-0.3,3.6-0.9c0.3-0.2,0.5-0.4,0.8-0.6
	c0.8-0.5,1.5-1.1,2.1-1.8c0.1-0.2,0.3-0.2,0.5-0.4c0.2-0.3,0.2-0.6,0.4-0.9c0.3-0.5,0.5-1,0.7-1.6c0.2-0.6,0.3-1.2,0.3-1.8
	c0-0.3,0.2-0.6,0.2-0.9l-0.5-63.9l44,25.2l-0.3,65.5c0,4.9,3.9,8.8,8.7,8.8h0c4.8,0,8.8-3.9,8.8-8.7l0.3-55.6l40.5,23.2
	c1.3,0.8,2.9,1.2,4.4,1.2c3,0,6-1.6,7.6-4.4c2.4-4.2,1-9.6-3.2-12l-40.3-23.1l48.3-28c4.2-2.4,5.6-7.8,3.2-12
	C1494.5,1150.5,1489.2,1149,1485,1151.4L1485,1151.4z M1244.3,1149.5l-50.4-24.9l50.4-24.9l43.6,24.9L1244.3,1149.5z M1296.8,1190.1
	l-43.6,31.2l0.5-56.9l43.2-24.7V1190.1z M1296.8,1109.4l-43.2-24.7l-0.5-56.9l43.6,31.2V1109.4z M1314.3,1059l43.6-31.2l-0.5,56.9
	l-43.2,24.7V1059z M1314.3,1190.1v-50.4l43.2,24.7l0.5,56.9L1314.3,1190.1z M1366.8,1149.5l-43.6-24.9l43.6-24.9l50.4,24.9
	L1366.8,1149.5z"/>
</svg>
