<?xml version="1.0" encoding="utf-8"?>
<!-- Generator: Adobe Illustrator 22.0.0, SVG Export Plug-In . SVG Version: 6.00 Build 0)  -->
<svg version="1.0" id="Layer_1" xmlns="http://www.w3.org/2000/svg" xmlns:xlink="http://www.w3.org/1999/xlink" x="0px" y="0px"
	 viewBox="0 0 1920 1920" enable-background="new 0 0 1920 1920" xml:space="preserve">
<g>
	<path fill="#3A5269" d="M1049,823.4c123.9,0,273.6-90.1,273.6-202c0-28.7-11.1-54.7-32.6-77.4c21.4-16,43.4-29.9,65.4-40.9
		c11.2-5.6,15.7-19.3,10.2-30.5c-5.6-11.2-19.3-15.7-30.5-10.2c-27.9,14-55.8,32.5-82.6,53.6c-14.4-6.8-29.6-10.6-45.8-10.6
		c-111.9,0-202,149.7-202,273.7C1004.8,803.6,1024.7,823.4,1049,823.4L1049,823.4z M1206.8,550.9c1.7,0,3.3,0.4,4.9,0.5
		c-46.9,44.3-87.7,96.3-113.7,148.3c-5.6,11.2-1.1,24.9,10.2,30.5c3.3,1.6,6.7,2.4,10.2,2.4c8.3,0,16.3-4.6,20.3-12.6
		c26.1-52.2,68.3-104.4,116.5-147.3c0.1,0.1,0.1,0.1,0.2,0.2c14.8,14.8,22,30.6,22,48.5c0,82.5-126.6,156-227,156.6
		C1050.8,677.6,1124.3,550.9,1206.8,550.9L1206.8,550.9z M1206.8,550.9"/>
	<path fill="#3A5269" d="M469,1136.7c4.1,3.1,8.9,4.5,13.6,4.5c6.9,0,13.7-3.1,18.2-9.1c1.3-1.7,132.9-172.6,435.9-172.6
		c12.6,0,22.7-10.2,22.7-22.7c0-12.5-10.2-22.7-22.7-22.7c-325.5,0-466.4,182.9-472.3,190.7C456.9,1115,459,1129.2,469,1136.7
		L469,1136.7z M469,1136.7"/>
	<path fill="#3A5269" d="M1322.7,823.4c-101.9,0-130.9,52-133.8,58c-5.5,11-1.1,24.1,9.8,29.9c10.9,5.9,24.5,1.6,30.6-9
		c0.8-1.4,19.9-33.4,93.5-33.4c81.9,0,90.8,63.5,90.8,90.8c0,35.3-37.6,136.2-204.3,136.2c-98.8,0-156.3-13.8-207.1-26
		c-41.5-10-80.6-19.4-133.4-19.4c-116.8,0-333.2,93.3-406.3,239.6c-5.6,11.2-1.1,24.9,10.2,30.5c3.3,1.6,6.7,2.4,10.2,2.4
		c8.3,0,16.3-4.6,20.3-12.6c64.5-129,262.8-214.5,365.7-214.5c47.5,0,82.4,8.4,122.8,18.1c53.3,12.8,113.6,27.3,217.7,27.3
		c203.9,0,249.8-134.5,249.8-181.6C1458.9,896.8,1423.2,823.4,1322.7,823.4L1322.7,823.4z M1322.7,823.4"/>
	<path fill="#3A5269" d="M936.7,1186.7c-240.7,0-291.9,145.6-294,151.8c-3.9,11.9,2.5,24.8,14.4,28.7c12,4,24.7-2.4,28.7-14.4
		c0.4-1.2,42.6-120.7,250.9-120.7c203.9,0,295.2,57,295.2,113.5c0,56.3-37,68.1-68.1,68.1c-29.3,0-63.9-28-74.8-38.8
		c-8.9-8.8-23.2-8.9-32.1,0.1c-8.9,8.9-8.9,23.2,0,32.1c5.3,5.3,53.6,52.1,106.9,52.1c54.9,0,113.5-29.8,113.5-113.5
		C1277.3,1268.8,1187.8,1186.7,936.7,1186.7L936.7,1186.7z M936.7,1186.7"/>
</g>
</svg>
