<?xml version="1.0" encoding="utf-8"?>
<!-- Generator: Adobe Illustrator 22.0.0, SVG Export Plug-In . SVG Version: 6.00 Build 0)  -->
<svg version="1.0" id="Layer_1" xmlns="http://www.w3.org/2000/svg" xmlns:xlink="http://www.w3.org/1999/xlink" x="0px" y="0px"
	 viewBox="0 0 1920 1920" enable-background="new 0 0 1920 1920" xml:space="preserve">
<path display="none" fill="#3B5269" d="M1439,939h-105.2c-4.9-87.7-39.8-167.3-94.9-228.8l74.5-74.5c8.1-8.1,8.1-21.3,0-29.5
	c-8.1-8.1-21.3-8.1-29.5,0l-74.5,74.5c-61.5-55.1-141.1-90-228.8-94.9V480.6c0-11.5-9.3-20.8-20.8-20.8c-11.5,0-20.8,9.3-20.8,20.8
	v105.2c-87.7,4.9-167.3,39.8-228.8,94.9l-74.5-74.5c-8.1-8.1-21.3-8.1-29.5,0c-8.1,8.1-8.1,21.3,0,29.5l74.5,74.5
	c-55.1,61.5-90,141.1-94.9,228.8H480.6c-11.5,0-20.8,9.3-20.8,20.8c0,11.5,9.3,20.8,20.8,20.8h105.2c4.9,87.7,39.8,167.3,94.9,228.8
	l-74.5,74.5c-8.1,8.1-8.1,21.3,0,29.5c4.1,4.1,9.4,6.1,14.7,6.1c5.3,0,10.7-2,14.7-6.1l74.5-74.5c61.5,55.1,141.1,90,228.8,94.9
	V1439c0,11.5,9.3,20.8,20.8,20.8c11.5,0,20.8-9.3,20.8-20.8v-105.2c87.7-4.9,167.3-39.8,228.8-94.9l74.5,74.5
	c4.1,4.1,9.4,6.1,14.7,6.1c5.3,0,10.7-2,14.7-6.1c8.1-8.1,8.1-21.3,0-29.5l-74.5-74.5c55.1-61.5,90-141.1,94.9-228.8H1439
	c11.5,0,20.8-9.3,20.8-20.8C1459.8,948.3,1450.5,939,1439,939L1439,939z M959.8,1293.1c-183.8,0-333.3-149.5-333.3-333.3
	c0-183.8,149.5-333.3,333.3-333.3c183.8,0,333.3,149.5,333.3,333.3C1293.1,1143.6,1143.6,1293.1,959.8,1293.1L959.8,1293.1z
	 M959.8,1293.1"/>
<path fill="#3B5269" d="M1241,380.5c-8.5-4.3-18.9-2.8-25.6,4c-6.7,6.7-8.4,17.1-4,25.6c35.4,69.1,53.4,143.2,53.4,220.1
	c0,266.8-217.1,483.9-483.9,483.9c-77,0-151-18-220.2-53.4c-8.5-4.4-18.8-2.8-25.6,4c-6.7,6.7-8.4,17.1-4,25.6
	C622,1267.8,802,1378,1000.7,1378c291.1,0,527.9-236.8,527.9-527.9C1528.6,651.4,1418.4,471.4,1241,380.5L1241,380.5z M1000.7,1334
	c-159.7,0-306.2-77.6-396-206.4c56.5,20.2,115.4,30.4,176.1,30.4c291.1,0,527.9-236.8,527.9-527.9c0-60.6-10.2-119.6-30.4-176.1
	c128.7,89.9,206.3,236.3,206.3,396C1484.6,1117,1267.5,1334,1000.7,1334L1000.7,1334z M1000.7,1334"/>
<g display="none">
	<path display="inline" fill="#FFFFFF" d="M812.1,991.7c-0.9,0-1.8,0.2-2.8,0.2c-31.1-77.8-106.6-129.7-191.5-129.7
		c-107.7,0-196.4,82-205.9,188.1c-45.8,15.7-79,58.7-79,109.8c0,64.3,52.3,116.6,116.6,116.6h362.6c78.6,0,142.5-63.9,142.5-142.5
		C954.6,1055.6,890.7,991.7,812.1,991.7L812.1,991.7z M812.1,1250.7"/>
	<path display="inline" fill="#3B5269" d="M812.1,991.7c-0.9,0-1.8,0.2-2.8,0.2c-31.1-77.8-106.6-129.7-191.5-129.7
		c-107.7,0-196.4,82-205.9,188.1c-45.8,15.7-79,58.7-79,109.8c0,64.3,52.3,116.6,116.6,116.6h362.6c78.6,0,142.5-63.9,142.5-142.5
		C954.6,1055.6,890.7,991.7,812.1,991.7L812.1,991.7z M812.1,1250.7H449.5c-50,0-90.7-40.7-90.7-90.7c0-50,40.7-90.7,90.7-90.7
		c7.2,0,12.9-5.8,12.9-13c0-7.2-5.8-13-12.9-13c-3.8,0-7.3,0.8-11,1.1c11.8-88.9,87.8-156.5,179.3-156.5
		c71.9,0,136,42.7,164.7,107.2c-20,4.3-39.3,12.6-55.9,24.9c-5.7,4.3-6.9,12.4-2.7,18.1c4.2,5.7,12.3,6.9,18.1,2.7
		c20.2-15,45.1-23.3,70-23.3c64.3,0,116.6,52.3,116.6,116.6C928.7,1198.4,876.4,1250.7,812.1,1250.7L812.1,1250.7z M812.1,1250.7"/>
</g>
<g display="none">
	<path display="inline" fill="#FFFFFF" d="M1710.9,650.7c-0.7,0-1.3,0.2-2,0.2c-22.3-55.7-76.4-92.9-137.1-92.9
		c-77.1,0-140.7,58.7-147.4,134.7c-32.8,11.3-56.6,42.1-56.6,78.6c0,46,37.4,83.5,83.5,83.5h259.7c56.2,0,102-45.8,102-102
		C1812.9,696.5,1767.1,650.7,1710.9,650.7L1710.9,650.7z M1710.9,836.2"/>
	<path display="inline" fill="#3B5269" d="M1710.9,650.7c-0.7,0-1.3,0.2-2,0.2c-22.3-55.7-76.4-92.9-137.1-92.9
		c-77.1,0-140.7,58.7-147.4,134.7c-32.8,11.3-56.6,42.1-56.6,78.6c0,46,37.4,83.5,83.5,83.5h259.7c56.2,0,102-45.8,102-102
		C1812.9,696.5,1767.1,650.7,1710.9,650.7L1710.9,650.7z M1710.9,836.2h-259.7c-35.8,0-64.9-29.1-64.9-64.9
		c0-35.8,29.1-64.9,64.9-64.9c5.1,0,9.3-4.1,9.3-9.3c0-5.1-4.1-9.3-9.3-9.3c-2.7,0-5.2,0.5-7.9,0.8c8.5-63.7,62.8-112.1,128.4-112.1
		c51.5,0,97.4,30.6,118,76.7c-14.3,3.1-28.1,9-40,17.8c-4.1,3.1-5,8.9-1.9,13c3,4.1,8.8,4.9,13,1.9c14.5-10.8,32.3-16.7,50.1-16.7
		c46,0,83.5,37.4,83.5,83.5C1794.3,798.7,1756.9,836.2,1710.9,836.2L1710.9,836.2z M1710.9,836.2"/>
</g>
<path fill="#3B5269" d="M988.3,677.2c0,6.9,5.6,12.4,12.4,12.4c6.9,0,12.4-5.6,12.4-12.4c0-34.3,27.9-62.2,62.2-62.2
	c6.9,0,12.4-5.6,12.4-12.4c0-6.9-5.6-12.4-12.4-12.4c-34.3,0-62.2-27.9-62.2-62.2c0-6.9-5.6-12.4-12.4-12.4
	c-6.9,0-12.4,5.6-12.4,12.4c0,34.3-27.9,62.2-62.2,62.2c-6.9,0-12.4,5.6-12.4,12.4c0,6.9,5.6,12.4,12.4,12.4
	C960.4,615,988.3,642.9,988.3,677.2L988.3,677.2z M1000.7,572.7c7.4,12.2,17.6,22.5,29.8,29.8c-12.2,7.4-22.5,17.6-29.8,29.8
	c-7.4-12.2-17.6-22.5-29.8-29.8C983.1,595.2,993.4,584.9,1000.7,572.7L1000.7,572.7z M1000.7,572.7"/>
<path fill="#3B5269" d="M749,937.8c0,10.6,8.5,19.1,19.1,19.1c10.5,0,19.1-8.5,19.1-19.1c0-52.6,42.8-95.5,95.5-95.5
	c10.6,0,19.1-8.5,19.1-19.1c0-10.5-8.5-19.1-19.1-19.1c-52.7,0-95.5-42.8-95.5-95.5c0-10.6-8.5-19.1-19.1-19.1
	c-10.6,0-19.1,8.5-19.1,19.1c0,52.6-42.8,95.5-95.5,95.5c-10.6,0-19.1,8.5-19.1,19.1c0,10.6,8.5,19.1,19.1,19.1
	C706.2,842.4,749,885.2,749,937.8L749,937.8z M768.1,777.5c11.3,18.7,27,34.5,45.8,45.8c-18.8,11.3-34.5,27.1-45.8,45.8
	c-11.3-18.7-27-34.5-45.8-45.8C741.1,812,756.8,796.2,768.1,777.5L768.1,777.5z M768.1,777.5"/>
</svg>
