<?xml version="1.0" encoding="utf-8"?>
<!-- Generator: Adobe Illustrator 22.0.0, SVG Export Plug-In . SVG Version: 6.00 Build 0)  -->
<svg version="1.1" id="Layer_1" xmlns="http://www.w3.org/2000/svg" xmlns:xlink="http://www.w3.org/1999/xlink" x="0px" y="0px"
	 viewBox="0 0 1920 1920" style="enable-background:new 0 0 1920 1920;" xml:space="preserve">
<style type="text/css">
	.st0{fill:#3B5269;}
</style>
<g>
	<path class="st0" d="M1187.3,514.9c-8-4.1-17.8-2.6-24.2,3.8c-6.4,6.4-7.9,16.2-3.8,24.2c33.5,65.5,50.5,135.6,50.5,208.5
		c0,103.4-35.4,204.4-99.6,285.1c-8.1,3.9-17.2,6.6-30.7,6.6c-23.4,0-34.2-7.6-47.9-17.1c-15.7-10.9-35.3-24.6-71.7-24.6
		c-36.5,0-56.1,13.6-71.8,24.6c-13.7,9.6-24.6,17.1-48,17.1c-11.5,0-20.8,9.3-20.8,20.8s9.3,20.8,20.8,20.8
		c36.5,0,56.1-13.6,71.8-24.6c13.7-9.6,24.6-17.1,48-17.1s34.2,7.6,47.9,17.1c15.7,10.9,35.3,24.6,71.7,24.6
		c36.5,0,56.1-13.6,71.8-24.6c13.7-9.5,24.6-17.1,48-17.1c11.5,0,20.8-9.3,20.8-20.8c0-11.5-9.3-20.8-20.8-20.8
		c-6,0-10.9,0.8-16,1.5c44.2-76,68.2-162.9,68.2-251.5c0-57.4-9.7-113.3-28.8-166.8c121.9,85.1,195.5,223.9,195.5,375.1
		c0,252.7-205.6,458.3-458.3,458.3c-107.2,0-209.4-37.5-291.4-105.5c1.2-0.8,2.6-1.7,3.7-2.5c13.7-9.5,24.6-17.1,48-17.1
		s34.3,7.6,48.1,17.1c15.7,10.9,35.3,24.6,71.8,24.6s56.1-13.6,71.8-24.6c13.7-9.6,24.6-17.1,48-17.1c11.5,0,20.8-9.3,20.8-20.8
		s-9.3-20.8-20.8-20.8c-36.5,0-56.1,13.6-71.8,24.6c-13.7,9.6-24.6,17.1-48,17.1s-34.3-7.5-48-17.1c-15.7-10.9-35.3-24.6-71.8-24.6
		s-56,13.6-71.8,24.6c-13.7,9.6-24.6,17.1-48,17.1s-34.2-7.5-47.9-17.1c-15.7-10.9-35.3-24.6-71.7-24.6c-11.5,0-20.8,9.3-20.8,20.8
		s9.3,20.8,20.8,20.8c23.4,0,34.2,7.6,47.9,17.1c15.7,10.9,35.3,24.6,71.7,24.6c10.1,0,18.7-1.2,26.5-2.9
		c91.7,82.4,209.3,128,333,128c275.7,0,500-224.3,500-500C1459.8,771.5,1355.4,601.1,1187.3,514.9L1187.3,514.9z"/>
	<path class="st0" d="M689,668.1c80.4,0,145.8,65.4,145.8,145.8c0,11.5,9.3,20.8,20.8,20.8s20.8-9.3,20.8-20.8
		c0-80.4,65.4-145.8,145.8-145.8c11.5,0,20.8-9.3,20.8-20.8s-9.3-20.8-20.8-20.8c-80.4,0-145.8-65.4-145.8-145.8
		c0-11.5-9.3-20.8-20.8-20.8s-20.8,9.3-20.8,20.8c0,80.4-65.4,145.8-145.8,145.8c-11.5,0-20.8,9.3-20.8,20.8
		C668.1,658.8,677.5,668.1,689,668.1L689,668.1z M855.6,566.5c17.9,34.6,46.2,62.9,80.8,80.8c-34.6,17.9-62.9,46.2-80.8,80.8
		c-17.9-34.6-46.2-62.9-80.8-80.8C809.4,629.4,837.8,601.1,855.6,566.5L855.6,566.5z"/>
	<path class="st0" d="M480.6,918.1c23.4,0,34.2,7.5,47.9,17.1c15.7,10.9,35.3,24.6,71.7,24.6c36.5,0,56.1-13.6,71.8-24.6
		c13.7-9.5,24.6-17.1,48-17.1s34.3,7.5,48.1,17.1c15.7,10.9,35.3,24.6,71.8,24.6s56.1-13.6,71.8-24.6c13.7-9.6,24.6-17.1,48-17.1
		c11.5,0,20.8-9.3,20.8-20.8s-9.3-20.8-20.8-20.8c-36.5,0-56.1,13.6-71.8,24.6c-13.7,9.6-24.6,17.1-48,17.1s-34.3-7.6-48-17.1
		c-15.7-10.9-35.3-24.6-71.8-24.6s-56,13.6-71.8,24.6c-13.7,9.6-24.6,17.1-48,17.1s-34.2-7.6-47.9-17.1
		c-15.7-10.9-35.3-24.6-71.7-24.6c-11.5,0-20.8,9.3-20.8,20.8C459.8,908.8,469.1,918.1,480.6,918.1L480.6,918.1z"/>
	<path class="st0" d="M480.6,1168.1c23.4,0,34.2,7.6,47.9,17.1c15.7,10.9,35.3,24.6,71.7,24.6c11.5,0,20.8-9.3,20.8-20.8
		s-9.3-20.8-20.8-20.8c-23.4,0-34.2-7.6-47.9-17.1c-15.7-10.9-35.3-24.6-71.7-24.6c-11.5,0-20.8,9.3-20.8,20.8
		C459.8,1158.8,469.1,1168.1,480.6,1168.1L480.6,1168.1z"/>
	<path class="st0" d="M699.2,1147.3c0,11.5,9.3,20.8,20.8,20.8c23.4,0,34.3,7.6,48,17.1c15.7,10.9,35.3,24.6,71.8,24.6
		s56.1-13.6,71.8-24.6c13.7-9.6,24.6-17.1,48-17.1c23.8,0,36,7.8,51.3,17.6c17.7,11.3,37.7,24.1,73.7,24.1
		c11.5,0,20.8-9.3,20.8-20.8s-9.3-20.8-20.8-20.8c-23.8,0-36-7.8-51.3-17.6c-17.7-11.3-37.7-24.1-73.7-24.1
		c-36.5,0-56.1,13.6-71.8,24.6c-13.7,9.6-24.6,17.1-48,17.1s-34.3-7.6-48-17.1c-15.7-10.9-35.3-24.6-71.8-24.6
		C708.6,1126.5,699.2,1135.8,699.2,1147.3L699.2,1147.3z"/>
	<path class="st0" d="M480.6,1043.1c23.4,0,34.2,7.6,47.9,17.1c15.7,10.9,35.3,24.6,71.7,24.6c36.5,0,56.1-13.6,71.8-24.6
		c13.7-9.5,24.6-17.1,48-17.1c11.5,0,20.8-9.3,20.8-20.8c0-11.5-9.3-20.8-20.8-20.8c-36.5,0-56,13.6-71.8,24.6
		c-13.7,9.6-24.6,17.1-48,17.1s-34.2-7.6-47.9-17.1c-15.7-10.9-35.3-24.6-71.7-24.6c-11.5,0-20.8,9.3-20.8,20.8
		C459.8,1033.8,469.1,1043.1,480.6,1043.1L480.6,1043.1z"/>
</g>
</svg>
