<?xml version="1.0" encoding="utf-8"?>
<!-- Generator: Adobe Illustrator 22.0.0, SVG Export Plug-In . SVG Version: 6.00 Build 0)  -->
<svg version="1.1" id="Layer_1" xmlns="http://www.w3.org/2000/svg" xmlns:xlink="http://www.w3.org/1999/xlink" x="0px" y="0px"
	 viewBox="0 0 1920 1920" style="enable-background:new 0 0 1920 1920;" xml:space="preserve">
<style type="text/css">
	.st0{display:none;fill:#3B5269;}
	.st1{fill:#3B5269;}
	.st2{fill:#FFFFFF;}
</style>
<path class="st0" d="M1439,939h-105.2c-4.9-87.7-39.8-167.3-94.9-228.8l74.5-74.5c8.1-8.1,8.1-21.3,0-29.5c-8.1-8.1-21.3-8.1-29.5,0
	l-74.5,74.5c-61.5-55.1-141.1-90-228.8-94.9V480.6c0-11.5-9.3-20.8-20.8-20.8s-20.8,9.3-20.8,20.8v105.2
	c-87.7,4.9-167.3,39.8-228.8,94.9l-74.5-74.5c-8.1-8.1-21.3-8.1-29.5,0c-8.1,8.1-8.1,21.3,0,29.5l74.5,74.5
	c-55.1,61.5-90,141.1-94.9,228.8H480.6c-11.5,0-20.8,9.3-20.8,20.8s9.3,20.8,20.8,20.8h105.2c4.9,87.7,39.8,167.3,94.9,228.8
	l-74.5,74.5c-8.1,8.1-8.1,21.3,0,29.5c4.1,4.1,9.4,6.1,14.7,6.1s10.7-2,14.7-6.1l74.5-74.5c61.5,55.1,141.1,90,228.8,94.9V1439
	c0,11.5,9.3,20.8,20.8,20.8s20.8-9.3,20.8-20.8v-105.2c87.7-4.9,167.3-39.8,228.8-94.9l74.5,74.5c4.1,4.1,9.4,6.1,14.7,6.1
	c5.3,0,10.7-2,14.7-6.1c8.1-8.1,8.1-21.3,0-29.5l-74.5-74.5c55.1-61.5,90-141.1,94.9-228.8H1439c11.5,0,20.8-9.3,20.8-20.8
	C1459.8,948.3,1450.5,939,1439,939L1439,939z M959.8,1293.1c-183.8,0-333.3-149.5-333.3-333.3S776,626.5,959.8,626.5
	s333.3,149.5,333.3,333.3S1143.6,1293.1,959.8,1293.1L959.8,1293.1z"/>
<g>
	<path class="st1" d="M1195.4,536.8c-6.2-3.1-13.8-2-18.7,2.9c-4.9,4.9-6.1,12.5-2.9,18.7c25.9,50.5,39,104.7,39,160.9
		c0,195-158.7,353.7-353.7,353.7c-56.3,0-110.4-13.2-161-39c-6.2-3.2-13.7-2-18.7,2.9c-4.9,4.9-6.1,12.5-2.9,18.7
		c66.4,129.7,198,210.3,343.3,210.3c212.8,0,385.9-173.1,385.9-385.9C1405.6,734.8,1325,603.3,1195.4,536.8L1195.4,536.8z
		 M1019.7,1233.8c-116.7,0-223.8-56.7-289.5-150.9c41.3,14.8,84.4,22.2,128.7,22.2c212.8,0,385.9-173.1,385.9-385.9
		c0-44.3-7.5-87.4-22.2-128.7c94.1,65.7,150.8,172.7,150.8,289.5C1373.4,1075.2,1214.7,1233.8,1019.7,1233.8L1019.7,1233.8z"/>
	<path class="st1" d="M1010.7,829.6c0,5,4.1,9.1,9.1,9.1c5,0,9.1-4.1,9.1-9.1c0-25.1,20.4-45.5,45.5-45.5c5,0,9.1-4.1,9.1-9.1
		c0-5-4.1-9.1-9.1-9.1c-25.1,0-45.5-20.4-45.5-45.5c0-5-4.1-9.1-9.1-9.1c-5,0-9.1,4.1-9.1,9.1c0,25.1-20.4,45.5-45.5,45.5
		c-5,0-9.1,4.1-9.1,9.1c0,5,4.1,9.1,9.1,9.1C990.3,784.1,1010.7,804.5,1010.7,829.6L1010.7,829.6z M1019.7,753.2
		c5.4,8.9,12.9,16.4,21.8,21.8c-8.9,5.4-16.4,12.9-21.8,21.8c-5.4-8.9-12.9-16.4-21.8-21.8C1006.9,769.6,1014.4,762.1,1019.7,753.2
		L1019.7,753.2z"/>
	<g>
		<path class="st2" d="M1359.8,1081.3c-0.8,0-1.4,0.2-2.2,0.2c-24.6-61.4-84.3-102.5-151.2-102.5c-85,0-155.2,64.7-162.6,148.6
			c-36.2,12.5-62.4,46.4-62.4,86.7c0,50.7,41.2,92.1,92.1,92.1h286.4c62,0,112.5-50.5,112.5-112.5
			C1472.3,1131.8,1421.8,1081.3,1359.8,1081.3L1359.8,1081.3z"/>
		<path class="st1" d="M1359.8,1081.3c-0.8,0-1.4,0.2-2.2,0.2c-24.6-61.4-84.3-102.5-151.2-102.5c-85,0-155.2,64.7-162.6,148.6
			c-36.2,12.5-62.4,46.4-62.4,86.7c0,50.7,41.2,92.1,92.1,92.1h286.4c62,0,112.5-50.5,112.5-112.5
			C1472.3,1131.8,1421.8,1081.3,1359.8,1081.3L1359.8,1081.3z M1359.8,1285.9h-286.4c-39.5,0-71.6-32.1-71.6-71.6
			c0-39.5,32.1-71.6,71.6-71.6c5.6,0,10.3-4.5,10.3-10.3c0-5.6-4.5-10.3-10.3-10.3c-3,0-5.7,0.6-8.7,0.9
			c9.4-70.3,69.3-123.6,141.6-123.6c56.8,0,107.4,33.7,130.1,84.6c-15.8,3.4-31,9.9-44.1,19.6c-4.5,3.4-5.5,9.8-2.1,14.3
			c3.3,4.5,9.7,5.4,14.3,2.1c16-11.9,35.6-18.4,55.3-18.4c50.7,0,92.1,41.2,92.1,92.1C1451.8,1244.5,1410.5,1285.9,1359.8,1285.9
			L1359.8,1285.9z"/>
	</g>
	<g>
		<path class="st2" d="M906.9,797c-0.6,0-1.2,0.1-1.8,0.1c-19.9-49.7-68.2-83-122.4-83c-68.9,0-125.6,52.4-131.6,120.3
			c-29.3,10.1-50.6,37.5-50.6,70.2c0,41.1,33.4,74.5,74.5,74.5h231.9c50.2,0,91.1-40.9,91.1-91.1C998,837.8,957.1,797,906.9,797
			L906.9,797z"/>
		<path class="st1" d="M906.9,797c-0.6,0-1.2,0.1-1.8,0.1c-19.9-49.7-68.2-83-122.4-83c-68.9,0-125.6,52.4-131.6,120.3
			c-29.3,10.1-50.6,37.5-50.6,70.2c0,41.1,33.4,74.5,74.5,74.5h231.9c50.2,0,91.1-40.9,91.1-91.1C998,837.8,957.1,797,906.9,797
			L906.9,797z M906.9,962.5H675.1c-32,0-58-26-58-58s26-58,58-58c4.6,0,8.3-3.7,8.3-8.3s-3.7-8.3-8.3-8.3c-2.4,0-4.6,0.5-7,0.7
			c7.6-56.8,56.1-100.1,114.7-100.1c46,0,87,27.3,105.4,68.5c-12.8,2.8-25.1,8-35.7,16c-3.7,2.7-4.4,7.9-1.7,11.6
			c2.7,3.7,7.9,4.4,11.6,1.7c13-9.6,28.9-14.9,44.7-14.9c41.1,0,74.5,33.4,74.5,74.5C981.5,929.1,948.1,962.5,906.9,962.5
			L906.9,962.5z"/>
	</g>
	<g>
		<path class="st2" d="M1307.4,691.8c-0.8,0-1.4,0.2-2.2,0.2c-24.6-61.4-84.3-102.5-151.2-102.5c-85,0-155.2,64.7-162.6,148.6
			c-36.2,12.5-62.4,46.4-62.4,86.7c0,50.7,41.2,92.1,92.1,92.1h286.4c62,0,112.5-50.5,112.5-112.5
			C1419.8,742.3,1369.3,691.8,1307.4,691.8L1307.4,691.8z"/>
		<path class="st1" d="M1307.4,691.8c-0.8,0-1.4,0.2-2.2,0.2c-24.6-61.4-84.3-102.5-151.2-102.5c-85,0-155.2,64.7-162.6,148.6
			c-36.2,12.5-62.4,46.4-62.4,86.7c0,50.7,41.2,92.1,92.1,92.1h286.4c62,0,112.5-50.5,112.5-112.5
			C1419.8,742.3,1369.3,691.8,1307.4,691.8L1307.4,691.8z M1307.4,896.3h-286.4c-39.5,0-71.6-32.1-71.6-71.6
			c0-39.5,32.1-71.6,71.6-71.6c5.6,0,10.3-4.5,10.3-10.3c0-5.6-4.5-10.3-10.3-10.3c-3,0-5.7,0.6-8.7,0.9
			c9.4-70.3,69.3-123.6,141.6-123.6c56.8,0,107.4,33.7,130.1,84.6c-15.8,3.4-31,9.9-44.1,19.6c-4.5,3.4-5.5,9.8-2.1,14.3
			c3.3,4.5,9.7,5.4,14.3,2.1c16-11.9,35.6-18.4,55.3-18.4c50.7,0,92.1,41.2,92.1,92.1C1399.3,855,1358.1,896.3,1307.4,896.3
			L1307.4,896.3z"/>
	</g>
	<g>
		<path class="st2" d="M1007.9,1051.9c-1.1,0-2.2,0.3-3.3,0.3C968.4,961.2,880,900.4,780.8,900.4c-125.9,0-229.7,95.9-240.7,219.9
			c-53.5,18.4-92.5,68.6-92.5,128.4c0,75.2,61.1,136.2,136.2,136.2h424.1c91.8,0,166.5-74.7,166.5-166.5
			C1174.5,1126.6,1099.8,1051.9,1007.9,1051.9L1007.9,1051.9z"/>
		<path class="st1" d="M1007.9,1051.9c-1.1,0-2.2,0.3-3.3,0.3C968.4,961.2,880,900.4,780.8,900.4c-125.9,0-229.7,95.9-240.7,219.9
			c-53.5,18.4-92.5,68.6-92.5,128.4c0,75.2,61.1,136.2,136.2,136.2h424.1c91.8,0,166.5-74.7,166.5-166.5
			C1174.5,1126.6,1099.8,1051.9,1007.9,1051.9L1007.9,1051.9z M1007.9,1354.8h-424c-58.5,0-106-47.6-106-106
			c0-58.5,47.6-106,106-106c8.4,0,15.1-6.7,15.1-15.1s-6.7-15.1-15.1-15.1c-4.4,0-8.5,0.9-12.8,1.3c13.8-103.9,102.6-183,209.7-183
			c84.1,0,159,49.8,192.7,125.3c-23.5,5.1-45.9,14.7-65.3,29.2c-6.7,4.9-8.1,14.5-3.2,21.2c4.9,6.7,14.5,8.1,21.2,3.2
			c23.7-17.6,52.8-27.3,81.8-27.3c75.1,0,136.2,61.1,136.2,136.2C1144.1,1293.6,1083,1354.8,1007.9,1354.8L1007.9,1354.8z"/>
	</g>
</g>
</svg>
