<?xml version="1.0" encoding="utf-8"?>
<!-- Generator: Adobe Illustrator 22.0.0, SVG Export Plug-In . SVG Version: 6.00 Build 0)  -->
<svg version="1.1" id="Layer_1" xmlns="http://www.w3.org/2000/svg" xmlns:xlink="http://www.w3.org/1999/xlink" x="0px" y="0px"
	 viewBox="0 0 1920 1920" style="enable-background:new 0 0 1920 1920;" xml:space="preserve">
<style type="text/css">
	.st0{fill:#3B5269;}
	.st1{fill:#FFFFFF;}
	.st2{fill:#3B5269;stroke:#3B5269;stroke-width:5.9134;stroke-miterlimit:10;}
	.st3{fill:#FFFFFF;stroke:#3B5269;stroke-width:6.5169;stroke-miterlimit:10;}
	.st4{fill:#3B5269;stroke:#3B5269;stroke-width:6.5169;stroke-miterlimit:10;}
	.st5{fill:#3A5269;}
</style>
<g>
	<path class="st0" d="M1098.6,421.1c-6.8-3.4-15.1-2.2-20.5,3.2c-5.4,5.4-6.7,13.7-3.2,20.5c28.3,55.3,42.7,114.6,42.7,176.1
		c0,213.4-173.7,387.1-387.1,387.1c-61.6,0-120.8-14.4-176.2-42.7c-6.8-3.5-15-2.2-20.5,3.2c-5.4,5.4-6.7,13.7-3.2,20.5
		c72.7,141.9,216.7,230.2,375.7,230.2c232.9,0,422.3-189.4,422.3-422.3C1328.6,637.8,1240.4,493.9,1098.6,421.1L1098.6,421.1z
		 M906.3,1183.9c-127.7,0-244.9-62.1-316.8-165.1c45.2,16.2,92.4,24.3,140.8,24.3c232.9,0,422.3-189.4,422.3-422.3
		c0-48.5-8.2-95.6-24.3-140.8c103,71.9,165,189,165,316.8C1293.4,1010.3,1119.7,1183.9,906.3,1183.9L906.3,1183.9z"/>
	<g>
		<g>
			<g>
				<path class="st1" d="M1342,767.5c-0.8,0-1.5,0.2-2.4,0.2c-25.8-64.5-88.4-107.6-158.9-107.6c-89.3,0-162.9,68.1-170.8,156
					c-38,13.1-65.6,48.7-65.6,91.1c0,53.3,43.3,96.6,96.6,96.6h300.8c65.2,0,118.1-53,118.1-118.1
					C1460.2,820.4,1407.2,767.5,1342,767.5L1342,767.5z"/>
				<path class="st2" d="M1342,767.5c-0.8,0-1.5,0.2-2.4,0.2c-25.8-64.5-88.4-107.6-158.9-107.6c-89.3,0-162.9,68.1-170.8,156
					c-38,13.1-65.6,48.7-65.6,91.1c0,53.3,43.3,96.6,96.6,96.6h300.8c65.2,0,118.1-53,118.1-118.1
					C1460.2,820.4,1407.2,767.5,1342,767.5L1342,767.5z M1342,982.3h-300.8c-41.4,0-75.2-33.7-75.2-75.2c0-41.5,33.7-75.2,75.2-75.2
					c5.9,0,10.7-4.7,10.7-10.7c0-6-4.7-10.7-10.7-10.7c-3.2,0-6,0.6-9.1,0.9c9.8-73.7,72.8-129.9,148.8-129.9
					c59.6,0,112.9,35.4,136.7,88.9c-16.6,3.6-32.5,10.5-46.3,20.7c-4.7,3.5-5.7,10.3-2.3,15c3.5,4.7,10.3,5.7,15,2.3
					c16.8-12.5,37.4-19.4,58.1-19.4c53.3,0,96.6,43.3,96.6,96.6C1438.8,938.9,1395.4,982.3,1342,982.3L1342,982.3z"/>
			</g>
			<g>
				<path class="st3" d="M579.6,1056.6c0.8,0,1.5,0.2,2.4,0.2c26.2-65.3,89.6-109,160.9-109c90.5,0,165,68.9,172.9,158
					c38.4,13.2,66.4,49.3,66.4,92.2c0,54.1-43.9,97.9-97.9,97.9H579.7c-66,0-119.7-53.7-119.7-119.7
					C459.9,1110.3,513.5,1056.6,579.6,1056.6L579.6,1056.6z"/>
				<path class="st4" d="M579.6,1056.6c0.8,0,1.5,0.2,2.4,0.2c26.2-65.3,89.6-109,160.9-109c90.5,0,165,68.9,172.9,158
					c38.4,13.2,66.4,49.3,66.4,92.2c0,54.1-43.9,97.9-97.9,97.9H579.7c-66,0-119.7-53.7-119.7-119.7
					C459.9,1110.3,513.5,1056.6,579.6,1056.6L579.6,1056.6z M579.6,1274.1h304.6c42,0,76.2-34.2,76.2-76.2c0-42-34.2-76.2-76.2-76.2
					c-6,0-10.8-4.8-10.8-10.8c0-6,4.8-10.8,10.8-10.8c3.2,0,6.1,0.6,9.2,0.9c-9.9-74.6-73.7-131.5-150.7-131.5
					c-60.4,0-114.3,35.8-138.4,90.1c16.9,3.6,33,10.5,46.9,21c4.8,3.5,5.8,10.4,2.3,15.2c-3.5,4.8-10.4,5.8-15.2,2.3
					c-17.1-12.6-37.9-19.6-58.8-19.6c-54,0-97.9,43.9-97.9,97.9C481.5,1230.2,525.5,1274.1,579.6,1274.1L579.6,1274.1z"/>
			</g>
		</g>
		<path class="st5" d="M662.3,1381.7c-5.2-2.6-11.3-2-15.8,1.5l-46.9,35.8c-12.3,8.7-19.4,22-19.4,36.4c0,25,20.3,45.3,45.3,45.3
			c25,0,45.3-20.3,45.3-45.3v-60.3C670.8,1389.5,667.5,1384.3,662.3,1381.7L662.3,1381.7z M640.5,1455.5c0,8.4-6.8,15.1-15.1,15.1
			c-8.4,0-15.1-6.7-15.1-15.1c0-6.3,4.3-10.2,6.8-11.9c0.2-0.2,0.4-0.2,0.5-0.4l22.9-17.5L640.5,1455.5L640.5,1455.5z"/>
		<path class="st5" d="M873.5,1381.7c-5.2-2.6-11.3-2-15.8,1.5l-46.9,35.8c-12.3,8.7-19.4,22-19.4,36.4c0,25,20.3,45.3,45.3,45.3
			c25,0,45.3-20.3,45.3-45.3v-60.3C882,1389.5,878.7,1384.3,873.5,1381.7L873.5,1381.7z M851.7,1455.5c0,8.4-6.8,15.1-15.1,15.1
			s-15.1-6.7-15.1-15.1c0-6.3,4.3-10.2,6.8-11.9c0.2-0.2,0.4-0.2,0.5-0.4l22.9-17.5L851.7,1455.5L851.7,1455.5z"/>
		<path class="st5" d="M1210.7,1381.7c5.2-2.6,11.3-2,15.8,1.5l46.9,35.9c12.3,8.7,19.4,22,19.4,36.4c0,25-20.3,45.3-45.3,45.3
			s-45.3-20.3-45.3-45.3v-60.3C1202.3,1389.5,1205.6,1384.2,1210.7,1381.7L1210.7,1381.7z M1232.4,1455.5c0,8.4,6.8,15.1,15.1,15.1
			c8.4,0,15.1-6.7,15.1-15.1c0-6.3-4.3-10.2-6.8-11.9c-0.2-0.2-0.3-0.2-0.5-0.4l-22.9-17.5L1232.4,1455.5L1232.4,1455.5z"/>
		<path class="st5" d="M1016.5,1381.7c5.2-2.6,11.3-2,15.8,1.5l46.9,35.9c12.3,8.7,19.4,22,19.4,36.4c0,25-20.3,45.3-45.3,45.3
			s-45.3-20.3-45.3-45.3v-60.3C1008,1389.5,1011.3,1384.2,1016.5,1381.7L1016.5,1381.7z M1038.2,1455.5c0,8.4,6.8,15.1,15.1,15.1
			c8.4,0,15.1-6.7,15.1-15.1c0-6.3-4.3-10.2-6.8-11.9c-0.2-0.2-0.3-0.2-0.5-0.4l-22.9-17.5L1038.2,1455.5L1038.2,1455.5z"/>
	</g>
</g>
</svg>
