<?xml version="1.0" encoding="utf-8"?>
<!-- Generator: Adobe Illustrator 22.0.0, SVG Export Plug-In . SVG Version: 6.00 Build 0)  -->
<svg version="1.1" id="Layer_1" xmlns="http://www.w3.org/2000/svg" xmlns:xlink="http://www.w3.org/1999/xlink" x="0px" y="0px"
	 viewBox="0 0 1920 1920" style="enable-background:new 0 0 1920 1920;" xml:space="preserve">
<style type="text/css">
	.st0{fill:#3B5269;}
	.st1{fill:#FFFFFF;}
</style>
<g>
	<path class="st0" d="M1430.7,939.2h-105.2c-4.9-87.7-39.8-167.3-94.9-228.8l74.5-74.5c8.1-8.1,8.1-21.3,0-29.5
		c-8.1-8.1-21.3-8.1-29.5,0l-74.5,74.5c-61.5-55.1-141.1-90-228.8-94.9V480.8c0-11.5-9.3-20.8-20.8-20.8s-20.8,9.3-20.8,20.8V586
		c-87.7,4.9-167.3,39.8-228.8,94.9l-74.5-74.5c-8.1-8.1-21.3-8.1-29.5,0c-8.1,8.1-8.1,21.3,0,29.5l74.5,74.5
		c-55.1,61.5-90,141.1-94.9,228.8H472.3c-11.5,0-20.8,9.3-20.8,20.8s9.3,20.8,20.8,20.8h105.2c4.9,87.7,39.8,167.3,94.9,228.8
		l-74.5,74.5c-8.1,8.1-8.1,21.3,0,29.5c4.1,4.1,9.4,6.1,14.7,6.1s10.7-2,14.7-6.1l74.5-74.5c61.5,55.1,141.1,90,228.8,94.9v105.2
		c0,11.5,9.3,20.8,20.8,20.8s20.8-9.3,20.8-20.8V1334c87.7-4.9,167.3-39.8,228.8-94.9l74.5,74.5c4.1,4.1,9.4,6.1,14.7,6.1
		c5.3,0,10.7-2,14.7-6.1c8.1-8.1,8.1-21.3,0-29.5l-74.5-74.5c55.1-61.5,90-141.1,94.9-228.8h105.4c11.5,0,20.8-9.3,20.8-20.8
		C1451.5,948.5,1442.2,939.2,1430.7,939.2L1430.7,939.2z M951.5,1293.3c-183.8,0-333.3-149.5-333.3-333.3s149.5-333.3,333.3-333.3
		s333.3,149.5,333.3,333.3S1135.3,1293.3,951.5,1293.3L951.5,1293.3z"/>
	<g>
		<path class="st1" d="M738.1,973.8c-0.9,0-1.7,0.2-2.6,0.2c-28.7-71.7-98.3-119.6-176.5-119.6c-99.3,0-181.1,75.6-189.8,173.4
			c-42.2,14.5-72.9,54.1-72.9,101.2c0,59.3,48.2,107.4,107.4,107.4H738c72.4,0,131.3-58.9,131.3-131.3
			C869.5,1032.7,810.5,973.8,738.1,973.8L738.1,973.8z"/>
		<path class="st0" d="M738.1,973.8c-0.9,0-1.7,0.2-2.6,0.2c-28.7-71.7-98.3-119.6-176.5-119.6c-99.3,0-181.1,75.6-189.8,173.4
			c-42.2,14.5-72.9,54.1-72.9,101.2c0,59.3,48.2,107.4,107.4,107.4H738c72.4,0,131.3-58.9,131.3-131.3
			C869.5,1032.7,810.5,973.8,738.1,973.8L738.1,973.8z M738.1,1212.5H403.9c-46.1,0-83.6-37.5-83.6-83.6s37.5-83.6,83.6-83.6
			c6.6,0,11.9-5.3,11.9-11.9s-5.3-11.9-11.9-11.9c-3.5,0-6.7,0.7-10.1,1c10.9-81.9,80.9-144.2,165.3-144.2
			c66.3,0,125.4,39.3,151.9,98.8c-18.5,4-36.2,11.6-51.5,23c-5.3,3.9-6.4,11.4-2.5,16.7s11.4,6.4,16.7,2.5
			c18.7-13.9,41.6-21.5,64.5-21.5c59.2,0,107.4,48.2,107.4,107.4C845.6,1164.3,797.4,1212.5,738.1,1212.5L738.1,1212.5z"/>
	</g>
	<g>
		<path class="st1" d="M1370,579.4c-0.9,0-1.7,0.2-2.6,0.2c-28.7-71.7-98.3-119.6-176.5-119.6c-99.3,0-181.1,75.6-189.8,173.4
			c-42.2,14.5-72.9,54.1-72.9,101.2c0,59.3,48.2,107.4,107.4,107.4h334.3c72.4,0,131.3-58.9,131.3-131.3
			C1501.3,638.3,1442.4,579.4,1370,579.4L1370,579.4z"/>
		<path class="st0" d="M1370,579.4c-0.9,0-1.7,0.2-2.6,0.2c-28.7-71.7-98.3-119.6-176.5-119.6c-99.3,0-181.1,75.6-189.8,173.4
			c-42.2,14.5-72.9,54.1-72.9,101.2c0,59.3,48.2,107.4,107.4,107.4h334.3c72.4,0,131.3-58.9,131.3-131.3
			C1501.3,638.3,1442.4,579.4,1370,579.4L1370,579.4z M1370,818.1h-334.3c-46.1,0-83.6-37.5-83.6-83.6s37.5-83.6,83.6-83.6
			c6.6,0,11.9-5.3,11.9-11.9s-5.3-11.9-11.9-11.9c-3.5,0-6.7,0.7-10.1,1c10.9-81.9,80.9-144.3,165.3-144.3
			c66.3,0,125.4,39.3,151.9,98.8c-18.5,4-36.2,11.6-51.5,23c-5.3,3.9-6.4,11.4-2.5,16.7s11.4,6.4,16.7,2.5
			c18.7-13.9,41.6-21.5,64.5-21.5c59.2,0,107.4,48.2,107.4,107.4C1477.5,769.9,1429.3,818.1,1370,818.1L1370,818.1z"/>
	</g>
	<g>
		<path class="st1" d="M1460.4,1123.4c-1.1,0-2.1,0.2-3.2,0.2c-35.7-89.3-122.4-148.9-219.7-148.9c-123.6,0-225.5,94.1-236.3,215.9
			c-52.5,18.1-90.8,67.4-90.8,126c0,73.8,60,133.7,133.7,133.7h416.2c90.1,0,163.5-73.3,163.5-163.5
			C1623.8,1196.7,1550.5,1123.4,1460.4,1123.4L1460.4,1123.4z"/>
		<path class="st0" d="M1460.4,1123.4c-1.1,0-2.1,0.2-3.2,0.2c-35.7-89.3-122.4-148.9-219.7-148.9c-123.6,0-225.5,94.1-236.3,215.9
			c-52.5,18.1-90.8,67.4-90.8,126c0,73.8,60,133.7,133.7,133.7h416.2c90.1,0,163.5-73.3,163.5-163.5
			C1623.8,1196.7,1550.5,1123.4,1460.4,1123.4L1460.4,1123.4z M1460.4,1420.5h-416.2c-57.4,0-104.1-46.7-104.1-104.1
			c0-57.4,46.7-104.1,104.1-104.1c8.2,0,14.8-6.6,14.8-14.8c0-8.2-6.6-14.8-14.8-14.8c-4.4,0-8.3,0.9-12.6,1.2
			c13.6-102,100.7-179.7,205.8-179.7c82.5,0,156.1,48.9,189.1,123c-23,5-45.1,14.4-64.1,28.6c-6.6,4.9-8,14.2-3.1,20.8
			c4.9,6.6,14.2,8,20.8,3.1c23.3-17.3,51.8-26.8,80.3-26.8c73.7,0,133.7,60,133.7,133.7C1594.2,1360.5,1534.2,1420.5,1460.4,1420.5
			L1460.4,1420.5z"/>
	</g>
</g>
</svg>
