<?xml version="1.0" encoding="utf-8"?>
<!-- Generator: Adobe Illustrator 22.0.0, SVG Export Plug-In . SVG Version: 6.00 Build 0)  -->
<svg version="1.1" id="Layer_1" xmlns="http://www.w3.org/2000/svg" xmlns:xlink="http://www.w3.org/1999/xlink" x="0px" y="0px"
	 viewBox="0 0 1920 1920" style="enable-background:new 0 0 1920 1920;" xml:space="preserve">
<style type="text/css">
	.st0{fill:#3B5269;}
	.st1{fill:#FFFFFF;}
	.st2{fill:#FFFFFF;stroke:#3B5269;stroke-width:7.1709;stroke-miterlimit:10;}
	.st3{fill:#3B5269;stroke:#3B5269;stroke-width:7.1709;stroke-miterlimit:10;}
	.st4{fill:#3A5269;}
</style>
<g>
	<path class="st0" d="M1138.2,490.4c-6.2-3.1-13.8-2-18.7,2.9c-4.9,4.9-6.1,12.5-2.9,18.7c25.9,50.5,39,104.7,39,160.9
		c0,195-158.7,353.7-353.7,353.7c-56.3,0-110.4-13.2-161-39c-6.2-3.2-13.7-2-18.7,2.9c-4.9,4.9-6.1,12.5-2.9,18.7
		c66.4,129.7,198,210.3,343.3,210.3c212.8,0,385.9-173.1,385.9-385.9C1348.4,688.4,1267.8,556.9,1138.2,490.4L1138.2,490.4z
		 M962.5,1187.4c-116.7,0-223.8-56.7-289.5-150.9c41.3,14.8,84.4,22.2,128.7,22.2c212.8,0,385.9-173.1,385.9-385.9
		c0-44.3-7.5-87.4-22.2-128.7c94.1,65.7,150.8,172.7,150.8,289.5C1316.2,1028.8,1157.5,1187.4,962.5,1187.4L962.5,1187.4z"/>
	<g>
		<g>
			<g>
				<path class="st1" d="M1195.6,756.1c-1.2,0-2.3,0.3-3.6,0.3c-39.3-98.1-134.5-163.7-241.5-163.7
					c-135.9,0-247.8,103.5-259.7,237.3c-57.7,19.8-99.8,74-99.8,138.5c0,81.2,66,147,147,147h457.5c99.1,0,179.7-80.6,179.7-179.7
					S1294.6,756.1,1195.6,756.1L1195.6,756.1z"/>
				<path class="st0" d="M1195.6,756.1c-1.2,0-2.3,0.3-3.6,0.3c-39.3-98.1-134.5-163.7-241.5-163.7
					c-135.9,0-247.8,103.5-259.7,237.3c-57.7,19.8-99.8,74-99.8,138.5c0,81.2,66,147,147,147h457.5c99.1,0,179.7-80.6,179.7-179.7
					S1294.6,756.1,1195.6,756.1L1195.6,756.1z M1195.6,1082.8H738.1c-63.1,0-114.4-51.3-114.4-114.4S675,854,738.1,854
					c9,0,16.3-7.3,16.3-16.3s-7.3-16.3-16.3-16.3c-4.8,0-9.2,1-13.8,1.4C739.2,710.7,835,625.3,950.5,625.3
					c90.7,0,171.6,53.8,207.9,135.2c-25.3,5.5-49.5,15.9-70.5,31.5c-7.3,5.3-8.8,15.6-3.4,22.9c5.3,7.3,15.6,8.8,22.9,3.4
					c25.6-19,56.9-29.4,88.3-29.4c81,0,147,66,147,147C1342.7,1016.8,1276.7,1082.8,1195.6,1082.8L1195.6,1082.8z"/>
			</g>
			<g>
				<path class="st2" d="M676.5,978.1c0.9,0,1.7,0.2,2.6,0.2c28.8-71.9,98.6-119.9,177-119.9c99.6,0,181.6,75.8,190.3,173.9
					c42.3,14.5,73.1,54.3,73.1,101.5c0,59.5-48.3,107.7-107.7,107.7H676.6c-72.6,0-131.7-59.1-131.7-131.7S603.8,978.1,676.5,978.1
					L676.5,978.1z"/>
				<path class="st3" d="M676.5,978.1c0.9,0,1.7,0.2,2.6,0.2c28.8-71.9,98.6-119.9,177-119.9c99.6,0,181.6,75.8,190.3,173.9
					c42.3,14.5,73.1,54.3,73.1,101.5c0,59.5-48.3,107.7-107.7,107.7H676.6c-72.6,0-131.7-59.1-131.7-131.7S603.8,978.1,676.5,978.1
					L676.5,978.1z M676.5,1217.5h335.3c46.2,0,83.8-37.6,83.8-83.8c0-46.2-37.6-83.8-83.8-83.8c-6.6,0-11.9-5.3-11.9-11.9
					s5.3-11.9,11.9-11.9c3.5,0,6.7,0.7,10.1,1C1010.9,945,940.8,882.4,856,882.4c-66.5,0-125.8,39.4-152.3,99.1
					c18.6,4,36.3,11.6,51.6,23.1c5.3,3.9,6.4,11.4,2.5,16.7c-3.9,5.3-11.4,6.4-16.7,2.5c-18.8-13.9-41.7-21.6-64.7-21.6
					c-59.4,0-107.7,48.3-107.7,107.7C568.7,1169.2,617.1,1217.5,676.5,1217.5L676.5,1217.5z"/>
			</g>
		</g>
		<path class="st4" d="M681.3,1300.3c-5.7-2.9-12.4-2.2-17.4,1.7l-51.6,39.4c-13.5,9.6-21.3,24.2-21.3,40.1
			c0,27.5,22.3,49.8,49.8,49.8s49.8-22.3,49.8-49.8v-66.3C690.6,1308.8,687,1303.1,681.3,1300.3L681.3,1300.3z M657.3,1381.5
			c0,9.2-7.5,16.6-16.6,16.6c-9.2,0-16.6-7.4-16.6-16.6c0-6.9,4.7-11.2,7.5-13.1c0.2-0.2,0.4-0.2,0.6-0.4l25.2-19.3L657.3,1381.5
			L657.3,1381.5z"/>
		<path class="st4" d="M913.7,1300.3c-5.7-2.9-12.4-2.2-17.4,1.7l-51.6,39.4c-13.5,9.6-21.3,24.2-21.3,40.1
			c0,27.5,22.3,49.8,49.8,49.8s49.8-22.3,49.8-49.8v-66.3C923,1308.8,919.3,1303.1,913.7,1300.3L913.7,1300.3z M889.7,1381.5
			c0,9.2-7.5,16.6-16.6,16.6s-16.6-7.4-16.6-16.6c0-6.9,4.7-11.2,7.5-13.1c0.2-0.2,0.4-0.2,0.6-0.4l25.2-19.3L889.7,1381.5
			L889.7,1381.5z"/>
		<path class="st4" d="M1284.7,1300.2c5.7-2.9,12.4-2.2,17.4,1.7l51.6,39.5c13.5,9.6,21.3,24.2,21.3,40.1
			c0,27.5-22.3,49.8-49.8,49.8s-49.8-22.3-49.8-49.8v-66.4C1275.5,1308.8,1279.1,1303,1284.7,1300.2L1284.7,1300.2z M1308.6,1381.5
			c0,9.2,7.5,16.6,16.6,16.6c9.2,0,16.6-7.4,16.6-16.6c0-6.9-4.7-11.2-7.5-13.1c-0.2-0.2-0.3-0.2-0.6-0.4l-25.2-19.3L1308.6,1381.5
			L1308.6,1381.5z"/>
		<path class="st4" d="M1071,1300.2c5.7-2.9,12.4-2.2,17.4,1.7l51.6,39.5c13.5,9.6,21.3,24.2,21.3,40.1c0,27.5-22.3,49.8-49.8,49.8
			s-49.8-22.3-49.8-49.8v-66.4C1061.7,1308.8,1065.3,1303,1071,1300.2L1071,1300.2z M1094.9,1381.5c0,9.2,7.5,16.6,16.6,16.6
			c9.2,0,16.6-7.4,16.6-16.6c0-6.9-4.7-11.2-7.5-13.1c-0.2-0.2-0.3-0.2-0.6-0.4l-25.2-19.3L1094.9,1381.5L1094.9,1381.5z"/>
	</g>
</g>
</svg>
