<?xml version="1.0" encoding="utf-8"?>
<!-- Generator: Adobe Illustrator 22.0.0, SVG Export Plug-In . SVG Version: 6.00 Build 0)  -->
<svg version="1.1" id="Layer_1" xmlns="http://www.w3.org/2000/svg" xmlns:xlink="http://www.w3.org/1999/xlink" x="0px" y="0px"
	 viewBox="0 0 1920 1920" style="enable-background:new 0 0 1920 1920;" xml:space="preserve">
<style type="text/css">
	.st0{fill:#3B5269;}
	.st1{fill:#3A5269;}
	.st2{display:none;}
	.st3{display:inline;fill:#FFFFFF;}
	.st4{display:inline;fill:#3B5269;stroke:#3B5269;stroke-width:6.5068;stroke-miterlimit:10;}
</style>
<path class="st0" d="M1078.6,787.3c31.1-55.6,48.8-119.6,48.8-187.7c0-44.3-7.5-87.4-22.2-128.7c94.1,65.7,150.8,172.7,150.8,289.5
	c0,35.3-5.2,69.4-14.8,101.6c6.8,12.5,13.9,24.9,21.5,36.8c16.6-43,25.7-89.7,25.7-138.4c-0.1-145.2-80.7-276.7-210.3-343.2
	c-6.2-3.1-13.8-2-18.7,2.9c-4.9,4.9-6.1,12.5-2.9,18.7c25.9,50.5,39,104.7,39,160.9c0,67.7-19.1,131-52.2,184.8
	C1055,785.5,1066.8,786.5,1078.6,787.3z"/>
<g>
	<path class="st1" d="M1297.9,881.5c-35.7-28.7-80.5-46.7-129.8-46.7c-16.2,0-32,2.4-47.4,6c-29.2-64.8-80.3-115.9-142.9-145.1
		c1.1-2.4-37-19.2-38.9-14.9c-26.7-8.1-54.6-12.7-83.3-12.7c-150.1,0-274.3,113.9-289.4,261.7c-62.1,24.3-106.4,84.4-106.4,155
		c0,91.9,74.8,166.7,166.7,166.7h42.7l-15.9,12.2c-17,12.1-26.8,30.4-26.8,50.3c0,34.5,28,62.5,62.5,62.5s62.5-28,62.5-62.5v-62.5
		h57.9l-36.7,183.4c-2,9.8,3.3,19.5,12.4,23.3c2.6,1.1,5.3,1.6,8,1.6c6.8,0,13.4-3.3,17.3-9.3l114.8-172.2l66.9,33.4
		c5.5,2.8,11.9,3,17.5,0.5c5.6-2.4,9.9-7.2,11.7-13l14.7-47.8h132c114.9,0,208.3-93.5,208.3-208.3c0-50.5-18.8-96.2-48.7-132.3
		C1330.2,907.5,1299.8,879,1297.9,881.5z M709.9,1314h-0.1c0,11.5-9.3,20.8-20.8,20.8s-20.8-9.3-20.8-20.8c0-8.6,5.9-14,9.4-16.5
		c0.2-0.2,0.5-0.3,0.7-0.5l31.6-24.1V1314z M988.8,1263.5l-61.3-30.7c-9.4-4.7-20.8-1.7-26.7,7.1l-66.6,99.9l36.5-182.5l58.9,29.5
		c6.1,3.1,13.3,2.9,19.3-0.3c6-3.3,10-9.2,10.8-16l18-161.9l81.2,27.1L988.8,1263.5z M1334.8,1043.1c0,91.9-74.8,166.7-166.7,166.7
		h-119.2l55.8-181.4c3.3-10.8-2.6-22.3-13.3-25.9l-125-41.7c-6-2.1-12.5-1.2-17.8,2.2s-8.8,9-9.5,15.3l-17.5,157.8l-56.6-28.3
		c-5.8-2.9-12.6-2.9-18.5-0.1c-5.8,2.9-10,8.3-11.3,14.6l-17.5,87.4H626.5c-68.9,0-125-56.1-125-125s56.1-125,125-125
		c11.5,0,20.8-9.3,20.8-20.8s-9.3-20.8-20.8-20.8c-5.9,0-11.5,1.1-17.2,1.7c19.2-119.7,122.6-210.1,246.4-210.1
		c96.8,0,184.5,57.4,225.4,144.2c-10.1,4.6-19.8,9.9-29.1,16.2c-9.5,6.4-12.1,19.4-5.6,28.9c6.4,9.6,19.4,12.1,28.9,5.6
		c27.5-18.5,59.6-28.3,93-28.3C1260,876.5,1334.8,951.2,1334.8,1043.1z"/>
	<path class="st1" d="M573.2,1295.3c-7.1-3.5-15.6-2.7-21.9,2.1l-64.8,49.5c-17,12.1-26.8,30.4-26.8,50.3c0,34.5,28,62.5,62.5,62.5
		s62.5-28,62.5-62.5V1314C584.8,1306,580.3,1298.8,573.2,1295.3L573.2,1295.3z M543.1,1397.3c0,11.5-9.3,20.8-20.8,20.8
		s-20.8-9.3-20.8-20.8c0-8.6,5.9-14,9.4-16.5c0.2-0.2,0.5-0.3,0.7-0.5l31.6-24.2v41.2H543.1z"/>
	<path class="st1" d="M1114.9,1295.3c-7.1-3.5-15.6-2.7-21.9,2.1l-64.8,49.6c-17,12.1-26.8,30.4-26.8,50.3c0,34.5,28,62.5,62.5,62.5
		s62.5-28,62.5-62.5V1314C1126.5,1306,1122,1298.8,1114.9,1295.3L1114.9,1295.3z M1084.8,1397.3c0,11.5-9.3,20.8-20.8,20.8
		s-20.8-9.3-20.8-20.8c0-8.6,5.9-14,9.4-16.5c0.2-0.2,0.5-0.3,0.7-0.5l31.6-24.2L1084.8,1397.3L1084.8,1397.3z"/>
</g>
<g class="st2">
	<path class="st3" d="M1442.7,708.1c-0.9,0-1.7,0.2-2.6,0.2c-28.4-71-97.3-118.4-174.8-118.4c-98.3,0-179.3,74.9-187.9,171.7
		c-41.8,14.4-72.2,53.6-72.2,100.2c0,58.7,47.7,106.3,106.3,106.3h331c71.7,0,130-58.3,130-130
		C1572.7,766.4,1514.3,708.1,1442.7,708.1L1442.7,708.1z"/>
	<path class="st4" d="M1442.7,708.1c-0.9,0-1.7,0.2-2.6,0.2c-28.4-71-97.3-118.4-174.8-118.4c-98.3,0-179.3,74.9-187.9,171.7
		c-41.8,14.4-72.2,53.6-72.2,100.2c0,58.7,47.7,106.3,106.3,106.3h331c71.7,0,130-58.3,130-130
		C1572.7,766.4,1514.3,708.1,1442.7,708.1L1442.7,708.1z M1442.7,944.5h-331c-45.6,0-82.8-37.1-82.8-82.8s37.1-82.8,82.8-82.8
		c6.5,0,11.8-5.2,11.8-11.8s-5.2-11.8-11.8-11.8c-3.5,0-6.6,0.7-10,1c10.8-81.1,80.1-142.9,163.7-142.9
		c65.6,0,124.2,38.9,150.4,97.8c-18.3,4-35.8,11.5-51,22.8c-5.2,3.9-6.3,11.3-2.5,16.5c3.9,5.2,11.3,6.3,16.5,2.5
		c18.5-13.8,41.2-21.3,63.9-21.3c58.6,0,106.3,47.7,106.3,106.3C1549.1,896.7,1501.4,944.5,1442.7,944.5L1442.7,944.5z"/>
</g>
</svg>
