<?xml version="1.0" encoding="utf-8"?>
<!-- Generator: Adobe Illustrator 22.0.0, SVG Export Plug-In . SVG Version: 6.00 Build 0)  -->
<svg version="1.1" id="Layer_1" xmlns="http://www.w3.org/2000/svg" xmlns:xlink="http://www.w3.org/1999/xlink" x="0px" y="0px"
	 viewBox="0 0 1920 1920" style="enable-background:new 0 0 1920 1920;" xml:space="preserve">
<style type="text/css">
	.st0{fill:#FFFFFF;}
	.st1{fill:#3B5269;}
	.st2{fill:#FFFFFF;stroke:#3B5269;stroke-width:7.1709;stroke-miterlimit:10;}
	.st3{fill:#3B5269;stroke:#3B5269;stroke-width:7.1709;stroke-miterlimit:10;}
</style>
<g>
	<g>
		<g>
			<g>
				<path class="st0" d="M1280.5,816.9c-1.2,0-2.3,0.3-3.6,0.3c-39.3-98.1-134.5-163.7-241.5-163.7
					c-135.9,0-247.8,103.5-259.7,237.3c-57.7,19.8-99.8,74-99.8,138.5c0,81.2,66,147,147,147h457.5c99.1,0,179.7-80.6,179.7-179.7
					S1379.5,816.9,1280.5,816.9L1280.5,816.9z"/>
				<path class="st1" d="M1280.5,816.9c-1.2,0-2.3,0.3-3.6,0.3c-39.3-98.1-134.5-163.7-241.5-163.7
					c-135.9,0-247.8,103.5-259.7,237.3c-57.7,19.8-99.8,74-99.8,138.5c0,81.2,66,147,147,147h457.5c99.1,0,179.7-80.6,179.7-179.7
					S1379.5,816.9,1280.5,816.9L1280.5,816.9z M1280.5,1143.6H823c-63.1,0-114.4-51.3-114.4-114.4S759.9,914.8,823,914.8
					c9,0,16.3-7.3,16.3-16.3s-7.3-16.3-16.3-16.3c-4.8,0-9.2,1-13.8,1.4c14.9-112.1,110.7-197.5,226.2-197.5
					c90.7,0,171.6,53.8,207.9,135.2c-25.3,5.5-49.5,15.9-70.5,31.5c-7.3,5.3-8.8,15.6-3.4,22.9c5.3,7.3,15.6,8.8,22.9,3.4
					c25.6-19,56.9-29.4,88.3-29.4c81,0,147,66,147,147C1427.6,1077.6,1361.6,1143.6,1280.5,1143.6L1280.5,1143.6z"/>
			</g>
			<g>
				<path class="st2" d="M761.4,1038.9c0.9,0,1.7,0.2,2.6,0.2c28.8-71.9,98.6-119.9,177-119.9c99.6,0,181.6,75.8,190.3,173.9
					c42.3,14.5,73.1,54.3,73.1,101.5c0,59.5-48.3,107.7-107.7,107.7H761.5c-72.6,0-131.7-59.1-131.7-131.7
					S688.8,1038.9,761.4,1038.9L761.4,1038.9z"/>
				<path class="st3" d="M761.4,1038.9c0.9,0,1.7,0.2,2.6,0.2c28.8-71.9,98.6-119.9,177-119.9c99.6,0,181.6,75.8,190.3,173.9
					c42.3,14.5,73.1,54.3,73.1,101.5c0,59.5-48.3,107.7-107.7,107.7H761.5c-72.6,0-131.7-59.1-131.7-131.7
					S688.8,1038.9,761.4,1038.9L761.4,1038.9z M761.4,1278.3h335.3c46.2,0,83.8-37.6,83.8-83.8c0-46.2-37.6-83.8-83.8-83.8
					c-6.6,0-11.9-5.3-11.9-11.9s5.3-11.9,11.9-11.9c3.5,0,6.7,0.7,10.1,1c-10.9-82.1-81.1-144.7-165.8-144.7
					c-66.5,0-125.8,39.4-152.3,99.1c18.6,4,36.3,11.6,51.6,23.1c5.3,3.9,6.4,11.4,2.5,16.7s-11.4,6.4-16.7,2.5
					c-18.8-13.9-41.7-21.6-64.7-21.6c-59.4,0-107.7,48.3-107.7,107.7C653.6,1230,702,1278.3,761.4,1278.3L761.4,1278.3z"/>
			</g>
		</g>
	</g>
</g>
<path class="st1" d="M1370.6,845c0,8.5-0.3,17-0.9,25.3c3.7,3.3,7.4,6.6,11.1,9.7c5.7,4.8,12.1,10,19,13.7c2-16,3.1-32.2,3.1-48.7
	c-0.1-145.2-80.7-276.7-210.3-343.2c-6.2-3.1-13.8-2-18.7,2.9c-4.9,4.9-6.1,12.5-2.9,18.7c25.9,50.5,39,104.7,39,160.9
	c0,17.1-1.2,33.9-3.6,50.3c8.4,11.8,16.7,23.7,26.2,34.4c6.1-27.3,9.4-55.7,9.4-84.8c0-44.3-7.5-87.4-22.2-128.7
	C1313.9,621.2,1370.6,728.2,1370.6,845z"/>
</svg>
