<?xml version="1.0" encoding="utf-8"?>
<!-- Generator: Adobe Illustrator 22.0.0, SVG Export Plug-In . SVG Version: 6.00 Build 0)  -->
<svg version="1.1" id="Layer_1" xmlns="http://www.w3.org/2000/svg" xmlns:xlink="http://www.w3.org/1999/xlink" x="0px" y="0px"
	 viewBox="0 0 1920 1920" style="enable-background:new 0 0 1920 1920;" xml:space="preserve">
<style type="text/css">
	.st0{fill:#3A5269;}
	.st1{fill:#3B5269;}
</style>
<g>
	<path class="st0" d="M1339.8,902.7C1304.1,874,1259.3,856,1210,856c-16.2,0-32,2.4-47.4,6c-29.2-64.8-80.3-115.9-143-145.1
		c1.9-4.1-36.8-19.4-38.8-14.9c-26.7-8.1-54.6-12.6-83.3-12.6c-150.1,0-274.3,113.9-289.4,261.7c-62.1,24.2-106.4,84.4-106.4,155
		c0,91.9,74.7,166.7,166.7,166.7h250v47.2l-59-34c-9.9-5.7-22.7-2.4-28.4,7.6c-5.8,10-2.4,22.7,7.6,28.5l59,34l-59,34
		c-10,5.8-13.4,18.5-7.6,28.5c3.8,6.7,10.9,10.4,18,10.4c3.5,0,7.1-0.9,10.4-2.8l59-34v68.1c0,11.5,9.3,20.8,20.8,20.8
		s20.8-9.3,20.8-20.8v-68.1l59,34c3.3,1.9,6.9,2.8,10.4,2.8c7.2,0,14.2-3.7,18-10.4c5.8-10,2.4-22.7-7.6-28.5l-59-34l59-34
		c10-5.7,13.4-18.5,7.6-28.5c-5.7-10-18.5-13.4-28.4-7.6l-59,34v-47.2h250c114.9,0,208.3-93.5,208.3-208.3
		c0-50.5-18.8-96.2-48.7-132.3C1371,930.3,1340.1,902.2,1339.8,902.7z M1376.7,1064.3c0,91.9-74.7,166.7-166.7,166.7H668.4
		c-68.9,0-125-56.1-125-125s56.1-125,125-125c11.5,0,20.8-9.3,20.8-20.8s-9.3-20.8-20.8-20.8c-5.9,0-11.5,1.1-17.2,1.7
		C670.4,821.4,773.8,731,897.6,731c96.8,0,184.5,57.4,225.4,144.2c-10.1,4.6-19.8,9.9-29.1,16.2c-9.5,6.4-12.1,19.4-5.7,28.9
		c6.5,9.6,19.4,12,28.9,5.7c27.5-18.5,59.7-28.3,93-28.3C1301.9,897.7,1376.7,972.4,1376.7,1064.3z"/>
	<path class="st0" d="M761.3,1356c-5.7-10-18.5-13.4-28.4-7.6l-22.9,13.2v-26.4c0-11.5-9.3-20.8-20.8-20.8s-20.8,9.3-20.8,20.8v26.4
		l-22.9-13.2c-9.9-5.7-22.7-2.3-28.4,7.6c-5.8,10-2.4,22.7,7.6,28.5l22.9,13.2l-22.9,13.2c-10,5.8-13.4,18.5-7.6,28.5
		c3.8,6.7,10.9,10.4,18,10.4c3.5,0,7.1-0.9,10.4-2.8l22.9-13.2v26.4c0,11.5,9.3,20.8,20.8,20.8s20.8-9.3,20.8-20.8v-26.4l22.9,13.2
		c3.3,1.9,6.9,2.8,10.4,2.8c7.2,0,14.2-3.7,18-10.4c5.8-10,2.4-22.7-7.6-28.5l-22.9-13.2l22.9-13.2
		C763.7,1378.7,767.1,1366,761.3,1356L761.3,1356z"/>
	<path class="st0" d="M1303,1356c-5.7-10-18.5-13.4-28.4-7.6l-22.9,13.2v-26.4c0-11.5-9.3-20.8-20.8-20.8s-20.8,9.3-20.8,20.8v26.4
		l-22.9-13.2c-9.9-5.7-22.7-2.3-28.4,7.6c-5.8,10-2.4,22.7,7.6,28.5l22.9,13.2l-22.9,13.2c-10,5.8-13.4,18.5-7.6,28.5
		c3.8,6.7,10.9,10.4,18,10.4c3.5,0,7.1-0.9,10.4-2.8l22.9-13.2v26.4c0,11.5,9.3,20.8,20.8,20.8s20.8-9.3,20.8-20.8v-26.4l22.9,13.2
		c3.3,1.9,6.9,2.8,10.4,2.8c7.2,0,14.2-3.7,18-10.4c5.8-10,2.4-22.7-7.6-28.5l-22.9-13.2l22.9-13.2
		C1305.4,1378.7,1308.8,1366,1303,1356L1303,1356z"/>
	<path class="st1" d="M1114.3,810.8c31.1-55.6,48.8-119.6,48.8-187.7c0-44.3-7.5-87.4-22.2-128.7c94.1,65.7,150.8,172.7,150.8,289.5
		c0,35.3-5.2,69.4-14.8,101.6c6.8,12.5,13.9,24.9,21.5,36.8c16.6-43,25.7-89.7,25.7-138.4c-0.1-145.2-80.7-276.7-210.3-343.2
		c-6.2-3.1-13.8-2-18.7,2.9c-4.9,4.9-6.1,12.5-2.9,18.7c25.9,50.5,39,104.7,39,160.9c0,67.7-19.1,131-52.2,184.8
		C1090.7,809,1102.5,810,1114.3,810.8z"/>
</g>
</svg>
