<?xml version="1.0" encoding="utf-8"?>
<!-- Generator: Adobe Illustrator 22.0.0, SVG Export Plug-In . SVG Version: 6.00 Build 0)  -->
<svg version="1.1" id="Layer_1" xmlns="http://www.w3.org/2000/svg" xmlns:xlink="http://www.w3.org/1999/xlink" x="0px" y="0px"
	 viewBox="0 0 1920 1920" style="enable-background:new 0 0 1920 1920;" xml:space="preserve">
<style type="text/css">
	.st0{fill:#3A5269;}
</style>
<g>
	<path class="st0" d="M1439,939h-105.2c-4.9-87.7-39.8-167.3-94.9-228.8l74.5-74.5c8.1-8.1,8.1-21.3,0-29.5
		c-8.1-8.1-21.3-8.1-29.5,0l-74.5,74.5c-61.5-55.1-141.1-90-228.8-94.9V480.6c0-11.5-9.3-20.8-20.8-20.8c-11.5,0-20.8,9.3-20.8,20.8
		v105.2c-87.5,4.8-167.3,39.6-228.9,94.8l-74.3-74.3c-8.1-8.1-21.3-8.1-29.5,0c-8.1,8.1-8.1,21.3,0,29.5l74.2,74.2
		c-50.4,56.2-83.7,127.8-92.8,207.2c-15-2.3-24.4-8.4-35.3-16c-15.7-10.9-35.3-24.6-71.8-24.6c-11.5,0-20.8,9.3-20.8,20.8
		c0,11.5,9.3,20.8,20.8,20.8c23.4,0,34.2,7.5,47.9,17.1c15.7,10.9,35.3,24.6,71.7,24.6c36.5,0,56.1-13.6,71.8-24.6
		c13.8-9.6,24.6-17.1,48-17.1c23.4,0,34.3,7.5,48.1,17.1c15.7,10.9,35.3,24.6,71.8,24.6c36.5,0,56.1-13.6,71.8-24.6
		c13.8-9.6,24.6-17.1,48.1-17.1c11.5,0,20.8-9.3,20.8-20.8c0-11.5-9.3-20.8-20.8-20.8c-36.5,0-56.1,13.6-71.8,24.6
		c-13.8,9.6-24.6,17.1-48.1,17.1c-23.4,0-34.3-7.6-48-17.1c-15.7-10.9-35.3-24.6-71.8-24.6c-36.5,0-56.1,13.6-71.8,24.6
		c-6.2,4.3-11.9,8-18.3,11c23.3-162.2,162.9-285.6,329.8-285.6c183.8,0,333.3,149.5,333.3,333.3c0,183.8-149.5,333.3-333.3,333.3
		c11.5,0,20.8-9.3,20.8-20.8c0-11.5-9.3-20.8-20.8-20.8c-36.5,0-56.1,13.6-71.8,24.6c-13.8,9.6-24.6,17.1-48.1,17.1
		c-23.4,0-34.3-7.5-48-17.1c-15.7-10.9-35.3-24.6-71.8-24.6c-36.5,0-56.1,13.6-71.8,24.6c-13.8,9.6-24.6,17.1-48,17.1
		c-23.4,0-34.2-7.5-47.9-17.1c-15.7-10.9-35.3-24.6-71.8-24.6c-11.5,0-20.8,9.3-20.8,20.8c0,11.5,9.3,20.8,20.8,20.8
		c23.4,0,34.2,7.6,47.9,17.1c15.7,10.9,35.3,24.6,71.7,24.6c36.5,0,56.1-13.6,71.8-24.6c13.8-9.6,24.6-17.1,48-17.1
		c23.4,0,34.3,7.6,48.1,17.1c15.7,10.9,35.3,24.6,71.8,24.6c18.2,0,32.2-3.4,43.6-8.1c18.2,3.8,36.8,5.9,55.5,7V1439
		c0,11.5,9.3,20.8,20.8,20.8c11.5,0,20.8-9.3,20.8-20.8v-105.2c87.7-4.9,167.3-39.8,228.8-94.9l74.5,74.5c4.1,4.1,9.4,6.1,14.7,6.1
		c5.3,0,10.7-2,14.7-6.1c8.1-8.1,8.1-21.3,0-29.5l-74.5-74.5c55.1-61.5,90-141.1,94.9-228.8H1439c11.5,0,20.8-9.3,20.8-20.8
		C1459.8,948.3,1450.5,939,1439,939L1439,939z M1439,939"/>
	<path class="st0" d="M480.6,1168.1c23.4,0,34.2,7.6,47.9,17.1c15.7,10.9,35.3,24.6,71.7,24.6c11.5,0,20.8-9.3,20.8-20.8
		c0-11.5-9.3-20.8-20.8-20.8c-23.4,0-34.2-7.6-47.9-17.1c-15.7-10.9-35.3-24.6-71.8-24.6c-11.5,0-20.8,9.3-20.8,20.8
		C459.8,1158.8,469.1,1168.1,480.6,1168.1L480.6,1168.1z M480.6,1168.1"/>
	<path class="st0" d="M720.1,1126.5c-11.5,0-20.8,9.3-20.8,20.8c0,11.5,9.3,20.8,20.8,20.8c23.4,0,34.3,7.6,48.1,17.1
		c15.7,10.9,35.3,24.6,71.8,24.6c36.5,0,56.1-13.6,71.8-24.6c13.8-9.6,24.6-17.1,48.1-17.1c23.8,0,35.9,7.8,51.3,17.6
		c17.7,11.3,37.7,24.1,73.7,24.1c11.5,0,20.8-9.3,20.8-20.8c0-11.5-9.3-20.8-20.8-20.8c-23.8,0-35.9-7.8-51.3-17.6
		c-17.7-11.3-37.7-24.1-73.7-24.1c-36.5,0-56.1,13.6-71.8,24.6c-13.8,9.6-24.6,17.1-48.1,17.1c-23.4,0-34.3-7.6-48-17.1
		C776.2,1140.1,756.6,1126.5,720.1,1126.5L720.1,1126.5z M720.1,1126.5"/>
	<path class="st0" d="M720.1,1001.5c-36.5,0-56.1,13.6-71.8,24.6c-13.8,9.6-24.6,17.1-48,17.1c-23.4,0-34.2-7.6-47.9-17.1
		c-15.7-10.9-35.3-24.6-71.8-24.6c-11.5,0-20.8,9.3-20.8,20.8c0,11.5,9.3,20.8,20.8,20.8c23.4,0,34.2,7.6,47.9,17.1
		c15.7,10.9,35.3,24.6,71.7,24.6c36.5,0,56.1-13.6,71.8-24.6c13.8-9.6,24.6-17.1,48-17.1c11.5,0,20.8-9.3,20.8-20.8
		C740.9,1010.8,731.6,1001.5,720.1,1001.5L720.1,1001.5z M720.1,1001.5"/>
	<path class="st0" d="M911.7,1060.2c13.8-9.6,24.6-17.1,48.1-17.1c23.4,0,34.2,7.6,47.9,17.1c15.7,10.9,35.3,24.6,71.7,24.6
		c36.5,0,56.1-13.6,71.8-24.6c13.8-9.6,24.6-17.1,48-17.1c11.5,0,20.8-9.3,20.8-20.8c0-11.5-9.3-20.8-20.8-20.8
		c-36.5,0-56.1,13.6-71.8,24.6c-13.8,9.6-24.6,17.1-48,17.1c-23.4,0-34.2-7.6-47.9-17.1c-15.7-10.9-35.3-24.6-71.8-24.6
		c-36.5,0-56.1,13.6-71.8,24.6c-13.8,9.6-24.6,17.1-48.1,17.1c-11.5,0-20.8,9.3-20.8,20.8c0,11.5,9.3,20.8,20.8,20.8
		C876.4,1084.8,896,1071.2,911.7,1060.2L911.7,1060.2z M911.7,1060.2"/>
</g>
</svg>
