<?xml version="1.0" encoding="utf-8"?>
<!-- Generator: Adobe Illustrator 22.0.0, SVG Export Plug-In . SVG Version: 6.00 Build 0)  -->
<svg version="1.1" id="Layer_1" xmlns="http://www.w3.org/2000/svg" xmlns:xlink="http://www.w3.org/1999/xlink" x="0px" y="0px"
	 viewBox="0 0 1920 1920" style="enable-background:new 0 0 1920 1920;" xml:space="preserve">
<style type="text/css">
	.st0{fill:#3B5269;}
	.st1{fill:#FFFFFF;}
</style>
<path class="st0" d="M1430.7,939.2h-105.2c-4.9-87.7-39.8-167.3-94.9-228.8l74.5-74.5c8.1-8.1,8.1-21.3,0-29.5
	c-8.1-8.1-21.3-8.1-29.5,0l-74.5,74.5c-61.5-55.1-141.1-90-228.8-94.9V480.8c0-11.5-9.3-20.8-20.8-20.8s-20.8,9.3-20.8,20.8V586
	c-87.7,4.9-167.3,39.8-228.8,94.9l-74.5-74.5c-8.1-8.1-21.3-8.1-29.5,0c-8.1,8.1-8.1,21.3,0,29.5l74.5,74.5
	c-55.1,61.5-90,141.1-94.9,228.8H472.3c-11.5,0-20.8,9.3-20.8,20.8s9.3,20.8,20.8,20.8h105.2c4.9,87.7,39.8,167.3,94.9,228.8
	l-74.5,74.5c-8.1,8.1-8.1,21.3,0,29.5c4.1,4.1,9.4,6.1,14.7,6.1s10.7-2,14.7-6.1l74.5-74.5c61.5,55.1,141.1,90,228.8,94.9v105.2
	c0,11.5,9.3,20.8,20.8,20.8s20.8-9.3,20.8-20.8V1334c87.7-4.9,167.3-39.8,228.8-94.9l74.5,74.5c4.1,4.1,9.4,6.1,14.7,6.1
	c5.3,0,10.7-2,14.7-6.1c8.1-8.1,8.1-21.3,0-29.5l-74.5-74.5c55.1-61.5,90-141.1,94.9-228.8h105.4c11.5,0,20.8-9.3,20.8-20.8
	C1451.5,948.5,1442.2,939.2,1430.7,939.2L1430.7,939.2z M951.5,1293.3c-183.8,0-333.3-149.5-333.3-333.3s149.5-333.3,333.3-333.3
	s333.3,149.5,333.3,333.3S1135.3,1293.3,951.5,1293.3L951.5,1293.3z"/>
<g>
	<path class="st1" d="M796.4,768.1c-0.8,0-1.4,0.2-2.2,0.2c-24.2-60.5-82.9-100.9-148.8-100.9c-83.7,0-152.7,63.8-160.1,146.2
		c-35.6,12.2-61.5,45.6-61.5,85.3c0,50,40.6,90.6,90.6,90.6h281.9c61.1,0,110.7-49.7,110.7-110.7
		C907.1,817.8,857.4,768.1,796.4,768.1L796.4,768.1z"/>
	<path class="st0" d="M796.4,768.1c-0.8,0-1.4,0.2-2.2,0.2c-24.2-60.5-82.9-100.9-148.8-100.9c-83.7,0-152.7,63.8-160.1,146.2
		c-35.6,12.2-61.5,45.6-61.5,85.3c0,50,40.6,90.6,90.6,90.6h281.9c61.1,0,110.7-49.7,110.7-110.7
		C907.1,817.8,857.4,768.1,796.4,768.1L796.4,768.1z M796.4,969.4H514.5c-38.9,0-70.5-31.6-70.5-70.5s31.6-70.5,70.5-70.5
		c5.6,0,10-4.5,10-10s-4.5-10-10-10c-3,0-5.7,0.6-8.5,0.8c9.2-69.1,68.2-121.7,139.4-121.7c55.9,0,105.8,33.1,128.1,83.3
		c-15.6,3.4-30.5,9.8-43.4,19.4c-4.5,3.3-5.4,9.6-2.1,14.1c3.3,4.5,9.6,5.4,14.1,2.1c15.8-11.7,35.1-18.1,54.4-18.1
		c49.9,0,90.6,40.6,90.6,90.6C887,928.8,846.4,969.4,796.4,969.4L796.4,969.4z"/>
</g>
<g>
	<path class="st1" d="M819.3,1060.5c-1,0-1.8,0.2-2.8,0.2c-30.8-76.9-105.4-128.2-189.2-128.2c-106.5,0-194.1,81-203.5,185.9
		c-45.2,15.5-78.2,58-78.2,108.5c0,63.6,51.7,115.1,115.1,115.1h358.4c77.6,0,140.8-63.1,140.8-140.8
		C960.2,1123.6,897,1060.5,819.3,1060.5L819.3,1060.5z"/>
	<path class="st0" d="M819.3,1060.5c-1,0-1.8,0.2-2.8,0.2c-30.8-76.9-105.4-128.2-189.2-128.2c-106.5,0-194.1,81-203.5,185.9
		c-45.2,15.5-78.2,58-78.2,108.5c0,63.6,51.7,115.1,115.1,115.1h358.4c77.6,0,140.8-63.1,140.8-140.8
		C960.2,1123.6,897,1060.5,819.3,1060.5L819.3,1060.5z M819.3,1316.4H461.1c-49.4,0-89.6-40.2-89.6-89.6c0-49.4,40.2-89.6,89.6-89.6
		c7.1,0,12.8-5.7,12.8-12.8c0-7.1-5.7-12.8-12.8-12.8c-3.8,0-7.2,0.8-10.8,1.1c11.7-87.8,86.7-154.6,177.2-154.6
		c71.1,0,134.4,42.1,162.8,105.9c-19.8,4.3-38.8,12.4-55.2,24.7c-5.7,4.2-6.9,12.2-2.7,17.9s12.2,6.9,17.9,2.7
		c20-14.9,44.6-23,69.1-23c63.5,0,115.1,51.7,115.1,115.1C934.6,1264.7,882.9,1316.4,819.3,1316.4L819.3,1316.4z"/>
</g>
<g>
	<path class="st1" d="M1352.1,626.9c-0.9,0-1.7,0.2-2.6,0.2c-28.7-71.7-98.3-119.6-176.5-119.6c-99.3,0-181.1,75.6-189.8,173.4
		c-42.2,14.5-72.9,54.1-72.9,101.2c0,59.3,48.2,107.4,107.4,107.4H1352c72.4,0,131.3-58.9,131.3-131.3
		C1483.4,685.8,1424.5,626.9,1352.1,626.9L1352.1,626.9z"/>
	<path class="st0" d="M1352.1,626.9c-0.9,0-1.7,0.2-2.6,0.2c-28.7-71.7-98.3-119.6-176.5-119.6c-99.3,0-181.1,75.6-189.8,173.4
		c-42.2,14.5-72.9,54.1-72.9,101.2c0,59.3,48.2,107.4,107.4,107.4H1352c72.4,0,131.3-58.9,131.3-131.3
		C1483.4,685.8,1424.5,626.9,1352.1,626.9L1352.1,626.9z M1352.1,865.6h-334.3c-46.1,0-83.6-37.5-83.6-83.6s37.5-83.6,83.6-83.6
		c6.6,0,11.9-5.3,11.9-11.9s-5.3-11.9-11.9-11.9c-3.5,0-6.7,0.7-10.1,1c10.9-81.9,80.9-144.3,165.3-144.3
		c66.3,0,125.4,39.3,151.9,98.8c-18.5,4-36.2,11.6-51.5,23c-5.3,3.9-6.4,11.4-2.5,16.7s11.4,6.4,16.7,2.5
		c18.7-13.9,41.6-21.5,64.5-21.5c59.2,0,107.4,48.2,107.4,107.4C1459.6,817.4,1411.4,865.6,1352.1,865.6L1352.1,865.6z"/>
</g>
<g>
	<path class="st1" d="M1390.2,1108.6c-1.1,0-2.1,0.2-3.2,0.2c-35.7-89.3-122.4-148.9-219.7-148.9c-123.6,0-225.5,94.1-236.3,215.9
		c-52.5,18.1-90.8,67.4-90.8,126c0,73.8,60,133.7,133.7,133.7H1390c90.1,0,163.5-73.3,163.5-163.5
		C1553.6,1181.9,1480.3,1108.6,1390.2,1108.6L1390.2,1108.6z"/>
	<path class="st0" d="M1390.2,1108.6c-1.1,0-2.1,0.2-3.2,0.2c-35.7-89.3-122.4-148.9-219.7-148.9c-123.6,0-225.5,94.1-236.3,215.9
		c-52.5,18.1-90.8,67.4-90.8,126c0,73.8,60,133.7,133.7,133.7H1390c90.1,0,163.5-73.3,163.5-163.5
		C1553.6,1181.9,1480.3,1108.6,1390.2,1108.6L1390.2,1108.6z M1390.2,1405.8H973.9c-57.4,0-104.1-46.7-104.1-104.1
		c0-57.4,46.7-104.1,104.1-104.1c8.2,0,14.8-6.6,14.8-14.8s-6.6-14.8-14.8-14.8c-4.4,0-8.3,0.9-12.6,1.2
		c13.6-102,100.7-179.7,205.8-179.7c82.5,0,156.1,48.9,189.1,123c-23,5-45.1,14.4-64.1,28.6c-6.6,4.9-8,14.2-3.1,20.8
		s14.2,8,20.8,3.1c23.3-17.3,51.8-26.8,80.3-26.8c73.7,0,133.7,60,133.7,133.7C1524,1345.8,1464,1405.8,1390.2,1405.8L1390.2,1405.8
		z"/>
</g>
</svg>
