<?xml version="1.0" encoding="utf-8"?>
<!-- Generator: Adobe Illustrator 22.0.0, SVG Export Plug-In . SVG Version: 6.00 Build 0)  -->
<svg version="1.1" id="Layer_1" xmlns="http://www.w3.org/2000/svg" xmlns:xlink="http://www.w3.org/1999/xlink" x="0px" y="0px"
	 viewBox="0 0 1920 1920" style="enable-background:new 0 0 1920 1920;" xml:space="preserve">
<style type="text/css">
	.st0{fill:#3B5269;}
	.st1{fill:#FFFFFF;stroke:#3B5269;stroke-width:9;stroke-miterlimit:10;}
	.st2{fill:#3B5269;stroke:#3B5269;stroke-width:9;stroke-miterlimit:10;}
</style>
<g>
	<path class="st0" d="M1259.8,761.2c-1.5,0-3,0.3-4.5,0.4c-50.1-125.2-171.5-208.7-308-208.7c-173.3,0-316,131.9-331.2,302.5
		c-73.7,25.3-127.2,94.5-127.2,176.6c0,103.4,84.1,187.5,187.5,187.5h583.3c126.4,0,229.2-102.8,229.2-229.2
		C1489,864,1386.2,761.2,1259.8,761.2L1259.8,761.2z M1259.8,1177.9H676.5c-80.4,0-145.8-65.4-145.8-145.8s65.4-145.8,145.8-145.8
		c11.5,0,20.8-9.3,20.8-20.8s-9.3-20.8-20.8-20.8c-6,0-11.8,1.2-17.7,1.8c19-143,141.2-251.8,288.5-251.8
		c115.7,0,218.8,68.6,265,172.4c-32.2,6.9-63.2,20.2-90,40.1c-9.2,6.9-11.1,19.9-4.3,29.2c6.8,9.2,19.9,11.1,29.2,4.3
		c32.6-24.2,72.5-37.6,112.6-37.6c103.4,0,187.5,84.1,187.5,187.5C1447.3,1093.8,1363.2,1177.9,1259.8,1177.9L1259.8,1177.9z"/>
	<g>
		<path class="st1" d="M596.3,1036.6c1.1,0,2.1,0.3,3.3,0.3c36.1-90.2,123.7-150.5,222.1-150.5c125,0,227.9,95.2,238.9,218.2
			c53.1,18.3,91.8,68.1,91.8,127.4c0,74.6-60.7,135.2-135.2,135.2H596.4c-91.1,0-165.3-74.1-165.3-165.3
			C431,1110.7,505.1,1036.6,596.3,1036.6L596.3,1036.6z"/>
		<path class="st2" d="M596.3,1036.6c1.1,0,2.1,0.3,3.3,0.3c36.1-90.2,123.7-150.5,222.1-150.5c125,0,227.9,95.2,238.9,218.2
			c53.1,18.3,91.8,68.1,91.8,127.4c0,74.6-60.7,135.2-135.2,135.2H596.4c-91.1,0-165.3-74.1-165.3-165.3
			C431,1110.7,505.1,1036.6,596.3,1036.6L596.3,1036.6z M596.3,1337H1017c58,0,105.2-47.2,105.2-105.2c0-58-47.2-105.2-105.2-105.2
			c-8.3,0-15-6.7-15-15c0-8.3,6.7-15,15-15c4.4,0,8.4,0.9,12.7,1.3C1016,994.8,927.9,916.3,821.7,916.3
			c-83.4,0-157.8,49.5-191.2,124.4c23.3,5,45.6,14.6,64.8,28.9c6.7,4.9,8.1,14.3,3.1,21c-4.9,6.7-14.3,8.1-21,3.1
			c-23.5-17.5-52.4-27.1-81.2-27.1c-74.5,0-135.2,60.7-135.2,135.2C461,1276.4,521.6,1337,596.3,1337L596.3,1337z"/>
	</g>
</g>
</svg>
